<svg width="78" height="78" viewBox="0 0 78 78" fill="none" xmlns="http://www.w3.org/2000/svg">
<rect x="19.3477" y="11.4258" width="39.1523" height="54.3867" rx="19.5762" fill="#262626"/>
<path d="M2.28516 38.9238C2.28516 32.1508 7.85196 26.6602 14.625 26.6602V51.1875C7.85196 51.1875 2.28516 45.6969 2.28516 38.9238Z" fill="#EFB624"/>
<path d="M75.5625 38.9238C75.5625 45.6969 69.9957 51.1875 63.2227 51.1875L63.2227 26.6602C69.9957 26.6602 75.5625 32.1508 75.5625 38.9238Z" fill="#EFB624"/>
<path d="M38.9238 7.38867C24.6645 7.38867 16.1738 17.0371 13.7109 21.8613H8.07422C10.8672 15.3613 20.9473 2.36133 38.9238 2.36133C56.9004 2.36133 67.082 15.3613 69.9258 21.8613H64.3652C61.8262 17.0371 53.1832 7.38867 38.9238 7.38867Z" fill="#262626"/>
<path d="M36.4863 70.6113V70.6226C37.5174 70.6656 46.4094 70.671 52.9395 67.2598C58.043 64.5938 62.5371 59.6426 64.2129 56.2148H69.6973C69.1641 58.4238 64.2129 65.5793 58.957 69.2402C50.1211 75.3949 40.2949 76.0195 36.4863 75.5625V70.6226C36.358 70.6173 36.3514 70.6113 36.4863 70.6113Z" fill="#262626"/>
</svg>
