<svg width="58" height="74" viewBox="0 0 58 74" fill="none" xmlns="http://www.w3.org/2000/svg">
<path d="M0.0227118 18.2239V43.7058C0.0227118 59.7996 15.8799 74 28.7391 74C41.5984 74 57.2978 60.2729 57.2978 43.7058V18.2239C57.2189 17.0142 57.2978 14.516 56.2722 13.1748C55.4828 12.1425 53.8529 11.334 53.0377 11.1237C51.1969 10.6766 48.3863 10.4234 40.8884 7.258C32.2924 3.629 30.2381 0 28.6603 0C27.0824 0 24.5611 3.80061 16.9055 7.258C12.9925 9.02516 7.28073 10.5714 4.91399 11.1237C4.04618 11.4392 2.78599 11.1239 1.0483 13.1748C0.022478 14.3856 -0.0561795 16.909 0.0227118 18.2239Z" fill="#262626"/>
<path fill-rule="evenodd" clip-rule="evenodd" d="M26.8385 12.744C25.4931 13.8107 23.5571 15.224 20.6542 16.5659C17.7284 17.9184 13.543 19.0806 11.762 19.5096C11.5273 19.5874 11.2924 19.6286 11.1474 19.6541C11.1311 19.657 11.1161 19.6596 11.1022 19.6621C10.9143 19.6958 10.785 19.7223 10.6523 19.7683C10.4307 19.8451 10.0718 20.0204 9.569 20.628C9.42523 20.8016 9.26401 21.2069 9.17231 21.8507C9.08699 22.4496 9.08589 23.0757 9.11113 23.5064L9.1133 23.5433V42.5423C9.1133 48.1266 11.8089 53.4606 15.6857 57.4219C19.5792 61.4002 24.4926 63.8231 28.7274 63.8231C32.9736 63.8231 37.8579 61.4777 41.7134 57.5524C45.5516 53.6447 48.2269 48.3127 48.2269 42.5423V23.6192C48.216 23.4387 48.2094 23.2612 48.2028 23.0817C48.1891 22.7095 48.175 22.3284 48.1215 21.8919C48.0413 21.237 47.8989 20.8015 47.7323 20.5786C47.5822 20.3777 47.2954 20.1356 46.924 19.9121C46.5616 19.694 46.2327 19.5616 46.077 19.5191C45.8656 19.4668 45.6312 19.4173 45.3628 19.3605C43.9839 19.069 41.7078 18.5878 37.059 16.5789C33.8169 15.1778 31.7896 13.7668 30.4252 12.7022C30.0715 12.4262 29.8015 12.2062 29.572 12.0192C29.3234 11.8166 29.1221 11.6526 28.9132 11.4979C28.8033 11.4165 28.7225 11.3632 28.6664 11.3288C28.6034 11.3657 28.5085 11.4258 28.3757 11.5224C28.1327 11.699 27.8719 11.9105 27.5431 12.1773C27.3386 12.3432 27.1077 12.5305 26.8385 12.744ZM26.8915 9.48026C27.2943 9.1875 27.9279 8.75696 28.6701 8.75696C29.4155 8.75696 30.0273 9.18164 30.4153 9.46886C30.6381 9.63383 30.9273 9.86806 31.2376 10.1194C31.4788 10.3147 31.7327 10.5204 31.9781 10.7118C33.2095 11.6726 35.0534 12.962 38.0605 14.2615C42.4749 16.1691 44.5525 16.609 45.9204 16.8986C46.2049 16.9589 46.4588 17.0127 46.6966 17.0718L46.7055 17.074L46.7144 17.0763C47.1545 17.1926 47.7097 17.4385 48.2256 17.749C48.7383 18.0575 49.3309 18.5003 49.7548 19.0676C50.3338 19.8427 50.5355 20.8357 50.6273 21.5848C50.6938 22.1275 50.7168 22.7256 50.7326 23.1364C50.7384 23.2866 50.7432 23.4117 50.7488 23.5L50.7514 23.5401V42.5423C50.7514 49.1001 47.7201 55.0396 43.5145 59.3214C39.3263 63.5855 33.8298 66.3476 28.7274 66.3476C23.6138 66.3476 18.089 63.4869 13.8814 59.1877C9.65717 54.8714 6.58878 48.9339 6.58878 42.5423V23.616C6.55884 23.0696 6.5603 22.2858 6.67302 21.4946C6.78201 20.7296 7.02226 19.7455 7.62425 19.0182C8.38467 18.0996 9.11548 17.6291 9.82552 17.383C10.1587 17.2675 10.4556 17.2133 10.6564 17.1773C10.669 17.175 10.6811 17.1728 10.6926 17.1708C10.7804 17.155 10.8366 17.145 10.8896 17.1335C10.9163 17.1277 10.9349 17.1231 10.9481 17.1194C10.9545 17.1177 10.9591 17.1163 10.9621 17.1153C10.9652 17.1143 10.9666 17.1138 10.9666 17.1138L11.0388 17.0869L11.1137 17.069C12.8107 16.6637 16.8657 15.536 19.5949 14.2744C22.2575 13.0436 24.0208 11.7563 25.27 10.7658C25.4746 10.6036 25.6775 10.4392 25.8738 10.2803C26.2483 9.97688 26.5988 9.693 26.8915 9.48026Z" fill="white"/>
<path fill-rule="evenodd" clip-rule="evenodd" d="M41.6665 27.2955C42.2769 27.8547 42.3186 28.8028 41.7594 29.4133L26.2967 46.296C26.0236 46.5943 25.6415 46.7695 25.2372 46.7819C24.833 46.7943 24.4409 46.6428 24.15 46.3618L17.2076 39.656C16.6121 39.0809 16.5957 38.132 17.1708 37.5365C17.7459 36.9411 18.6949 36.9246 19.2903 37.4998L25.1256 43.1361L39.5487 27.3885C40.1078 26.778 41.056 26.7364 41.6665 27.2955Z" fill="#EFB624"/>
</svg>
