<svg width="76" height="89" viewBox="0 0 76 89" fill="none" xmlns="http://www.w3.org/2000/svg">
<path d="M71.9492 35C71.9492 32.7909 70.1584 31 67.9492 31C65.7401 31 63.9492 32.7909 63.9492 35L71.9492 35ZM63.9492 35L63.9492 72.5L71.9492 72.5L71.9492 35L63.9492 35ZM65.9492 70.5L8.05179 70.5L8.05179 78.5L65.9492 78.5L65.9492 70.5ZM63.9492 72.5C63.9492 71.3954 64.8447 70.5 65.9492 70.5L65.9492 78.5C69.2629 78.5 71.9492 75.8137 71.9492 72.5L63.9492 72.5Z" fill="#EFB624"/>
<path d="M16.6667 65.5L6 74L16.6667 83.5" stroke="#EFB624" stroke-width="11" stroke-linecap="round" stroke-linejoin="round"/>
<path d="M4.05273 54.5C4.05273 56.7091 5.8436 58.5 8.05273 58.5C10.2619 58.5 12.0527 56.7091 12.0527 54.5H4.05273ZM12.0527 54.5V17H4.05273V54.5H12.0527ZM10.0527 19H67.9502V11H10.0527V19ZM12.0527 17C12.0527 18.1046 11.1573 19 10.0527 19V11C6.73903 11 4.05273 13.6863 4.05273 17H12.0527Z" fill="#262626"/>
<path d="M59.3353 24L70.002 15.5L59.3353 6" stroke="#262626" stroke-width="11" stroke-linecap="round" stroke-linejoin="round"/>
</svg>
