<svg width="75" height="75" viewBox="0 0 75 75" fill="none" xmlns="http://www.w3.org/2000/svg">
<path fill-rule="evenodd" clip-rule="evenodd" d="M20.1983 21.2181C20.1983 13.4326 27.7274 7.12114 37.015 7.12114C46.3026 7.12114 53.8316 13.4326 53.8316 21.2181V27.976H20.1983V21.2181ZM11.7033 27.9795V21.2181C11.7033 9.49966 23.0357 0 37.015 0C50.9942 0 62.3267 9.49966 62.3267 21.2181V27.9766C68.8964 28.0438 74.2014 33.3904 74.2014 39.976V62.4813C74.2014 69.1088 68.8288 74.4814 62.2014 74.4814H12C5.37258 74.4814 0 69.1088 0 62.4814V39.976C0 33.4477 5.21297 28.1371 11.7033 27.9795Z" fill="#262626"/>
<path fill-rule="evenodd" clip-rule="evenodd" d="M42.1297 57.3373C44.7837 55.665 46.5471 52.7081 46.5471 49.3394C46.5471 44.1222 42.3178 39.8929 37.1007 39.8929C31.8836 39.8929 27.6543 44.1222 27.6543 49.3394C27.6543 52.7082 29.4178 55.6652 32.0721 57.3375C31.9399 57.7974 31.869 58.2833 31.869 58.7857C31.869 61.6752 34.2114 64.0176 37.1009 64.0176C39.9904 64.0176 42.3328 61.6752 42.3328 58.7857C42.3328 58.2832 42.2619 57.7973 42.1297 57.3373Z" fill="#EFB624"/>
</svg>
