<svg width="49" height="74" viewBox="0 0 49 74" fill="none" xmlns="http://www.w3.org/2000/svg">
<path fill-rule="evenodd" clip-rule="evenodd" d="M17.8182 19.8679C16.2115 19.8679 14.9091 21.1519 14.9091 22.7358V23.1392C14.9091 24.9458 16.3947 26.4104 18.2273 26.4104H20.7273V22.7358C20.7273 21.1519 19.4248 19.8679 17.8182 19.8679ZM23.6364 26.4104V22.7358C23.6364 19.568 21.0315 17 17.8182 17C14.6049 17 12 19.568 12 22.7358V23.1392C12 26.5297 14.788 29.2783 18.2273 29.2783H20.7273V53.566C20.7273 54.358 21.3785 55 22.1818 55C22.9851 55 23.6364 54.358 23.6364 53.566V29.2783H26V53.2075C26 53.9995 26.6512 54.6415 27.4545 54.6415C28.2579 54.6415 28.9091 53.9995 28.9091 53.2075V29.2783H32.0455C35.3341 29.2783 38 26.6501 38 23.408C38 20.1566 35.3019 17.5377 32.0228 17.5377C28.7186 17.5377 26 20.1767 26 23.4528V26.4104H23.6364ZM28.9091 26.4104H32.0455C33.7274 26.4104 35.0909 25.0662 35.0909 23.408C35.0909 21.7592 33.7143 20.4057 32.0228 20.4057C30.3063 20.4057 28.9091 21.7793 28.9091 23.4528V26.4104Z" fill="#EFB624"/>
<path d="M12 55.5258C12 53.5785 13.5236 52 15.403 52H32.597C34.4764 52 36 53.5785 36 55.5258V66.4742C36 68.4215 34.4764 70 32.597 70H15.403C13.5236 70 12 68.4215 12 66.4742V55.5258Z" fill="#262626"/>
<path d="M19.1591 72.2686C18.636 71.2086 19.4667 70 20.7183 70H28.2818C29.521 70 30.3519 71.1869 29.8527 72.2444L29.4752 73.0444C29.2011 73.6251 28.5848 74 27.9042 74H21.1131C20.4429 74 19.8339 73.6363 19.5538 73.0686L19.1591 72.2686Z" fill="#262626"/>
<path fill-rule="evenodd" clip-rule="evenodd" d="M11 58C11 57.4477 11.628 57 12.4026 57H36.5974C37.372 57 38 57.4477 38 58C38 58.5523 37.372 59 36.5974 59H12.4026C11.628 59 11 58.5523 11 58Z" fill="#EFB624"/>
<path fill-rule="evenodd" clip-rule="evenodd" d="M11 63.5C11 62.6716 11.628 62 12.4026 62H36.5974C37.372 62 38 62.6716 38 63.5C38 64.3284 37.372 65 36.5974 65H12.4026C11.628 65 11 64.3284 11 63.5Z" fill="#EFB624"/>
<path fill-rule="evenodd" clip-rule="evenodd" d="M24.5505 2.8479C11.2268 2.8479 2.89895 13.2343 2.89895 24.1181C2.89895 29.6185 4.35211 33.0505 6.14053 35.5894C7.05115 36.8821 8.069 37.9722 9.1031 39.0223C9.29802 39.2203 9.49601 39.4191 9.69503 39.6191C10.5241 40.4518 11.3713 41.3028 12.0911 42.1819C13.6007 44.0257 14.5526 46.3187 15.1402 48.366C15.7303 50.422 15.9836 52.3384 16.0336 53.5168C16.0669 54.3025 15.4455 54.966 14.6457 54.9987C13.8459 55.0315 13.1705 54.4211 13.1371 53.6353C13.0965 52.6777 12.8787 50.9809 12.35 49.1388C11.8188 47.288 11.0041 45.3982 9.83222 43.9669C9.2091 43.2058 8.48776 42.4807 7.66969 41.6583C7.45935 41.4469 7.24261 41.229 7.01951 41.0024C5.95582 39.9222 4.80512 38.6983 3.75669 37.2099C1.62698 34.1865 0 30.1873 0 24.1181C0 11.8628 9.42825 0 24.5505 0C25.351 0 26 0.637523 26 1.42395C26 2.21037 25.351 2.8479 24.5505 2.8479Z" fill="#262626"/>
<path fill-rule="evenodd" clip-rule="evenodd" d="M24.4495 2.8479C37.7732 2.8479 46.101 13.2343 46.101 24.1181C46.101 29.6185 44.6479 33.0505 42.8595 35.5894C41.9489 36.8821 40.931 37.9722 39.8969 39.0223C39.702 39.2203 39.504 39.4191 39.305 39.6191C38.4759 40.4518 37.6287 41.3028 36.9089 42.1819C35.3993 44.0257 34.4474 46.3187 33.8598 48.366C33.2697 50.422 33.0164 52.3384 32.9664 53.5168C32.9331 54.3025 33.5545 54.966 34.3543 54.9987C35.1541 55.0315 35.8295 54.4211 35.8629 53.6353C35.9035 52.6777 36.1213 50.9809 36.65 49.1388C37.1812 47.288 37.9959 45.3982 39.1678 43.9669C39.7909 43.2058 40.5122 42.4807 41.3303 41.6583C41.5407 41.4469 41.7574 41.229 41.9805 41.0024C43.0442 39.9222 44.1949 38.6983 45.2433 37.2099C47.373 34.1865 49 30.1873 49 24.1181C49 11.8628 39.5718 0 24.4495 0C23.649 0 23 0.637523 23 1.42395C23 2.21037 23.649 2.8479 24.4495 2.8479Z" fill="#262626"/>
</svg>
