<svg width="103" height="83" viewBox="0 0 103 83" fill="none" xmlns="http://www.w3.org/2000/svg">
<path d="M90.5 34.3218C95.8333 37.401 95.8333 45.099 90.5 48.1782L52.625 70.0453C47.2917 73.1245 40.625 69.2755 40.625 63.1171L40.625 19.3829C40.625 13.2245 47.2917 9.37545 52.625 12.4547L90.5 34.3218Z" fill="#EFB624"/>
<path d="M86.1212 39.2744C87.4397 40.047 87.4397 41.953 86.1212 42.7256L50.7611 63.4454C49.4278 64.2267 47.75 63.2652 47.75 61.7199L47.75 20.2801C47.75 18.7348 49.4278 17.7733 50.7611 18.5546L86.1212 39.2744Z" stroke="white" stroke-width="6"/>
<path d="M70.5 34.3218C75.8333 37.401 75.8333 45.099 70.5 48.1782L32.625 70.0453C27.2917 73.1245 20.625 69.2755 20.625 63.1171L20.625 19.3829C20.625 13.2245 27.2917 9.37545 32.625 12.4547L70.5 34.3218Z" fill="#262626"/>
<path d="M66.1212 39.2744C67.4397 40.047 67.4397 41.953 66.1212 42.7256L30.7611 63.4454C29.4278 64.2267 27.75 63.2652 27.75 61.7199L27.75 20.2801C27.75 18.7348 29.4278 17.7733 30.7611 18.5546L66.1212 39.2744Z" stroke="white" stroke-width="6"/>
</svg>
