<svg width="1080" height="1080" viewBox="0 0 1080 1080" fill="none" xmlns="http://www.w3.org/2000/svg">
<mask id="mask0_480_189" style="mask-type:alpha" maskUnits="userSpaceOnUse" x="55" y="0" width="959" height="540">
<rect x="55" width="959" height="540" fill="#D9D9D9"/>
</mask>
<g mask="url(#mask0_480_189)">
<path d="M385.087 198.601L384.995 198.53C384.771 198.612 362.248 207.366 362.248 234.985C362.248 262.319 383.711 278.431 384.629 279.104L384.945 278.941L387.054 277.871V199.957L385.087 198.601ZM383.997 274.579C378.442 269.534 365.305 255.429 365.305 234.985C365.305 214.103 378.728 205.083 383.997 202.342V274.579Z" fill="#262626"/>
<path d="M406.409 343.698C406.327 343.647 406.276 343.616 406.266 343.606L403.922 344.9V417.984L405.206 419.492C405.44 419.533 407.784 419.9 411.056 419.9C413.42 419.9 416.284 419.706 419.179 419.054C419.423 419.013 419.668 418.952 419.912 418.891C423.072 418.096 426.241 416.75 428.881 414.518C432.988 411.033 435.067 405.998 435.067 399.557C435.067 363.377 408.61 345.145 406.409 343.698ZM417.038 416.343C412.87 417.046 408.936 416.822 406.979 416.628V347.886C407.122 347.999 407.265 348.111 407.418 348.233C414.378 353.757 432.01 370.624 432.01 399.557C432.01 405.05 430.297 409.3 426.914 412.185C424.142 414.539 420.575 415.752 417.15 416.322C417.11 416.332 417.079 416.343 417.038 416.343Z" fill="#262626"/>
<path d="M385.087 198.601L384.995 198.53C384.771 198.612 362.248 207.366 362.248 234.985C362.248 262.319 383.711 278.431 384.629 279.104L384.945 278.941L387.054 277.871V199.957L385.087 198.601ZM383.997 274.579C378.442 269.534 365.305 255.429 365.305 234.985C365.305 214.103 378.728 205.083 383.997 202.342V274.579Z" fill="#262626"/>
<path d="M406.828 487.245L405.299 484.595L436.546 466.617V453.827H439.603V467.504L438.839 468.829L406.828 487.245Z" fill="#262626"/>
<path d="M502.414 369.064C502.414 411.665 486.22 432.517 472.624 442.515C459.161 452.431 445.841 453.888 443.11 454.082C442.845 454.102 442.682 454.112 442.62 454.112L442.498 451.065H442.508C442.784 451.045 447.879 450.759 454.891 448.354C459.661 446.724 465.327 444.125 470.943 439.956C489.532 426.208 499.357 401.687 499.357 369.064C499.357 322.204 445.81 285.596 439.39 281.377C439.013 281.132 438.799 281 438.768 280.979L438.146 279.848L438.055 279.675V247.215H441.112V278.849C444.343 280.959 457.928 290.203 471.34 304.175C485.516 318.943 502.414 342.189 502.414 369.064Z" fill="#262626"/>
<path d="M440.113 281.112L439.389 281.377L409.314 292.557L405.992 293.79L404.932 290.926L405.462 290.732L407.418 289.999L438.054 278.615L439.053 278.248L439.134 278.482L440.113 281.112Z" fill="#262626"/>
<path d="M406.409 343.698C406.327 343.647 406.276 343.616 406.266 343.606L403.922 344.9V417.984L405.206 419.492C405.44 419.533 407.784 419.9 411.056 419.9C413.42 419.9 416.284 419.706 419.179 419.054C419.423 419.013 419.668 418.952 419.912 418.891C423.072 418.096 426.241 416.75 428.881 414.518C432.988 411.033 435.067 405.998 435.067 399.557C435.067 363.377 408.61 345.145 406.409 343.698ZM417.038 416.343C412.87 417.046 408.936 416.822 406.979 416.628V347.886C407.122 347.999 407.265 348.111 407.418 348.233C414.378 353.757 432.01 370.624 432.01 399.557C432.01 405.05 430.297 409.3 426.914 412.185C424.142 414.539 420.575 415.752 417.15 416.322C417.11 416.332 417.079 416.343 417.038 416.343Z" fill="#262626"/>
<path d="M336.016 349.629L334.793 346.826L364.46 333.842L365.367 333.74L386.882 338.041L386.291 341.048L365.245 336.839L336.016 349.629Z" fill="#262626"/>
<path d="M387.128 351.331L385.487 351.943L367.275 358.781L365.838 359.321L365.002 357.11L364.758 356.457L365.573 356.152L385.447 348.691L385.487 348.681L386.048 348.467L387.128 351.331Z" fill="#262626"/>
<path d="M503.392 242.058L502.251 243.638L464.838 252.015L464.073 249.049L468.323 248.101L500.223 240.998C499.56 234.129 495.514 200.905 478.739 181.561C461.607 161.8 444.098 152.485 441 150.926C440.704 150.773 440.541 150.701 440.521 150.691L439.634 149.305V131.195L430.146 130.125H430.136L414.91 128.423L393.028 131.337L384.519 132.469L384.213 130.114L384.121 129.442L414.696 125.365H415.062L441.336 128.311L442.692 129.829V148.347C446.768 150.406 463.89 159.772 481.052 179.553C500.416 201.883 503.28 240.427 503.392 242.058Z" fill="#262626"/>
<path d="M441.416 131.337L439.632 131.633L406.663 137.167L404.951 137.452L404.451 134.435L405.185 134.313H405.195L430.134 130.124H430.144L440.916 128.321L441.416 131.337Z" fill="#262626"/>
<path d="M441.529 150.793L440.999 150.926L410.302 158.355H410.292L405.063 159.619L404.34 156.653L406.664 156.093L439.633 148.102L440.805 147.817L441.529 150.793Z" fill="#262626"/>
<path d="M385.526 245.798V201.017L375.294 206.785L365.52 222.633L363.777 241.63C363.777 241.63 367.375 253.085 367.538 253.931C367.701 254.767 369.801 260.535 369.801 260.535L385.322 248.957L385.526 245.798Z" fill="#262626"/>
<path d="M439.582 248.387V277.871L439.134 278.482L438.145 279.848L437.778 280.347L407.418 290.427L405.461 291.079V290.732L404.85 231.815L407.418 228.299V289.999L438.053 278.615V248.275L428.932 247.001L427.617 245.482C427.617 241.222 427.077 237.033 426.028 233.018C424.315 226.557 421.258 220.615 416.927 215.315L417.62 214.357L422.868 222.144L426.986 232.366L428.586 241.915V246.461L438.053 248.122L439.582 248.387Z" fill="#262626"/>
<path d="M406.062 484.718V453.827L413.064 454.602L426.109 455.295L435.842 455.05L438.074 454.479V467.504L406.062 485.278V484.718Z" fill="#262626"/>
<path d="M473.306 396.51C472.675 386.105 470.748 375.852 467.569 366.068C464.99 358.149 461.545 350.343 457.306 342.882C453.637 336.401 449.285 330.062 444.393 324.049C439.929 318.535 434.956 313.235 429.605 308.292C422.991 302.198 417.029 297.775 413.197 295.135C411.658 294.075 410.354 293.219 409.314 292.557C408.509 292.057 407.867 291.67 407.418 291.405V206.347C409.263 207.662 412.025 209.863 414.899 212.971C415.602 213.736 416.285 214.521 416.927 215.315C421.259 220.615 424.316 226.557 426.028 233.018C427.078 237.034 427.618 241.222 427.618 245.482L428.933 247.001L438.054 248.275L439.583 248.489L441.112 248.703L464.837 252.015L466.346 251.302L468.323 248.102L469.444 246.298L469.678 245.431C469.424 238.868 468.078 228.452 463.125 216.09C460.19 208.752 456.307 201.618 451.578 194.882L451.272 194.443C450.804 193.791 450.335 193.139 449.846 192.486C445.912 187.187 441.754 182.305 437.473 177.974C432.265 172.695 426.793 168.139 421.208 164.409C416.764 161.453 413.024 159.548 410.303 158.355H410.292C408.703 157.652 407.48 157.204 406.664 156.928V135.873L405.502 134.385L405.197 134.313H405.187L393.028 131.338L385.119 129.401L384.212 130.115L383.224 130.889V153.891C381.909 153.993 379.82 154.238 377.231 154.809C364.319 157.652 334.305 169.973 334.305 222.837L334.315 223.662C334.386 234.771 335.844 245.778 338.646 256.377C340.858 264.795 343.966 273.132 347.88 281.163C351.284 288.134 355.32 294.942 359.906 301.413C364.196 307.467 368.915 313.195 373.919 318.423C379.555 324.314 383.927 327.901 385.486 329.134V401.259C383.642 399.099 381.033 395.807 378.383 391.679C373.562 384.168 370.26 376.576 368.568 369.105C367.774 365.63 367.345 362.155 367.274 358.781C367.264 358.455 367.264 358.139 367.264 357.813L366.418 356.641L366.204 356.356L365.572 356.152L339.992 347.886L339.299 347.662L336.302 346.694L335.13 347.601L334.305 348.253C334.335 348.671 335.038 358.761 339.207 373.253C341.653 381.743 344.802 389.988 348.573 397.764C352.058 404.949 356.104 411.777 360.599 418.035C364.93 424.068 369.73 429.673 374.887 434.698C378.607 438.336 382.633 441.781 386.852 444.95V474.373L387.565 475.667L405.686 487.143L406.511 486.695L408.03 485.849V455.152C408.927 455.335 410.109 455.549 411.536 455.774C417.549 456.721 426.752 457.476 436.362 455.743C436.423 455.733 436.485 455.723 436.546 455.712C437.055 455.621 437.565 455.519 438.074 455.407C438.584 455.305 439.094 455.183 439.603 455.06C440.765 454.775 441.937 454.459 443.109 454.082C447.114 452.808 451.14 450.963 454.89 448.354C465.286 441.118 473.551 427.93 473.551 404.317C473.551 401.677 473.47 399.048 473.306 396.51ZM442.508 451.065H442.498C440.388 451.748 438.156 452.298 435.812 452.726C426.619 454.388 417.793 453.664 412.005 452.757C408.855 452.268 406.909 451.758 406.889 451.758L404.973 453.236V483.066L389.909 473.527V444.186L389.288 442.953C384.956 439.742 380.829 436.237 377.027 432.517C371.993 427.604 367.305 422.142 363.085 416.261C358.693 410.136 354.739 403.461 351.324 396.439C347.625 388.815 344.537 380.723 342.142 372.407C339.207 362.185 338.014 354.083 337.586 350.322L364.217 358.934C364.298 362.481 364.757 366.129 365.593 369.778C367.356 377.595 370.8 385.513 375.815 393.33C380.91 401.27 385.731 406.1 385.935 406.304L388.544 405.224V328.38L387.932 327.157C387.881 327.116 382.877 323.366 376.131 316.303C371.228 311.187 366.612 305.582 362.392 299.64C357.918 293.311 353.954 286.636 350.631 279.817C346.799 271.97 343.762 263.817 341.602 255.602C338.86 245.248 337.433 234.496 337.372 223.652L337.362 222.837C337.362 174.009 362.749 161.127 377.884 157.795C381.97 156.898 384.722 156.877 384.753 156.877L386.281 155.349V132.836L403.607 137.075V158.06L404.748 159.537C404.809 159.558 410.782 161.148 419.516 166.957C424.917 170.565 430.227 174.988 435.292 180.114C439.471 184.354 443.547 189.123 447.4 194.311C447.869 194.943 448.327 195.585 448.776 196.217L449.081 196.645C453.667 203.188 457.438 210.108 460.292 217.231C464.96 228.901 466.305 238.746 466.601 245.085L464.277 248.845L430.655 244.147C430.553 240.081 429.993 236.086 428.984 232.244C426.884 224.315 422.899 217.14 417.141 210.892C411.76 205.073 406.838 202.291 406.634 202.179L404.361 203.514V292.292L405.156 293.627C405.176 293.647 407.612 294.993 411.465 297.653C415.215 300.231 421.045 304.573 427.526 310.535C432.775 315.386 437.646 320.573 442.029 325.975C446.809 331.855 451.058 338.052 454.646 344.391C458.784 351.678 462.147 359.291 464.654 367.006C467.762 376.555 469.648 386.543 470.249 396.704V396.714C470.412 399.18 470.494 401.738 470.494 404.317C470.494 429.429 461.087 445.113 442.508 451.065Z" fill="#262626"/>
<path d="M439.634 131.633V148.102L406.664 156.092V137.167L439.634 131.633Z" fill="#262626"/>
<path d="M469.444 246.298L469.678 245.431C469.424 238.868 468.078 228.452 463.125 216.09C460.19 208.752 456.307 201.618 451.578 194.881L451.273 194.443C450.804 193.791 450.335 193.139 449.846 192.486C445.912 187.187 441.754 182.305 437.473 177.974C432.265 172.695 426.793 168.139 421.208 164.409C416.764 161.453 413.024 159.548 410.303 158.355L441 150.926C444.098 152.485 461.607 161.8 478.739 181.561C495.514 200.905 499.56 234.129 500.222 240.998L468.323 248.101L469.444 246.298Z" fill="#262626"/>
<path d="M438.054 248.275V278.615L407.418 289.999V206.347C409.263 207.662 412.025 209.863 414.899 212.971C415.602 213.736 416.285 214.521 416.927 215.315C421.258 220.615 424.315 226.557 426.028 233.018C427.077 237.034 427.618 241.222 427.618 245.482L428.932 247.001L438.054 248.275Z" fill="#262626"/>
<path d="M499.355 369.064C499.355 401.687 489.53 426.208 470.941 439.956C465.325 444.125 459.659 446.724 454.889 448.354C465.284 441.118 473.55 427.931 473.55 404.317C473.55 401.677 473.468 399.048 473.305 396.51C472.673 386.105 470.747 375.852 467.567 366.068C464.989 358.149 461.544 350.343 457.304 342.882C453.635 336.401 449.284 330.062 444.392 324.049C439.928 318.535 431.744 311.88 431.744 311.88L454.196 289.999C460.617 294.218 499.355 329.124 499.355 369.064Z" fill="#262626"/>
<path d="M385.486 351.943V401.259C383.641 399.099 381.032 395.807 378.382 391.679C373.562 384.168 370.26 376.576 368.568 369.105C367.773 365.63 367.345 362.155 367.273 358.781L385.486 351.943Z" fill="#262626"/>
<path d="M385.425 198.459C385.415 198.469 385.292 198.51 385.088 198.601C382.286 199.794 362.688 209.139 362.688 234.914C362.688 240.743 363.696 246.532 365.694 252.127C368.925 261.228 374.194 268.199 378.046 272.449C381.532 276.281 384.355 278.493 384.946 278.941C385.007 278.992 385.048 279.023 385.058 279.033L387.494 277.8V199.886L385.425 198.459ZM380.309 270.39C376.65 266.354 371.636 259.73 368.568 251.108C366.693 245.839 365.745 240.387 365.745 234.914C365.745 214.582 378.464 205.491 383.998 202.505C384.151 202.423 384.293 202.342 384.436 202.27V274.518C384.293 274.396 384.151 274.253 383.998 274.12C382.948 273.142 381.684 271.899 380.309 270.39Z" fill="#262626"/>
<path d="M433.366 382.171C431.267 373.936 427.659 366.252 422.655 359.311C416.143 350.292 409.243 345.247 407.266 343.902C406.909 343.667 406.705 343.535 406.705 343.535L406.41 343.698L404.361 344.829V417.912L405.645 419.421C405.717 419.431 407.307 419.686 409.712 419.777C410.242 419.798 410.823 419.808 411.444 419.808C413.656 419.808 416.387 419.645 419.18 419.054C419.424 419.013 419.669 418.952 419.914 418.891C423.532 418.065 427.211 416.516 430.095 413.744C433.682 410.289 435.507 405.499 435.507 399.486C435.507 393.585 434.783 387.766 433.366 382.171ZM417.04 416.343C415.042 416.648 413.116 416.75 411.485 416.75C410.894 416.75 410.344 416.74 409.834 416.72C408.866 416.679 408.04 416.618 407.419 416.557V347.795C410.283 349.996 415.327 354.389 420.168 361.105C424.958 367.729 428.403 375.067 430.411 382.925C431.766 388.265 432.449 393.84 432.449 399.486C432.449 404.633 430.941 408.689 427.975 411.543C425.019 414.386 420.943 415.741 417.152 416.322C417.111 416.333 417.08 416.343 417.04 416.343Z" fill="#262626"/>
<path d="M388.32 377.381L385.486 376.576V337.328L385.711 336.523L411.016 295.655L413.187 295.197C417.029 297.846 423.001 302.28 429.595 308.364L429.86 310.29L407.714 346.042L407.408 346.103L407.184 346.888L388.32 377.381ZM388.544 337.766V371.205L404.361 345.665V344.9L405.146 344.462L405.115 344.442L426.589 309.76C421.208 304.878 416.305 301.138 412.769 298.631L388.544 337.766Z" fill="#262626"/>
<path d="M337.138 224.528L334.305 223.733L334.295 222.908C334.295 170.024 364.309 157.723 377.222 154.88L378.852 157.173L337.138 224.528ZM374.235 158.834C361.292 162.829 338.973 175.864 337.444 218.24L374.235 158.834Z" fill="#262626"/>
<path d="M341.979 373.712L339.207 373.334C335.038 358.852 334.335 348.753 334.305 348.335L336.302 346.775L353.077 352.197L353.903 354.46L341.979 373.712ZM337.586 350.393C337.974 353.726 338.952 360.493 341.225 369.125L350.285 354.501L337.586 350.393Z" fill="#262626"/>
<path d="M420.168 361.176C413.961 352.585 407.408 347.785 405.553 346.511L405.115 344.442L427.261 308.69L429.595 308.374C434.936 313.297 439.909 318.596 444.403 324.12L444.516 325.893L422.716 361.095L420.168 361.176ZM408.468 344.839C411.067 346.755 416.193 350.964 421.289 357.568L441.336 325.2C437.504 320.563 433.325 316.089 428.872 311.88L408.468 344.839Z" fill="#262626"/>
<path d="M341.418 256.876L338.636 256.459C335.833 245.829 334.376 234.822 334.305 223.734L334.529 222.918L376.243 155.563L377.211 154.88C379.81 154.309 381.899 154.065 383.203 153.963V144.75L383.428 143.944L390.847 131.959L392.508 131.276L405.472 134.446L406.634 135.934V151.078L406.41 151.884L341.418 256.876ZM337.372 224.162C337.464 233.63 338.585 243.036 340.725 252.188L403.607 150.661V137.147L392.885 134.527L386.281 145.198V155.43L384.753 156.959C384.722 156.959 382.256 156.979 378.505 157.744L337.372 224.162Z" fill="#262626"/>
<path d="M386.058 145.565L383.225 144.76V130.96L385.12 129.472L392.54 131.286L393.477 133.58L386.058 145.565ZM386.282 132.907V139.389L389.768 133.763L386.282 132.907Z" fill="#262626"/>
<path d="M433.183 383.424L430.401 382.996C428.403 375.149 424.959 367.811 420.169 361.176L420.107 359.474L441.907 324.273L444.394 324.11C449.265 330.102 453.607 336.441 457.306 342.954L457.276 344.513L433.183 383.424ZM423.246 360.218C427.272 365.976 430.35 372.224 432.409 378.858L454.198 343.677C451.028 338.194 447.4 332.834 443.375 327.717L423.246 360.218Z" fill="#262626"/>
<path d="M467.884 252.514L464.837 252.086L463.746 249.763L466.844 244.759L469.667 245.503C469.81 249.008 469.616 251.047 469.606 251.138L467.884 252.514Z" fill="#262626"/>
<path d="M405.685 487.214L395.422 480.712L394.943 478.613L405.206 462.042L408.039 462.847V485.92L405.685 487.214ZM398.337 478.939L404.972 483.148V468.218L398.337 478.939Z" fill="#262626"/>
<path d="M374.887 434.769C369.73 429.734 364.919 424.129 360.598 418.106L360.537 416.414L375.794 391.781L378.382 391.761C381.042 395.899 383.641 399.18 385.486 401.341V376.576L385.71 375.77L404.585 345.298L407.418 346.103V385.35L407.194 386.156L377.261 434.494L374.887 434.769ZM363.676 417.158C367.355 422.193 371.371 426.922 375.661 431.243L404.361 384.912V351.474L388.543 377.014V405.305L385.934 406.386C385.751 406.202 381.715 402.166 377.139 395.43L363.676 417.158Z" fill="#262626"/>
<path d="M360.598 418.116C356.104 411.858 352.058 405.03 348.572 397.845L348.644 396.377L365.775 368.718L368.568 369.187C370.26 376.667 373.562 384.26 378.382 391.761L378.393 393.391L363.136 418.024L360.598 418.116ZM351.691 397.264C354.667 403.308 358.04 409.076 361.76 414.447L375.294 392.586C371.299 386.217 368.344 379.765 366.489 373.355L351.691 397.264Z" fill="#262626"/>
<path d="M351.253 397.978L348.583 397.835C344.812 390.069 341.663 381.814 339.217 373.314L339.39 372.091L351.314 352.829L353.087 352.177L366.214 356.417L367.274 357.874C367.274 361.543 367.712 365.344 368.578 369.166L368.385 370.308L351.253 397.978ZM342.335 373.131C344.445 380.316 347.054 387.317 350.132 393.983L365.46 369.238C364.716 365.783 364.298 362.348 364.227 358.995L353.281 355.459L342.335 373.131Z" fill="#262626"/>
<path d="M464.848 252.086L442.477 248.958L441.387 246.634L460.404 215.917L463.125 216.151C468.068 228.503 469.413 238.929 469.678 245.492L469.454 246.359L466.356 251.363L464.848 252.086ZM445.219 246.257L464.277 248.917L466.601 245.166C466.325 239.347 465.163 230.572 461.372 220.167L445.219 246.257Z" fill="#262626"/>
<path d="M436.362 455.814L434.793 453.501L470.484 395.878L473.307 396.591C473.47 399.241 473.551 401.871 473.551 404.388C473.551 441.342 453.331 452.757 436.362 455.814ZM470.463 401.718L439.277 452.074C459.997 446.948 470.494 430.926 470.494 404.388C470.494 403.501 470.484 402.615 470.463 401.718Z" fill="#262626"/>
<path d="M424.266 456.854C419.344 456.854 414.931 456.385 411.527 455.845L410.467 453.531L464.808 365.803L467.56 366.139C470.739 375.933 472.676 386.176 473.308 396.602L473.083 397.499L437.393 455.121L436.363 455.824C432.175 456.579 428.068 456.854 424.266 456.854ZM414.299 453.154C419.843 453.858 427.344 454.235 435.151 452.92L470.22 396.286C469.649 387.419 468.1 378.675 465.633 370.257L414.299 453.154Z" fill="#262626"/>
<path d="M395.425 480.712L387.567 475.739L386.854 474.444V452.859L387.078 452.054L408.47 417.525L409.825 416.801C414.401 416.985 422.85 416.546 427.976 411.614C430.942 408.76 432.45 404.704 432.45 399.557C432.45 393.901 431.757 388.326 430.402 382.996L430.585 381.814L454.678 342.913L457.307 342.964C461.527 350.404 464.982 358.2 467.56 366.139L467.407 367.413L413.066 455.142L411.527 455.845C410.1 455.621 408.918 455.396 408.021 455.213V462.836L407.797 463.641L397.534 480.213L395.425 480.712ZM389.911 473.598L395.751 477.298L404.974 462.408V453.307L406.89 451.829C406.91 451.829 408.449 452.237 411.007 452.665L464.431 366.404C462.209 359.688 459.346 353.094 455.901 346.735L433.52 382.874C434.835 388.265 435.508 393.87 435.508 399.557C435.508 405.57 433.683 410.36 430.096 413.815C424.481 419.206 415.818 419.971 410.6 419.879L389.901 453.297V473.598H389.911Z" fill="#262626"/>
<path d="M389.685 453.664L386.852 452.859V445.022C382.663 441.883 378.647 438.438 374.887 434.769L374.652 432.873L404.585 384.535L407.418 385.34V416.628C408.04 416.689 408.865 416.761 409.833 416.791L411.077 419.125L389.685 453.664ZM377.903 433.434C381.491 436.869 385.323 440.089 389.287 443.024L389.909 444.257V447.488L407.133 419.675C406.226 419.584 405.685 419.502 405.645 419.492L404.361 417.984V390.711L377.903 433.434Z" fill="#262626"/>
<path d="M428.801 233.517L426.019 233.099C424.052 225.66 420.302 218.913 414.89 213.043L414.717 211.198L435.09 178.31L437.474 178.045C441.765 182.387 445.933 187.268 449.847 192.547C450.448 193.353 451.019 194.158 451.579 194.963L451.63 196.644L428.801 233.517ZM417.927 211.84C422.483 216.987 425.856 222.745 427.996 229.023L448.512 195.9C448.155 195.391 447.778 194.881 447.401 194.372C443.977 189.765 440.369 185.475 436.659 181.592L417.927 211.84Z" fill="#262626"/>
<path d="M442.478 248.957L428.944 247.062L427.629 245.543C427.629 241.273 427.089 237.084 426.039 233.089L426.212 231.897L449.041 195.034L451.589 194.963C456.308 201.679 460.191 208.813 463.126 216.161L463.004 217.537L443.986 248.254L442.478 248.957ZM430.656 244.218L441.907 245.788L459.997 216.579C457.47 210.393 454.239 204.38 450.397 198.642L429.147 232.957C430.055 236.595 430.564 240.376 430.656 244.218Z" fill="#262626"/>
<path d="M387.269 261.34L384.436 260.535V221.288L384.66 220.483L419.056 164.949L421.206 164.48C426.771 168.19 432.244 172.746 437.472 178.045L437.686 179.92L417.313 212.808L414.888 213.043C412.014 209.934 409.262 207.733 407.407 206.408V228.35L407.183 229.155L387.269 261.34ZM387.493 221.726V255.164L404.36 227.932V203.585L406.633 202.25C406.826 202.352 410.944 204.696 415.754 209.527L434.445 179.35C430.032 174.977 425.456 171.135 420.809 167.925L387.493 221.726Z" fill="#262626"/>
<path d="M350.55 281.366L347.88 281.234C343.977 273.233 340.868 264.897 338.646 256.458L338.82 255.266L403.831 150.293L406.665 151.099V157.01C408.886 157.754 414.176 159.812 421.208 164.5L421.656 166.579L387.26 222.113L384.427 221.308V202.362C379.148 205.103 365.736 214.123 365.736 235.005C365.736 240.478 366.683 245.93 368.559 251.199L368.416 252.514L350.55 281.366ZM341.765 256.316C343.691 263.46 346.26 270.533 349.429 277.381L365.45 251.515C363.616 246.124 362.688 240.57 362.688 234.995C362.688 207.376 385.201 198.622 385.425 198.54L387.494 199.967V215.927L418.273 166.233C410.221 161.076 404.81 159.639 404.759 159.619L403.617 158.141V156.47L341.765 256.316Z" fill="#262626"/>
<path d="M373.92 318.494C368.885 313.225 364.166 307.497 359.906 301.474L359.855 299.782L377.884 270.676L380.32 270.451C381.89 272.174 383.316 273.56 384.448 274.579V260.525L384.672 259.72L404.596 227.545L407.429 228.35V267.598L407.205 268.403L376.345 318.239L373.92 318.494ZM362.984 300.537C366.612 305.592 370.577 310.433 374.776 314.947L404.362 267.18V233.742L387.495 260.973V277.871L385.059 279.104C384.947 279.022 382.593 277.269 379.433 273.998L362.984 300.537Z" fill="#262626"/>
<path d="M388.319 338.133L385.486 337.328V329.205C383.926 327.972 379.554 324.385 373.918 318.504L373.725 316.639L404.584 266.803L407.418 267.608V291.476C408.457 292.088 410.475 293.321 413.196 295.196L413.624 297.265L388.319 338.133ZM376.955 317.24C383.294 323.763 387.881 327.198 387.932 327.228L388.543 328.451V331.957L410.251 296.898C407.102 294.789 405.165 293.708 405.145 293.698L404.36 292.363V272.979L376.955 317.24Z" fill="#262626"/>
<path d="M359.907 301.485C355.331 295.023 351.285 288.215 347.881 281.234L347.952 279.756L365.828 250.884L368.57 251.179C371.637 259.801 376.641 266.426 380.31 270.462L380.473 272.296L362.445 301.403L359.907 301.485ZM350.999 280.653C353.914 286.534 357.298 292.302 361.079 297.816L377.283 271.654C373.961 267.863 369.833 262.237 366.827 255.103L350.999 280.653Z" fill="#262626"/>
<path d="M405.89 417.984L431.787 393.983L433.978 405.295L430.309 411.329L420.117 415.782L404.361 417.984" fill="#262626"/>
<path d="M594.238 513.61C589.774 513.61 586.136 517.239 586.136 521.703C586.136 526.166 589.774 529.805 594.238 529.805C598.702 529.805 602.33 526.166 602.33 521.703C602.33 517.239 598.702 513.61 594.238 513.61ZM586.961 474.924L567.17 499.424L562.767 525.524L585.361 523.792C585.198 523.119 585.117 522.416 585.117 521.703C585.117 516.678 589.214 512.591 594.238 512.591C599.263 512.591 603.349 516.678 603.349 521.703C603.349 526.727 599.263 530.824 594.238 530.824C590.294 530.824 586.921 528.296 585.657 524.78L562.349 526.584L543.056 541.749C543.678 542.84 544.035 544.114 544.035 545.459C544.035 549.627 540.651 553.021 536.483 553.021C532.315 553.021 528.921 549.627 528.921 545.459C528.921 541.291 532.315 537.907 536.483 537.907C538.939 537.907 541.13 539.089 542.486 540.903L561.687 525.8L566.201 498.996L566.293 498.894L586.126 474.332C573.081 465.13 557.182 459.728 539.999 459.728C524.712 459.728 510.423 464.008 498.275 471.438L504.125 483.026L498.408 500.474L500.741 503.602C502.413 501.442 505.022 500.056 507.957 500.056C512.981 500.056 517.068 504.153 517.068 509.177C517.068 514.202 512.981 518.288 507.957 518.288C502.922 518.288 498.836 514.202 498.836 509.177C498.836 507.455 499.315 505.855 500.13 504.489L497.266 500.667L503.024 483.107L497.399 471.978C474.845 486.155 459.863 511.256 459.863 539.864C459.863 578.316 486.932 610.43 523.061 618.206L527.148 603.489L536.534 598.934C534.638 597.262 533.446 594.827 533.446 592.105C533.446 587.081 537.533 582.994 542.557 582.994C547.418 582.994 551.403 586.806 551.668 591.596H572.408L582.11 608.055C604.929 593.94 620.135 568.675 620.135 539.864C620.135 513.142 607.059 489.487 586.961 474.924ZM507.957 517.269C512.421 517.269 516.049 513.641 516.049 509.177C516.049 504.713 512.421 501.075 507.957 501.075C503.493 501.075 499.855 504.713 499.855 509.177C499.855 513.641 503.493 517.269 507.957 517.269ZM594.238 513.61C589.774 513.61 586.136 517.239 586.136 521.703C586.136 526.166 589.774 529.805 594.238 529.805C598.702 529.805 602.33 526.166 602.33 521.703C602.33 517.239 598.702 513.61 594.238 513.61ZM594.238 513.61C589.774 513.61 586.136 517.239 586.136 521.703C586.136 526.166 589.774 529.805 594.238 529.805C598.702 529.805 602.33 526.166 602.33 521.703C602.33 517.239 598.702 513.61 594.238 513.61ZM594.238 513.61C589.774 513.61 586.136 517.239 586.136 521.703C586.136 526.166 589.774 529.805 594.238 529.805C598.702 529.805 602.33 526.166 602.33 521.703C602.33 517.239 598.702 513.61 594.238 513.61Z" fill="#262626"/>
<path d="M540 385.096C531.399 385.096 522.96 385.799 514.746 387.144V410.952C522.981 409.351 531.429 408.536 540 408.536C575.08 408.536 608.059 422.193 632.865 446.999C657.672 471.805 671.328 504.785 671.328 539.864C671.328 548.2 670.554 556.425 669.035 564.435H692.822C694.106 556.435 694.769 548.231 694.769 539.864C694.769 454.388 625.477 385.096 540 385.096ZM447.136 632.729C422.329 607.923 408.673 574.943 408.673 539.864C408.673 524.74 411.211 510.013 416.092 496.152H391.49C387.413 510.013 385.232 524.678 385.232 539.864C385.232 625.34 454.524 694.632 540 694.632C560.322 694.632 579.717 690.718 597.491 683.605V658.004C579.808 666.636 560.251 671.191 540 671.191C504.921 671.191 471.942 657.535 447.136 632.729Z" fill="#262626"/>
<path d="M883.3 562.305L883.514 543.909C884.584 451.35 849.352 364.142 784.33 298.366C721.734 235.046 639.01 199.101 550.415 196.492C546.379 192.313 544.046 189.898 540.01 185.719C544.402 181.479 546.787 179.176 551.18 174.937C596.888 176.292 641.222 186.015 683.119 203.891C726.871 222.551 766.088 249.233 799.669 283.211C833.239 317.169 859.462 356.671 877.603 400.617C892.727 437.255 901.675 475.677 904.295 515.19C912.04 500.759 919.786 479 922.456 451.513C931.078 443.737 936.377 438.957 944.999 431.181C944.989 497.681 912.142 562.305 883.3 562.305Z" fill="#262626"/>
<path d="M539.999 894.028C535.606 898.268 533.232 900.571 528.839 904.811C483.497 903.466 439.49 893.885 397.878 876.285C354.401 857.899 315.358 831.575 281.828 798.045C248.298 764.515 221.973 725.471 203.588 681.994C188.219 645.651 178.965 607.494 175.969 568.206C168.131 582.637 160.223 604.6 157.522 632.443C148.9 640.209 143.601 644.979 134.979 652.744C134.979 586.225 168.386 521.712 196.454 521.712V539.863C196.454 725.818 344.964 877.742 529.603 883.246C533.639 887.424 535.973 889.85 539.999 894.028Z" fill="#262626"/>
<path d="M578.148 268.159C590.193 268.159 599.957 258.394 599.957 246.349C599.957 234.304 590.193 224.539 578.148 224.539C566.102 224.539 556.338 234.304 556.338 246.349C556.338 258.394 566.102 268.159 578.148 268.159Z" fill="#EFB624"/>
<path d="M743.392 346.633C755.437 346.633 765.202 336.868 765.202 324.823C765.202 312.778 755.437 303.013 743.392 303.013C731.347 303.013 721.582 312.778 721.582 324.823C721.582 336.868 731.347 346.633 743.392 346.633Z" fill="#EFB624"/>
<path d="M830.937 507.251C842.982 507.251 852.747 497.487 852.747 485.441C852.747 473.396 842.982 463.632 830.937 463.632C818.891 463.632 809.127 473.396 809.127 485.441C809.127 497.487 818.891 507.251 830.937 507.251Z" fill="#EFB624"/>
<path d="M594.237 512.591C589.213 512.591 585.116 516.678 585.116 521.703C585.116 522.416 585.197 523.119 585.36 523.792L562.766 525.524L567.169 499.424L586.961 474.924C586.685 474.72 586.41 474.526 586.125 474.333L566.292 498.894L566.2 498.996L561.686 525.8L542.485 540.903C541.129 539.089 538.938 537.907 536.482 537.907C532.314 537.907 528.92 541.291 528.92 545.459C528.92 549.627 532.314 553.021 536.482 553.021C540.65 553.021 544.034 549.627 544.034 545.459C544.034 544.114 543.677 542.84 543.056 541.749L562.348 526.584L585.656 524.78C586.92 528.297 590.293 530.824 594.237 530.824C599.262 530.824 603.348 526.727 603.348 521.703C603.348 516.678 599.262 512.591 594.237 512.591ZM543.198 545.459C543.198 549.158 540.182 552.175 536.482 552.175C532.782 552.175 529.766 549.158 529.766 545.459C529.766 541.759 532.782 538.753 536.482 538.753C540.182 538.753 543.198 541.759 543.198 545.459ZM594.237 529.805C589.773 529.805 586.135 526.166 586.135 521.703C586.135 517.239 589.773 513.611 594.237 513.611C598.701 513.611 602.329 517.239 602.329 521.703C602.329 526.166 598.701 529.805 594.237 529.805Z" fill="#EFB624"/>
<path d="M543.198 545.459C543.198 549.158 540.181 552.175 536.482 552.175C532.782 552.175 529.766 549.158 529.766 545.459C529.766 541.759 532.782 538.753 536.482 538.753C540.181 538.753 543.198 541.759 543.198 545.459Z" fill="#262626"/>
<path d="M507.956 500.056C505.021 500.056 502.412 501.442 500.741 503.602L498.407 500.474L504.124 483.026L498.275 471.438C497.979 471.611 497.683 471.795 497.398 471.978L503.024 483.107L497.266 500.667L500.129 504.489C499.314 505.855 498.835 507.455 498.835 509.177C498.835 514.202 502.922 518.288 507.956 518.288C512.981 518.288 517.068 514.202 517.068 509.177C517.068 504.153 512.981 500.056 507.956 500.056ZM507.956 517.269C503.493 517.269 499.854 513.641 499.854 509.177C499.854 504.713 503.493 501.075 507.956 501.075C512.42 501.075 516.049 504.713 516.049 509.177C516.049 513.641 512.42 517.269 507.956 517.269Z" fill="#EFB624"/>
</g>
</svg>
