<svg width="1080" height="1080" viewBox="0 0 1080 1080" fill="none" xmlns="http://www.w3.org/2000/svg">
<mask id="mask0_487_2726" style="mask-type:alpha" maskUnits="userSpaceOnUse" x="51" y="540" width="959" height="540">
<path d="M1010 540H51V1080H1010V540Z" fill="#D9D9D9"/>
</mask>
<g mask="url(#mask0_487_2726)">
<path d="M620.838 845.201L619.391 842.51L641.486 830.729L642.913 833.44L642.505 833.654L620.838 845.201Z" fill="#EFB624"/>
<path d="M721.977 968.865L720.51 966.184L761.235 943.814V935.202H764.292V944.721L763.497 946.066L721.977 968.865Z" fill="#EFB624"/>
<path d="M698.305 931.076L677.381 941.729L678.768 944.454L699.692 933.801L698.305 931.076Z" fill="#EFB624"/>
<path d="M643.451 619.253L603.891 633.177L604.906 636.061L644.466 622.137L643.451 619.253Z" fill="#EFB624"/>
<path d="M721.122 578.428L721.01 578.918L720.47 581.425L714.355 580.1L698.629 576.675L651.218 588.732L644.319 590.485L643.666 587.937L643.564 587.519L698.221 573.628L698.925 573.618L721.122 578.428Z" fill="#EFB624"/>
<path d="M624.673 636.003L624.217 639.026L625.094 639.159L625.55 636.135L624.673 636.003Z" fill="#EFB624"/>
<path d="M722.325 579.927V590.505H719.267V581.924L671.887 594.847L670.766 595.153L669.961 592.197L670.287 592.105H670.297L714.355 580.1L720.399 578.449L721.01 578.918L722.325 579.927Z" fill="#EFB624"/>
<path d="M772.161 590.76V646.069L771.019 647.547L770.408 647.71L728.908 658.615L724.495 659.777L723.721 656.821L725.637 656.322L769.103 644.887V590.76H772.161Z" fill="#EFB624"/>
<path d="M724.374 602.286L723.844 605.303L722.58 605.079L696.052 600.482L694.258 600.167L694.788 597.15L701.178 598.261L724.048 602.225L724.374 602.286Z" fill="#EFB624"/>
<path d="M725.993 703.519C717.769 695.6 709.718 693.582 709.443 693.521L674.343 683.401L672.386 684.868V762.395L673.416 763.842L704.887 774.645L705.182 774.716C705.478 774.757 708.087 775.083 711.817 775.083C718.666 775.083 729.296 773.962 736.287 767.847C740.842 763.852 743.156 758.339 743.156 751.459C743.156 725.481 733.821 711.05 725.993 703.519ZM734.279 765.544C724.985 773.687 707.496 771.904 705.733 771.7L678.307 762.283L676.086 761.518H676.076L675.444 761.305V686.896L708.658 696.476C708.668 696.476 708.974 696.558 709.524 696.741C709.738 696.813 709.993 696.894 710.278 697.006C710.9 697.231 711.674 697.546 712.582 697.954C715.486 699.289 719.675 701.684 723.874 705.72C731.273 712.844 740.099 726.551 740.099 751.459C740.099 753.508 739.864 755.414 739.395 757.167C739.141 758.176 738.804 759.144 738.376 760.051C737.418 762.161 736.042 763.995 734.279 765.544ZM712.561 808.012L674.475 793.071L672.386 794.498V867.184L672.437 867.571C672.641 868.356 672.988 869.671 710.441 888.973C710.941 889.218 719.96 893.641 729.499 893.641C731.742 893.641 734.004 893.396 736.195 892.795C736.562 892.693 736.929 892.591 737.286 892.469C737.5 892.408 737.704 892.326 737.907 892.245C738.019 892.214 738.121 892.174 738.223 892.133C738.264 892.112 738.305 892.092 738.356 892.072C738.631 891.96 738.896 891.847 739.171 891.735C739.436 891.613 739.691 891.491 739.956 891.358C740.211 891.226 740.465 891.093 740.71 890.951C741.464 890.522 742.167 890.054 742.84 889.534C748.67 885.019 751.615 876.896 751.615 865.299C751.615 823.055 712.928 808.155 712.561 808.012ZM737.235 889.238C726.595 893.458 711.95 886.313 711.827 886.252C700.454 880.392 682.934 871.148 677.034 867.561C676.33 867.133 675.79 866.786 675.444 866.532V796.74L696.255 804.904L696.306 804.924L709.524 810.112L711.471 810.876C711.511 810.886 711.899 811.039 712.582 811.345C718.758 814.066 748.557 829.129 748.557 865.299C748.557 866.277 748.537 867.215 748.496 868.132C748.435 869.263 748.354 870.353 748.231 871.393C747.171 880.769 743.482 886.752 737.235 889.238ZM712.561 808.012L674.475 793.071L672.386 794.498V867.184L672.437 867.571C672.641 868.356 672.988 869.671 710.441 888.973C710.941 889.218 719.96 893.641 729.499 893.641C731.742 893.641 734.004 893.396 736.195 892.795C736.562 892.693 736.929 892.591 737.286 892.469C737.5 892.408 737.704 892.326 737.907 892.245C738.019 892.214 738.121 892.174 738.223 892.133C738.264 892.112 738.305 892.092 738.356 892.072C738.631 891.96 738.896 891.847 739.171 891.735C739.436 891.613 739.691 891.491 739.956 891.358C740.211 891.226 740.465 891.093 740.71 890.951C741.464 890.522 742.167 890.054 742.84 889.534C748.67 885.019 751.615 876.896 751.615 865.299C751.615 823.055 712.928 808.155 712.561 808.012ZM737.235 889.238C726.595 893.458 711.95 886.313 711.827 886.252C700.454 880.392 682.934 871.148 677.034 867.561C676.33 867.133 675.79 866.786 675.444 866.532V796.74L696.255 804.904L696.306 804.924L709.524 810.112L711.471 810.876C711.511 810.886 711.899 811.039 712.582 811.345C718.758 814.066 748.557 829.129 748.557 865.299C748.557 866.277 748.537 867.215 748.496 868.132C748.435 869.263 748.354 870.353 748.231 871.393C747.171 880.769 743.482 886.752 737.235 889.238ZM725.993 703.519C717.769 695.6 709.718 693.582 709.443 693.521L674.343 683.401L672.386 684.868V762.395L673.416 763.842L704.887 774.645L705.182 774.716C705.478 774.757 708.087 775.083 711.817 775.083C718.666 775.083 729.296 773.962 736.287 767.847C740.842 763.852 743.156 758.339 743.156 751.459C743.156 725.481 733.821 711.05 725.993 703.519ZM734.279 765.544C724.985 773.687 707.496 771.904 705.733 771.7L678.307 762.283L676.086 761.518H676.076L675.444 761.305V686.896L708.658 696.476C708.668 696.476 708.974 696.558 709.524 696.741C709.738 696.813 709.993 696.894 710.278 697.006C710.9 697.231 711.674 697.546 712.582 697.954C715.486 699.289 719.675 701.684 723.874 705.72C731.273 712.844 740.099 726.551 740.099 751.459C740.099 753.508 739.864 755.414 739.395 757.167C739.141 758.176 738.804 759.144 738.376 760.051C737.418 762.161 736.042 763.995 734.279 765.544ZM725.993 703.519C717.769 695.6 709.718 693.582 709.443 693.521L674.343 683.401L672.386 684.868V762.395L673.416 763.842L704.887 774.645L705.182 774.716C705.478 774.757 708.087 775.083 711.817 775.083C718.666 775.083 729.296 773.962 736.287 767.847C740.842 763.852 743.156 758.339 743.156 751.459C743.156 725.481 733.821 711.05 725.993 703.519ZM734.279 765.544C724.985 773.687 707.496 771.904 705.733 771.7L678.307 762.283L676.086 761.518H676.076L675.444 761.305V686.896L708.658 696.476C708.668 696.476 708.974 696.558 709.524 696.741C709.738 696.813 709.993 696.894 710.278 697.006C710.9 697.231 711.674 697.546 712.582 697.954C715.486 699.289 719.675 701.684 723.874 705.72C731.273 712.844 740.099 726.551 740.099 751.459C740.099 753.508 739.864 755.414 739.395 757.167C739.141 758.176 738.804 759.144 738.376 760.051C737.418 762.161 736.042 763.995 734.279 765.544ZM712.561 808.012L674.475 793.071L672.386 794.498V867.184L672.437 867.571C672.641 868.356 672.988 869.671 710.441 888.973C710.941 889.218 719.96 893.641 729.499 893.641C731.742 893.641 734.004 893.396 736.195 892.795C736.562 892.693 736.929 892.591 737.286 892.469C737.5 892.408 737.704 892.326 737.907 892.245C738.019 892.214 738.121 892.174 738.223 892.133C738.264 892.112 738.305 892.092 738.356 892.072C738.631 891.96 738.896 891.847 739.171 891.735C739.436 891.613 739.691 891.491 739.956 891.358C740.211 891.226 740.465 891.093 740.71 890.951C741.464 890.522 742.167 890.054 742.84 889.534C748.67 885.019 751.615 876.896 751.615 865.299C751.615 823.055 712.928 808.155 712.561 808.012ZM737.235 889.238C726.595 893.458 711.95 886.313 711.827 886.252C700.454 880.392 682.934 871.148 677.034 867.561C676.33 867.133 675.79 866.786 675.444 866.532V796.74L696.255 804.904L696.306 804.924L709.524 810.112L711.471 810.876C711.511 810.886 711.899 811.039 712.582 811.345C718.758 814.066 748.557 829.129 748.557 865.299C748.557 866.277 748.537 867.215 748.496 868.132C748.435 869.263 748.354 870.353 748.231 871.393C747.171 880.769 743.482 886.752 737.235 889.238ZM712.561 808.012L674.475 793.071L672.386 794.498V867.184L672.437 867.571C672.641 868.356 672.988 869.671 710.441 888.973C710.941 889.218 719.96 893.641 729.499 893.641C731.742 893.641 734.004 893.396 736.195 892.795C736.562 892.693 736.929 892.591 737.286 892.469C737.5 892.408 737.704 892.326 737.907 892.245C738.019 892.214 738.121 892.174 738.223 892.133C738.264 892.112 738.305 892.092 738.356 892.072C738.631 891.96 738.896 891.847 739.171 891.735C739.436 891.613 739.691 891.491 739.956 891.358C740.211 891.226 740.465 891.093 740.71 890.951C741.464 890.522 742.167 890.054 742.84 889.534C748.67 885.019 751.615 876.896 751.615 865.299C751.615 823.055 712.928 808.155 712.561 808.012ZM737.235 889.238C726.595 893.458 711.95 886.313 711.827 886.252C700.454 880.392 682.934 871.148 677.034 867.561C676.33 867.133 675.79 866.786 675.444 866.532V796.74L696.255 804.904L696.306 804.924L709.524 810.112L711.471 810.876C711.511 810.886 711.899 811.039 712.582 811.345C718.758 814.066 748.557 829.129 748.557 865.299C748.557 866.277 748.537 867.215 748.496 868.132C748.435 869.263 748.354 870.353 748.231 871.393C747.171 880.769 743.482 886.752 737.235 889.238ZM725.993 703.519C717.769 695.6 709.718 693.582 709.443 693.521L674.343 683.401L672.386 684.868V762.395L673.416 763.842L704.887 774.645L705.182 774.716C705.478 774.757 708.087 775.083 711.817 775.083C718.666 775.083 729.296 773.962 736.287 767.847C740.842 763.852 743.156 758.339 743.156 751.459C743.156 725.481 733.821 711.05 725.993 703.519ZM734.279 765.544C724.985 773.687 707.496 771.904 705.733 771.7L678.307 762.283L676.086 761.518H676.076L675.444 761.305V686.896L708.658 696.476C708.668 696.476 708.974 696.558 709.524 696.741C709.738 696.813 709.993 696.894 710.278 697.006C710.9 697.231 711.674 697.546 712.582 697.954C715.486 699.289 719.675 701.684 723.874 705.72C731.273 712.844 740.099 726.551 740.099 751.459C740.099 753.508 739.864 755.414 739.395 757.167C739.141 758.176 738.804 759.144 738.376 760.051C737.418 762.161 736.042 763.995 734.279 765.544ZM725.993 703.519C717.769 695.6 709.718 693.582 709.443 693.521L674.343 683.401L672.386 684.868V762.395L673.416 763.842L704.887 774.645L705.182 774.716C705.478 774.757 708.087 775.083 711.817 775.083C718.666 775.083 729.296 773.962 736.287 767.847C740.842 763.852 743.156 758.339 743.156 751.459C743.156 725.481 733.821 711.05 725.993 703.519ZM734.279 765.544C724.985 773.687 707.496 771.904 705.733 771.7L678.307 762.283L676.086 761.518H676.076L675.444 761.305V686.896L708.658 696.476C708.668 696.476 708.974 696.558 709.524 696.741C709.738 696.813 709.993 696.894 710.278 697.006C710.9 697.231 711.674 697.546 712.582 697.954C715.486 699.289 719.675 701.684 723.874 705.72C731.273 712.844 740.099 726.551 740.099 751.459C740.099 753.508 739.864 755.414 739.395 757.167C739.141 758.176 738.804 759.144 738.376 760.051C737.418 762.161 736.042 763.995 734.279 765.544ZM712.561 808.012L674.475 793.071L672.386 794.498V867.184L672.437 867.571C672.641 868.356 672.988 869.671 710.441 888.973C710.941 889.218 719.96 893.641 729.499 893.641C731.742 893.641 734.004 893.396 736.195 892.795C736.562 892.693 736.929 892.591 737.286 892.469C737.5 892.408 737.704 892.326 737.907 892.245C738.019 892.214 738.121 892.174 738.223 892.133C738.264 892.112 738.305 892.092 738.356 892.072C738.631 891.96 738.896 891.847 739.171 891.735C739.436 891.613 739.691 891.491 739.956 891.358C740.211 891.226 740.465 891.093 740.71 890.951C741.464 890.522 742.167 890.054 742.84 889.534C748.67 885.019 751.615 876.896 751.615 865.299C751.615 823.055 712.928 808.155 712.561 808.012ZM737.235 889.238C726.595 893.458 711.95 886.313 711.827 886.252C700.454 880.392 682.934 871.148 677.034 867.561C676.33 867.133 675.79 866.786 675.444 866.532V796.74L696.255 804.904L696.306 804.924L709.524 810.112L711.471 810.876C711.511 810.886 711.899 811.039 712.582 811.345C718.758 814.066 748.557 829.129 748.557 865.299C748.557 866.277 748.537 867.215 748.496 868.132C748.435 869.263 748.354 870.353 748.231 871.393C747.171 880.769 743.482 886.752 737.235 889.238ZM712.561 808.012L674.475 793.071L672.386 794.498V867.184L672.437 867.571C672.641 868.356 672.988 869.671 710.441 888.973C710.941 889.218 719.96 893.641 729.499 893.641C731.742 893.641 734.004 893.396 736.195 892.795C736.562 892.693 736.929 892.591 737.286 892.469C737.5 892.408 737.704 892.326 737.907 892.245C738.019 892.214 738.121 892.174 738.223 892.133C738.264 892.112 738.305 892.092 738.356 892.072C738.631 891.96 738.896 891.847 739.171 891.735C739.436 891.613 739.691 891.491 739.956 891.358C740.211 891.226 740.465 891.093 740.71 890.951C741.464 890.522 742.167 890.054 742.84 889.534C748.67 885.019 751.615 876.896 751.615 865.299C751.615 823.055 712.928 808.155 712.561 808.012ZM737.235 889.238C726.595 893.458 711.95 886.313 711.827 886.252C700.454 880.392 682.934 871.148 677.034 867.561C676.33 867.133 675.79 866.786 675.444 866.532V796.74L696.255 804.904L696.306 804.924L709.524 810.112L711.471 810.876C711.511 810.886 711.899 811.039 712.582 811.345C718.758 814.066 748.557 829.129 748.557 865.299C748.557 866.277 748.537 867.215 748.496 868.132C748.435 869.263 748.354 870.353 748.231 871.393C747.171 880.769 743.482 886.752 737.235 889.238ZM725.993 703.519C717.769 695.6 709.718 693.582 709.443 693.521L674.343 683.401L672.386 684.868V762.395L673.416 763.842L704.887 774.645L705.182 774.716C705.478 774.757 708.087 775.083 711.817 775.083C718.666 775.083 729.296 773.962 736.287 767.847C740.842 763.852 743.156 758.339 743.156 751.459C743.156 725.481 733.821 711.05 725.993 703.519ZM734.279 765.544C724.985 773.687 707.496 771.904 705.733 771.7L678.307 762.283L676.086 761.518H676.076L675.444 761.305V686.896L708.658 696.476C708.668 696.476 708.974 696.558 709.524 696.741C709.738 696.813 709.993 696.894 710.278 697.006C710.9 697.231 711.674 697.546 712.582 697.954C715.486 699.289 719.675 701.684 723.874 705.72C731.273 712.844 740.099 726.551 740.099 751.459C740.099 753.508 739.864 755.414 739.395 757.167C739.141 758.176 738.804 759.144 738.376 760.051C737.418 762.161 736.042 763.995 734.279 765.544ZM725.993 703.519C717.769 695.6 709.718 693.582 709.443 693.521L674.343 683.401L672.386 684.868V762.395L673.416 763.842L704.887 774.645L705.182 774.716C705.478 774.757 708.087 775.083 711.817 775.083C718.666 775.083 729.296 773.962 736.287 767.847C740.842 763.852 743.156 758.339 743.156 751.459C743.156 725.481 733.821 711.05 725.993 703.519ZM734.279 765.544C724.985 773.687 707.496 771.904 705.733 771.7L678.307 762.283L676.086 761.518H676.076L675.444 761.305V686.896L708.658 696.476C708.668 696.476 708.974 696.558 709.524 696.741C709.738 696.813 709.993 696.894 710.278 697.006C710.9 697.231 711.674 697.546 712.582 697.954C715.486 699.289 719.675 701.684 723.874 705.72C731.273 712.844 740.099 726.551 740.099 751.459C740.099 753.508 739.864 755.414 739.395 757.167C739.141 758.176 738.804 759.144 738.376 760.051C737.418 762.161 736.042 763.995 734.279 765.544ZM712.561 808.012L674.475 793.071L672.386 794.498V867.184L672.437 867.571C672.641 868.356 672.988 869.671 710.441 888.973C710.941 889.218 719.96 893.641 729.499 893.641C731.742 893.641 734.004 893.396 736.195 892.795C736.562 892.693 736.929 892.591 737.286 892.469C737.5 892.408 737.704 892.326 737.907 892.245C738.019 892.214 738.121 892.174 738.223 892.133C738.264 892.112 738.305 892.092 738.356 892.072C738.631 891.96 738.896 891.847 739.171 891.735C739.436 891.613 739.691 891.491 739.956 891.358C740.211 891.226 740.465 891.093 740.71 890.951C741.464 890.522 742.167 890.054 742.84 889.534C748.67 885.019 751.615 876.896 751.615 865.299C751.615 823.055 712.928 808.155 712.561 808.012ZM737.235 889.238C726.595 893.458 711.95 886.313 711.827 886.252C700.454 880.392 682.934 871.148 677.034 867.561C676.33 867.133 675.79 866.786 675.444 866.532V796.74L696.255 804.904L696.306 804.924L709.524 810.112L711.471 810.876C711.511 810.886 711.899 811.039 712.582 811.345C718.758 814.066 748.557 829.129 748.557 865.299C748.557 866.277 748.537 867.215 748.496 868.132C748.435 869.263 748.354 870.353 748.231 871.393C747.171 880.769 743.482 886.752 737.235 889.238ZM712.561 808.012L674.475 793.071L672.386 794.498V867.184L672.437 867.571C672.641 868.356 672.988 869.671 710.441 888.973C710.941 889.218 719.96 893.641 729.499 893.641C731.742 893.641 734.004 893.396 736.195 892.795C736.562 892.693 736.929 892.591 737.286 892.469C737.5 892.408 737.704 892.326 737.907 892.245C738.019 892.214 738.121 892.174 738.223 892.133C738.264 892.112 738.305 892.092 738.356 892.072C738.631 891.96 738.896 891.847 739.171 891.735C739.436 891.613 739.691 891.491 739.956 891.358C740.211 891.226 740.465 891.093 740.71 890.951C741.464 890.522 742.167 890.054 742.84 889.534C748.67 885.019 751.615 876.896 751.615 865.299C751.615 823.055 712.928 808.155 712.561 808.012ZM737.235 889.238C726.595 893.458 711.95 886.313 711.827 886.252C700.454 880.392 682.934 871.148 677.034 867.561C676.33 867.133 675.79 866.786 675.444 866.532V796.74L696.255 804.904L696.306 804.924L709.524 810.112L711.471 810.876C711.511 810.886 711.899 811.039 712.582 811.345C718.758 814.066 748.557 829.129 748.557 865.299C748.557 866.277 748.537 867.215 748.496 868.132C748.435 869.263 748.354 870.353 748.231 871.393C747.171 880.769 743.482 886.752 737.235 889.238ZM725.993 703.519C717.769 695.6 709.718 693.582 709.443 693.521L674.343 683.401L672.386 684.868V762.395L673.416 763.842L704.887 774.645L705.182 774.716C705.478 774.757 708.087 775.083 711.817 775.083C718.666 775.083 729.296 773.962 736.287 767.847C740.842 763.852 743.156 758.339 743.156 751.459C743.156 725.481 733.821 711.05 725.993 703.519ZM734.279 765.544C724.985 773.687 707.496 771.904 705.733 771.7L678.307 762.283L676.086 761.518H676.076L675.444 761.305V686.896L708.658 696.476C708.668 696.476 708.974 696.558 709.524 696.741C709.738 696.813 709.993 696.894 710.278 697.006C710.9 697.231 711.674 697.546 712.582 697.954C715.486 699.289 719.675 701.684 723.874 705.72C731.273 712.844 740.099 726.551 740.099 751.459C740.099 753.508 739.864 755.414 739.395 757.167C739.141 758.176 738.804 759.144 738.376 760.051C737.418 762.161 736.042 763.995 734.279 765.544ZM725.993 703.519C717.769 695.6 709.718 693.582 709.443 693.521L674.343 683.401L672.386 684.868V762.395L673.416 763.842L704.887 774.645L705.182 774.716C705.478 774.757 708.087 775.083 711.817 775.083C718.666 775.083 729.296 773.962 736.287 767.847C740.842 763.852 743.156 758.339 743.156 751.459C743.156 725.481 733.821 711.05 725.993 703.519ZM734.279 765.544C724.985 773.687 707.496 771.904 705.733 771.7L678.307 762.283L676.086 761.518H676.076L675.444 761.305V686.896L708.658 696.476C708.668 696.476 708.974 696.558 709.524 696.741C709.738 696.813 709.993 696.894 710.278 697.006C710.9 697.231 711.674 697.546 712.582 697.954C715.486 699.289 719.675 701.684 723.874 705.72C731.273 712.844 740.099 726.551 740.099 751.459C740.099 753.508 739.864 755.414 739.395 757.167C739.141 758.176 738.804 759.144 738.376 760.051C737.418 762.161 736.042 763.995 734.279 765.544ZM712.561 808.012L674.475 793.071L672.386 794.498V867.184L672.437 867.571C672.641 868.356 672.988 869.671 710.441 888.973C710.941 889.218 719.96 893.641 729.499 893.641C731.742 893.641 734.004 893.396 736.195 892.795C736.562 892.693 736.929 892.591 737.286 892.469C737.5 892.408 737.704 892.326 737.907 892.245C738.019 892.214 738.121 892.174 738.223 892.133C738.264 892.112 738.305 892.092 738.356 892.072C738.631 891.96 738.896 891.847 739.171 891.735C739.436 891.613 739.691 891.491 739.956 891.358C740.211 891.226 740.465 891.093 740.71 890.951C741.464 890.522 742.167 890.054 742.84 889.534C748.67 885.019 751.615 876.896 751.615 865.299C751.615 823.055 712.928 808.155 712.561 808.012ZM737.235 889.238C726.595 893.458 711.95 886.313 711.827 886.252C700.454 880.392 682.934 871.148 677.034 867.561C676.33 867.133 675.79 866.786 675.444 866.532V796.74L696.255 804.904L696.306 804.924L709.524 810.112L711.471 810.876C711.511 810.886 711.899 811.039 712.582 811.345C718.758 814.066 748.557 829.129 748.557 865.299C748.557 866.277 748.537 867.215 748.496 868.132C748.435 869.263 748.354 870.353 748.231 871.393C747.171 880.769 743.482 886.752 737.235 889.238ZM712.561 808.012L674.475 793.071L672.386 794.498V867.184L672.437 867.571C672.641 868.356 672.988 869.671 710.441 888.973C710.941 889.218 719.96 893.641 729.499 893.641C731.742 893.641 734.004 893.396 736.195 892.795C736.562 892.693 736.929 892.591 737.286 892.469C737.5 892.408 737.704 892.326 737.907 892.245C738.019 892.214 738.121 892.174 738.223 892.133C738.264 892.112 738.305 892.092 738.356 892.072C738.631 891.96 738.896 891.847 739.171 891.735C739.436 891.613 739.691 891.491 739.956 891.358C740.211 891.226 740.465 891.093 740.71 890.951C741.464 890.522 742.167 890.054 742.84 889.534C748.67 885.019 751.615 876.896 751.615 865.299C751.615 823.055 712.928 808.155 712.561 808.012ZM737.235 889.238C726.595 893.458 711.95 886.313 711.827 886.252C700.454 880.392 682.934 871.148 677.034 867.561C676.33 867.133 675.79 866.786 675.444 866.532V796.74L696.255 804.904L696.306 804.924L709.524 810.112L711.471 810.876C711.511 810.886 711.899 811.039 712.582 811.345C718.758 814.066 748.557 829.129 748.557 865.299C748.557 866.277 748.537 867.215 748.496 868.132C748.435 869.263 748.354 870.353 748.231 871.393C747.171 880.769 743.482 886.752 737.235 889.238ZM704.887 774.645L705.182 774.716C705.478 774.757 708.087 775.083 711.817 775.083C718.666 775.083 729.296 773.962 736.287 767.847C740.842 763.852 743.156 758.339 743.156 751.459C743.156 725.481 733.821 711.05 725.993 703.519C717.769 695.6 709.718 693.582 709.443 693.521L674.343 683.401L672.386 684.868V762.395L673.416 763.842L704.887 774.645ZM740.099 751.459C740.099 753.508 739.864 755.414 739.395 757.167C739.141 758.176 738.804 759.144 738.376 760.051C737.418 762.161 736.042 763.995 734.279 765.544C724.985 773.687 707.496 771.904 705.733 771.7L678.307 762.283L676.086 761.518H676.076L675.444 761.305V686.896L708.658 696.476C708.668 696.476 708.974 696.558 709.524 696.741C709.738 696.813 709.993 696.894 710.278 697.006C710.9 697.231 711.674 697.546 712.582 697.954C715.486 699.289 719.675 701.684 723.874 705.72C731.273 712.844 740.099 726.551 740.099 751.459ZM794.531 829.496C785.094 817.898 774.546 810.55 769.746 807.543C769.44 807.35 769.154 807.166 768.9 807.013C769.797 806.096 771.04 804.771 772.497 803.028C781.068 792.806 796.967 768.673 791.749 734.919C787.183 705.302 769.165 685.653 754.856 674.381C744.308 666.075 734.361 661.041 728.908 658.615C727.492 657.983 726.371 657.535 725.637 657.239V604.957L769.104 592.778L771.05 592.228L771.009 590.76L770.958 589.262L742.014 582.974L741.25 583.004L722.325 588.701L719.267 589.619L694.084 597.191L692.993 598.658V646.66C692.993 648.913 691.995 651.022 690.252 652.449C688.499 653.866 686.226 654.426 684.015 653.968L678.521 652.836C675.016 652.113 672.376 649.188 671.958 645.692C671.907 645.366 671.887 645.03 671.887 644.693V593.675L670.623 592.166L670.297 592.105H670.287L651.218 588.732L644.207 587.488L643.667 587.937L642.413 588.997V626.155C642.413 628.03 641.924 629.865 640.976 631.516L640.925 631.587C640.344 632.596 639.6 633.493 638.713 634.257C638.652 634.308 638.612 634.339 638.581 634.369L638.561 634.38C636.227 636.347 633.149 637.223 630.122 636.785L625.587 636.133L625.526 636.122L625.424 636.112C625.2 636.092 625.026 636.082 624.914 636.061C624.996 636.082 625.169 636.153 625.363 636.296V636.397L624.649 635.99L610.768 633.972H610.758L609.331 633.768L604.603 633.085L604.022 633.585L602.85 634.594V664.944L603.91 666.401L609.148 668.113C627.758 674.198 640.263 691.442 640.263 711.009V843.754C640.263 845.435 639.417 846.974 638.01 847.881C636.573 848.809 634.861 848.931 633.302 848.218L623.549 843.754L623.059 843.53L620.746 842.47L619.727 843.122H619.717L618.585 843.856V866.736L619.39 868.081L632.16 874.899C644.166 881.309 651.626 893.743 651.626 907.349V929.016L652.401 930.351L677.37 944.466L678.471 943.824L679.653 943.131V907.491C679.653 905.952 680.438 904.566 681.752 903.782C683.067 902.997 684.657 902.956 686.002 903.68L692.178 906.982C695.47 908.745 697.518 912.159 697.518 915.889V954.963L698.293 956.298L720.49 968.854L721.611 968.202L722.773 967.519V923.492C728.633 927.049 744.308 935.579 761.236 936.496C761.389 936.507 761.541 936.517 761.704 936.517C762.561 936.557 763.427 936.578 764.293 936.578C767.993 936.568 771.743 936.16 775.432 935.222C775.443 935.222 775.463 935.212 775.483 935.212C775.504 935.212 775.524 935.202 775.555 935.202C775.585 935.202 775.616 935.192 775.646 935.182C776.798 934.886 777.94 934.54 779.081 934.132C782.995 932.746 786.602 930.769 789.884 928.2C798.2 921.729 804.488 911.537 808.626 897.748C817.86 867 806.058 843.662 794.531 829.496ZM805.691 896.872C800.208 915.115 790.913 926.682 778.062 931.248C777.083 931.594 776.085 931.9 775.086 932.165C775.004 932.185 774.953 932.196 774.943 932.196C750.575 938.484 722.396 919.64 722.1 919.446L719.716 920.71V964.9L700.576 954.077V915.889C700.576 911.028 697.916 906.584 693.625 904.291L687.449 900.989C685.146 899.756 682.435 899.817 680.183 901.152C677.941 902.497 676.595 904.872 676.595 907.491V940.512L654.684 928.129V907.349C654.684 892.612 646.602 879.139 633.608 872.208L621.643 865.818V846.24L632.038 850.99C634.515 852.131 637.368 851.927 639.661 850.46C641.954 848.982 643.32 846.485 643.32 843.754V711.009C643.32 690.117 629.969 671.711 610.106 665.209L605.907 663.833V636.357L624.017 638.986C624.323 639.078 624.67 639.119 625.077 639.139C625.098 639.149 625.128 639.149 625.159 639.149L629.684 639.812C633.577 640.372 637.531 639.251 640.538 636.724L640.528 636.713L640.568 636.673L640.579 636.683L640.66 636.611C641.832 635.623 642.81 634.451 643.565 633.136L643.616 633.075C644.828 630.996 645.47 628.601 645.47 626.155V590.821L668.829 594.959V644.693C668.829 650.054 672.651 654.742 677.91 655.833L683.403 656.964C686.522 657.606 689.712 656.821 692.178 654.813C694.644 652.806 696.051 649.84 696.051 646.66V599.8L701.177 598.261L741.75 586.051L764.293 590.943L724.047 602.225L723.7 602.327L722.579 603.795V658.299L723.599 659.736C724.159 659.94 780.263 680.537 788.732 735.387C795.469 778.987 765.679 805.902 765.384 806.178L765.659 808.664C765.801 808.746 780.182 816.665 792.218 831.503C808.259 851.255 812.794 873.248 805.691 896.872ZM712.561 808.012L674.475 793.071L672.386 794.498V867.184L672.437 867.571C672.641 868.356 672.988 869.671 710.441 888.973C710.941 889.218 719.96 893.641 729.499 893.641C731.742 893.641 734.004 893.396 736.195 892.795C736.562 892.693 736.929 892.591 737.286 892.469C737.5 892.408 737.704 892.326 737.907 892.245C738.019 892.214 738.121 892.174 738.223 892.133C738.264 892.112 738.305 892.092 738.356 892.072C738.631 891.96 738.896 891.847 739.171 891.735C739.436 891.613 739.691 891.491 739.956 891.358C740.211 891.226 740.465 891.093 740.71 890.951C741.464 890.522 742.167 890.054 742.84 889.534C748.67 885.019 751.615 876.896 751.615 865.299C751.615 823.055 712.928 808.155 712.561 808.012ZM748.496 868.132C748.435 869.263 748.354 870.353 748.231 871.393C747.171 880.769 743.482 886.752 737.235 889.238C726.595 893.458 711.95 886.313 711.827 886.252C700.454 880.392 682.934 871.148 677.034 867.561C676.33 867.133 675.79 866.786 675.444 866.532V796.74L696.255 804.904L696.306 804.924L709.524 810.112L711.471 810.876C711.511 810.886 711.899 811.039 712.582 811.345C718.758 814.066 748.557 829.129 748.557 865.299C748.557 866.277 748.537 867.215 748.496 868.132ZM704.887 774.645L705.182 774.716C705.478 774.757 708.087 775.083 711.817 775.083C718.666 775.083 729.296 773.962 736.287 767.847C740.842 763.852 743.156 758.339 743.156 751.459C743.156 725.481 733.821 711.05 725.993 703.519C717.769 695.6 709.718 693.582 709.443 693.521L674.343 683.401L672.386 684.868V762.395L673.416 763.842L704.887 774.645ZM740.099 751.459C740.099 753.508 739.864 755.414 739.395 757.167C739.141 758.176 738.804 759.144 738.376 760.051C737.418 762.161 736.042 763.995 734.279 765.544C724.985 773.687 707.496 771.904 705.733 771.7L678.307 762.283L676.086 761.518H676.076L675.444 761.305V686.896L708.658 696.476C708.668 696.476 708.974 696.558 709.524 696.741C709.738 696.813 709.993 696.894 710.278 697.006C710.9 697.231 711.674 697.546 712.582 697.954C715.486 699.289 719.675 701.684 723.874 705.72C731.273 712.844 740.099 726.551 740.099 751.459ZM725.993 703.519C717.769 695.6 709.718 693.582 709.443 693.521L674.343 683.401L672.386 684.868V762.395L673.416 763.842L704.887 774.645L705.182 774.716C705.478 774.757 708.087 775.083 711.817 775.083C718.666 775.083 729.296 773.962 736.287 767.847C740.842 763.852 743.156 758.339 743.156 751.459C743.156 725.481 733.821 711.05 725.993 703.519ZM734.279 765.544C724.985 773.687 707.496 771.904 705.733 771.7L678.307 762.283L676.086 761.518H676.076L675.444 761.305V686.896L708.658 696.476C708.668 696.476 708.974 696.558 709.524 696.741C709.738 696.813 709.993 696.894 710.278 697.006C710.9 697.231 711.674 697.546 712.582 697.954C715.486 699.289 719.675 701.684 723.874 705.72C731.273 712.844 740.099 726.551 740.099 751.459C740.099 753.508 739.864 755.414 739.395 757.167C739.141 758.176 738.804 759.144 738.376 760.051C737.418 762.161 736.042 763.995 734.279 765.544ZM712.561 808.012L674.475 793.071L672.386 794.498V867.184L672.437 867.571C672.641 868.356 672.988 869.671 710.441 888.973C710.941 889.218 719.96 893.641 729.499 893.641C731.742 893.641 734.004 893.396 736.195 892.795C736.562 892.693 736.929 892.591 737.286 892.469C737.5 892.408 737.704 892.326 737.907 892.245C738.019 892.214 738.121 892.174 738.223 892.133C738.264 892.112 738.305 892.092 738.356 892.072C738.631 891.96 738.896 891.847 739.171 891.735C739.436 891.613 739.691 891.491 739.956 891.358C740.211 891.226 740.465 891.093 740.71 890.951C741.464 890.522 742.167 890.054 742.84 889.534C748.67 885.019 751.615 876.896 751.615 865.299C751.615 823.055 712.928 808.155 712.561 808.012ZM737.235 889.238C726.595 893.458 711.95 886.313 711.827 886.252C700.454 880.392 682.934 871.148 677.034 867.561C676.33 867.133 675.79 866.786 675.444 866.532V796.74L696.255 804.904L696.306 804.924L709.524 810.112L711.471 810.876C711.511 810.886 711.899 811.039 712.582 811.345C718.758 814.066 748.557 829.129 748.557 865.299C748.557 866.277 748.537 867.215 748.496 868.132C748.435 869.263 748.354 870.353 748.231 871.393C747.171 880.769 743.482 886.752 737.235 889.238ZM712.561 808.012L674.475 793.071L672.386 794.498V867.184L672.437 867.571C672.641 868.356 672.988 869.671 710.441 888.973C710.941 889.218 719.96 893.641 729.499 893.641C731.742 893.641 734.004 893.396 736.195 892.795C736.562 892.693 736.929 892.591 737.286 892.469C737.5 892.408 737.704 892.326 737.907 892.245C738.019 892.214 738.121 892.174 738.223 892.133C738.264 892.112 738.305 892.092 738.356 892.072C738.631 891.96 738.896 891.847 739.171 891.735C739.436 891.613 739.691 891.491 739.956 891.358C740.211 891.226 740.465 891.093 740.71 890.951C741.464 890.522 742.167 890.054 742.84 889.534C748.67 885.019 751.615 876.896 751.615 865.299C751.615 823.055 712.928 808.155 712.561 808.012ZM737.235 889.238C726.595 893.458 711.95 886.313 711.827 886.252C700.454 880.392 682.934 871.148 677.034 867.561C676.33 867.133 675.79 866.786 675.444 866.532V796.74L696.255 804.904L696.306 804.924L709.524 810.112L711.471 810.876C711.511 810.886 711.899 811.039 712.582 811.345C718.758 814.066 748.557 829.129 748.557 865.299C748.557 866.277 748.537 867.215 748.496 868.132C748.435 869.263 748.354 870.353 748.231 871.393C747.171 880.769 743.482 886.752 737.235 889.238ZM725.993 703.519C717.769 695.6 709.718 693.582 709.443 693.521L674.343 683.401L672.386 684.868V762.395L673.416 763.842L704.887 774.645L705.182 774.716C705.478 774.757 708.087 775.083 711.817 775.083C718.666 775.083 729.296 773.962 736.287 767.847C740.842 763.852 743.156 758.339 743.156 751.459C743.156 725.481 733.821 711.05 725.993 703.519ZM734.279 765.544C724.985 773.687 707.496 771.904 705.733 771.7L678.307 762.283L676.086 761.518H676.076L675.444 761.305V686.896L708.658 696.476C708.668 696.476 708.974 696.558 709.524 696.741C709.738 696.813 709.993 696.894 710.278 697.006C710.9 697.231 711.674 697.546 712.582 697.954C715.486 699.289 719.675 701.684 723.874 705.72C731.273 712.844 740.099 726.551 740.099 751.459C740.099 753.508 739.864 755.414 739.395 757.167C739.141 758.176 738.804 759.144 738.376 760.051C737.418 762.161 736.042 763.995 734.279 765.544ZM725.993 703.519C717.769 695.6 709.718 693.582 709.443 693.521L674.343 683.401L672.386 684.868V762.395L673.416 763.842L704.887 774.645L705.182 774.716C705.478 774.757 708.087 775.083 711.817 775.083C718.666 775.083 729.296 773.962 736.287 767.847C740.842 763.852 743.156 758.339 743.156 751.459C743.156 725.481 733.821 711.05 725.993 703.519ZM734.279 765.544C724.985 773.687 707.496 771.904 705.733 771.7L678.307 762.283L676.086 761.518H676.076L675.444 761.305V686.896L708.658 696.476C708.668 696.476 708.974 696.558 709.524 696.741C709.738 696.813 709.993 696.894 710.278 697.006C710.9 697.231 711.674 697.546 712.582 697.954C715.486 699.289 719.675 701.684 723.874 705.72C731.273 712.844 740.099 726.551 740.099 751.459C740.099 753.508 739.864 755.414 739.395 757.167C739.141 758.176 738.804 759.144 738.376 760.051C737.418 762.161 736.042 763.995 734.279 765.544ZM712.561 808.012L674.475 793.071L672.386 794.498V867.184L672.437 867.571C672.641 868.356 672.988 869.671 710.441 888.973C710.941 889.218 719.96 893.641 729.499 893.641C731.742 893.641 734.004 893.396 736.195 892.795C736.562 892.693 736.929 892.591 737.286 892.469C737.5 892.408 737.704 892.326 737.907 892.245C738.019 892.214 738.121 892.174 738.223 892.133C738.264 892.112 738.305 892.092 738.356 892.072C738.631 891.96 738.896 891.847 739.171 891.735C739.436 891.613 739.691 891.491 739.956 891.358C740.211 891.226 740.465 891.093 740.71 890.951C741.464 890.522 742.167 890.054 742.84 889.534C748.67 885.019 751.615 876.896 751.615 865.299C751.615 823.055 712.928 808.155 712.561 808.012ZM737.235 889.238C726.595 893.458 711.95 886.313 711.827 886.252C700.454 880.392 682.934 871.148 677.034 867.561C676.33 867.133 675.79 866.786 675.444 866.532V796.74L696.255 804.904L696.306 804.924L709.524 810.112L711.471 810.876C711.511 810.886 711.899 811.039 712.582 811.345C718.758 814.066 748.557 829.129 748.557 865.299C748.557 866.277 748.537 867.215 748.496 868.132C748.435 869.263 748.354 870.353 748.231 871.393C747.171 880.769 743.482 886.752 737.235 889.238ZM712.561 808.012L674.475 793.071L672.386 794.498V867.184L672.437 867.571C672.641 868.356 672.988 869.671 710.441 888.973C710.941 889.218 719.96 893.641 729.499 893.641C731.742 893.641 734.004 893.396 736.195 892.795C736.562 892.693 736.929 892.591 737.286 892.469C737.5 892.408 737.704 892.326 737.907 892.245C738.019 892.214 738.121 892.174 738.223 892.133C738.264 892.112 738.305 892.092 738.356 892.072C738.631 891.96 738.896 891.847 739.171 891.735C739.436 891.613 739.691 891.491 739.956 891.358C740.211 891.226 740.465 891.093 740.71 890.951C741.464 890.522 742.167 890.054 742.84 889.534C748.67 885.019 751.615 876.896 751.615 865.299C751.615 823.055 712.928 808.155 712.561 808.012ZM737.235 889.238C726.595 893.458 711.95 886.313 711.827 886.252C700.454 880.392 682.934 871.148 677.034 867.561C676.33 867.133 675.79 866.786 675.444 866.532V796.74L696.255 804.904L696.306 804.924L709.524 810.112L711.471 810.876C711.511 810.886 711.899 811.039 712.582 811.345C718.758 814.066 748.557 829.129 748.557 865.299C748.557 866.277 748.537 867.215 748.496 868.132C748.435 869.263 748.354 870.353 748.231 871.393C747.171 880.769 743.482 886.752 737.235 889.238ZM725.993 703.519C717.769 695.6 709.718 693.582 709.443 693.521L674.343 683.401L672.386 684.868V762.395L673.416 763.842L704.887 774.645L705.182 774.716C705.478 774.757 708.087 775.083 711.817 775.083C718.666 775.083 729.296 773.962 736.287 767.847C740.842 763.852 743.156 758.339 743.156 751.459C743.156 725.481 733.821 711.05 725.993 703.519ZM734.279 765.544C724.985 773.687 707.496 771.904 705.733 771.7L678.307 762.283L676.086 761.518H676.076L675.444 761.305V686.896L708.658 696.476C708.668 696.476 708.974 696.558 709.524 696.741C709.738 696.813 709.993 696.894 710.278 697.006C710.9 697.231 711.674 697.546 712.582 697.954C715.486 699.289 719.675 701.684 723.874 705.72C731.273 712.844 740.099 726.551 740.099 751.459C740.099 753.508 739.864 755.414 739.395 757.167C739.141 758.176 738.804 759.144 738.376 760.051C737.418 762.161 736.042 763.995 734.279 765.544ZM725.993 703.519C717.769 695.6 709.718 693.582 709.443 693.521L674.343 683.401L672.386 684.868V762.395L673.416 763.842L704.887 774.645L705.182 774.716C705.478 774.757 708.087 775.083 711.817 775.083C718.666 775.083 729.296 773.962 736.287 767.847C740.842 763.852 743.156 758.339 743.156 751.459C743.156 725.481 733.821 711.05 725.993 703.519ZM734.279 765.544C724.985 773.687 707.496 771.904 705.733 771.7L678.307 762.283L676.086 761.518H676.076L675.444 761.305V686.896L708.658 696.476C708.668 696.476 708.974 696.558 709.524 696.741C709.738 696.813 709.993 696.894 710.278 697.006C710.9 697.231 711.674 697.546 712.582 697.954C715.486 699.289 719.675 701.684 723.874 705.72C731.273 712.844 740.099 726.551 740.099 751.459C740.099 753.508 739.864 755.414 739.395 757.167C739.141 758.176 738.804 759.144 738.376 760.051C737.418 762.161 736.042 763.995 734.279 765.544ZM712.561 808.012L674.475 793.071L672.386 794.498V867.184L672.437 867.571C672.641 868.356 672.988 869.671 710.441 888.973C710.941 889.218 719.96 893.641 729.499 893.641C731.742 893.641 734.004 893.396 736.195 892.795C736.562 892.693 736.929 892.591 737.286 892.469C737.5 892.408 737.704 892.326 737.907 892.245C738.019 892.214 738.121 892.174 738.223 892.133C738.264 892.112 738.305 892.092 738.356 892.072C738.631 891.96 738.896 891.847 739.171 891.735C739.436 891.613 739.691 891.491 739.956 891.358C740.211 891.226 740.465 891.093 740.71 890.951C741.464 890.522 742.167 890.054 742.84 889.534C748.67 885.019 751.615 876.896 751.615 865.299C751.615 823.055 712.928 808.155 712.561 808.012ZM737.235 889.238C726.595 893.458 711.95 886.313 711.827 886.252C700.454 880.392 682.934 871.148 677.034 867.561C676.33 867.133 675.79 866.786 675.444 866.532V796.74L696.255 804.904L696.306 804.924L709.524 810.112L711.471 810.876C711.511 810.886 711.899 811.039 712.582 811.345C718.758 814.066 748.557 829.129 748.557 865.299C748.557 866.277 748.537 867.215 748.496 868.132C748.435 869.263 748.354 870.353 748.231 871.393C747.171 880.769 743.482 886.752 737.235 889.238ZM712.561 808.012L674.475 793.071L672.386 794.498V867.184L672.437 867.571C672.641 868.356 672.988 869.671 710.441 888.973C710.941 889.218 719.96 893.641 729.499 893.641C731.742 893.641 734.004 893.396 736.195 892.795C736.562 892.693 736.929 892.591 737.286 892.469C737.5 892.408 737.704 892.326 737.907 892.245C738.019 892.214 738.121 892.174 738.223 892.133C738.264 892.112 738.305 892.092 738.356 892.072C738.631 891.96 738.896 891.847 739.171 891.735C739.436 891.613 739.691 891.491 739.956 891.358C740.211 891.226 740.465 891.093 740.71 890.951C741.464 890.522 742.167 890.054 742.84 889.534C748.67 885.019 751.615 876.896 751.615 865.299C751.615 823.055 712.928 808.155 712.561 808.012ZM737.235 889.238C726.595 893.458 711.95 886.313 711.827 886.252C700.454 880.392 682.934 871.148 677.034 867.561C676.33 867.133 675.79 866.786 675.444 866.532V796.74L696.255 804.904L696.306 804.924L709.524 810.112L711.471 810.876C711.511 810.886 711.899 811.039 712.582 811.345C718.758 814.066 748.557 829.129 748.557 865.299C748.557 866.277 748.537 867.215 748.496 868.132C748.435 869.263 748.354 870.353 748.231 871.393C747.171 880.769 743.482 886.752 737.235 889.238ZM725.993 703.519C717.769 695.6 709.718 693.582 709.443 693.521L674.343 683.401L672.386 684.868V762.395L673.416 763.842L704.887 774.645L705.182 774.716C705.478 774.757 708.087 775.083 711.817 775.083C718.666 775.083 729.296 773.962 736.287 767.847C740.842 763.852 743.156 758.339 743.156 751.459C743.156 725.481 733.821 711.05 725.993 703.519ZM734.279 765.544C724.985 773.687 707.496 771.904 705.733 771.7L678.307 762.283L676.086 761.518H676.076L675.444 761.305V686.896L708.658 696.476C708.668 696.476 708.974 696.558 709.524 696.741C709.738 696.813 709.993 696.894 710.278 697.006C710.9 697.231 711.674 697.546 712.582 697.954C715.486 699.289 719.675 701.684 723.874 705.72C731.273 712.844 740.099 726.551 740.099 751.459C740.099 753.508 739.864 755.414 739.395 757.167C739.141 758.176 738.804 759.144 738.376 760.051C737.418 762.161 736.042 763.995 734.279 765.544ZM725.993 703.519C717.769 695.6 709.718 693.582 709.443 693.521L674.343 683.401L672.386 684.868V762.395L673.416 763.842L704.887 774.645L705.182 774.716C705.478 774.757 708.087 775.083 711.817 775.083C718.666 775.083 729.296 773.962 736.287 767.847C740.842 763.852 743.156 758.339 743.156 751.459C743.156 725.481 733.821 711.05 725.993 703.519ZM734.279 765.544C724.985 773.687 707.496 771.904 705.733 771.7L678.307 762.283L676.086 761.518H676.076L675.444 761.305V686.896L708.658 696.476C708.668 696.476 708.974 696.558 709.524 696.741C709.738 696.813 709.993 696.894 710.278 697.006C710.9 697.231 711.674 697.546 712.582 697.954C715.486 699.289 719.675 701.684 723.874 705.72C731.273 712.844 740.099 726.551 740.099 751.459C740.099 753.508 739.864 755.414 739.395 757.167C739.141 758.176 738.804 759.144 738.376 760.051C737.418 762.161 736.042 763.995 734.279 765.544ZM712.561 808.012L674.475 793.071L672.386 794.498V867.184L672.437 867.571C672.641 868.356 672.988 869.671 710.441 888.973C710.941 889.218 719.96 893.641 729.499 893.641C731.742 893.641 734.004 893.396 736.195 892.795C736.562 892.693 736.929 892.591 737.286 892.469C737.5 892.408 737.704 892.326 737.907 892.245C738.019 892.214 738.121 892.174 738.223 892.133C738.264 892.112 738.305 892.092 738.356 892.072C738.631 891.96 738.896 891.847 739.171 891.735C739.436 891.613 739.691 891.491 739.956 891.358C740.211 891.226 740.465 891.093 740.71 890.951C741.464 890.522 742.167 890.054 742.84 889.534C748.67 885.019 751.615 876.896 751.615 865.299C751.615 823.055 712.928 808.155 712.561 808.012ZM737.235 889.238C726.595 893.458 711.95 886.313 711.827 886.252C700.454 880.392 682.934 871.148 677.034 867.561C676.33 867.133 675.79 866.786 675.444 866.532V796.74L696.255 804.904L696.306 804.924L709.524 810.112L711.471 810.876C711.511 810.886 711.899 811.039 712.582 811.345C718.758 814.066 748.557 829.129 748.557 865.299C748.557 866.277 748.537 867.215 748.496 868.132C748.435 869.263 748.354 870.353 748.231 871.393C747.171 880.769 743.482 886.752 737.235 889.238ZM712.561 808.012L674.475 793.071L672.386 794.498V867.184L672.437 867.571C672.641 868.356 672.988 869.671 710.441 888.973C710.941 889.218 719.96 893.641 729.499 893.641C731.742 893.641 734.004 893.396 736.195 892.795C736.562 892.693 736.929 892.591 737.286 892.469C737.5 892.408 737.704 892.326 737.907 892.245C738.019 892.214 738.121 892.174 738.223 892.133C738.264 892.112 738.305 892.092 738.356 892.072C738.631 891.96 738.896 891.847 739.171 891.735C739.436 891.613 739.691 891.491 739.956 891.358C740.211 891.226 740.465 891.093 740.71 890.951C741.464 890.522 742.167 890.054 742.84 889.534C748.67 885.019 751.615 876.896 751.615 865.299C751.615 823.055 712.928 808.155 712.561 808.012ZM737.235 889.238C726.595 893.458 711.95 886.313 711.827 886.252C700.454 880.392 682.934 871.148 677.034 867.561C676.33 867.133 675.79 866.786 675.444 866.532V796.74L696.255 804.904L696.306 804.924L709.524 810.112L711.471 810.876C711.511 810.886 711.899 811.039 712.582 811.345C718.758 814.066 748.557 829.129 748.557 865.299C748.557 866.277 748.537 867.215 748.496 868.132C748.435 869.263 748.354 870.353 748.231 871.393C747.171 880.769 743.482 886.752 737.235 889.238ZM725.993 703.519C717.769 695.6 709.718 693.582 709.443 693.521L674.343 683.401L672.386 684.868V762.395L673.416 763.842L704.887 774.645L705.182 774.716C705.478 774.757 708.087 775.083 711.817 775.083C718.666 775.083 729.296 773.962 736.287 767.847C740.842 763.852 743.156 758.339 743.156 751.459C743.156 725.481 733.821 711.05 725.993 703.519ZM734.279 765.544C724.985 773.687 707.496 771.904 705.733 771.7L678.307 762.283L676.086 761.518H676.076L675.444 761.305V686.896L708.658 696.476C708.668 696.476 708.974 696.558 709.524 696.741C709.738 696.813 709.993 696.894 710.278 697.006C710.9 697.231 711.674 697.546 712.582 697.954C715.486 699.289 719.675 701.684 723.874 705.72C731.273 712.844 740.099 726.551 740.099 751.459C740.099 753.508 739.864 755.414 739.395 757.167C739.141 758.176 738.804 759.144 738.376 760.051C737.418 762.161 736.042 763.995 734.279 765.544Z" fill="#EFB624"/>
<path d="M769.103 592.778V644.887L725.637 656.322V604.957L769.103 592.778Z" fill="#EFB624"/>
<path d="M725.994 703.519C717.769 695.6 709.718 693.582 709.443 693.521L674.343 683.401L672.387 684.868V762.395L673.416 763.842L704.887 774.645L705.183 774.716C705.479 774.757 708.088 775.083 711.818 775.083C718.666 775.083 729.296 773.962 736.287 767.847C740.843 763.852 743.156 758.339 743.156 751.459C743.156 725.481 733.821 711.05 725.994 703.519ZM734.28 765.544C724.985 773.687 707.496 771.904 705.733 771.7L678.308 762.283L676.086 761.518H676.076L675.444 761.304V686.896L708.658 696.476C708.668 696.476 708.974 696.558 709.525 696.741C709.739 696.813 709.993 696.894 710.279 697.006C710.9 697.23 711.675 697.546 712.582 697.954C715.487 699.289 719.675 701.684 723.874 705.72C731.273 712.844 740.099 726.551 740.099 751.459C740.099 753.508 739.865 755.414 739.396 757.167C739.141 758.176 738.805 759.144 738.377 760.051C737.419 762.16 736.043 763.995 734.28 765.544Z" fill="#EFB624"/>
<path d="M712.562 808.012L674.476 793.071L672.387 794.498V867.184L672.438 867.571C672.641 868.356 672.988 869.671 710.442 888.973C710.941 889.218 719.961 893.641 729.5 893.641C731.742 893.641 734.005 893.396 736.196 892.795C736.563 892.693 736.929 892.591 737.286 892.469C737.5 892.408 737.704 892.326 737.908 892.245C738.02 892.214 738.122 892.173 738.224 892.133C738.265 892.112 738.315 892.102 738.356 892.082C738.631 891.97 738.896 891.857 739.172 891.735C739.437 891.613 739.691 891.491 739.956 891.358C740.211 891.226 740.466 891.093 740.71 890.95C741.465 890.522 742.168 890.054 742.841 889.534C748.67 885.019 751.615 876.896 751.615 865.298C751.615 823.055 712.928 808.155 712.562 808.012ZM737.235 889.238C726.595 893.458 711.95 886.313 711.828 886.252C700.454 880.392 682.935 871.148 677.034 867.561C676.331 867.133 675.791 866.786 675.444 866.532V796.74L696.255 804.904L696.306 804.924L709.525 810.111L711.471 810.876C711.512 810.886 711.899 811.039 712.582 811.345C718.758 814.066 748.558 829.129 748.558 865.298C748.558 866.277 748.538 867.214 748.497 868.132C748.436 869.263 748.354 870.353 748.232 871.393C747.172 880.769 743.483 886.752 737.235 889.238Z" fill="#EFB624"/>
<path d="M740.944 757.778L739.823 760.622L738.376 760.051L711.052 749.248L678.307 762.283L674.475 763.812L673.344 760.968L674.567 760.479L675.443 760.133L709.524 746.578L710.492 746.191H711.613L712.581 746.578L739.395 757.167L740.944 757.778Z" fill="#EFB624"/>
<path d="M712.581 695.651H709.523V747.607H712.581V695.651Z" fill="#EFB624"/>
<path d="M750.738 869.203L749.424 871.964L748.231 871.393L711.002 853.68L677.034 867.561L674.486 868.602L673.334 865.779L673.925 865.534L675.444 864.911L709.524 850.99L710.472 850.604L710.788 850.613L711.715 850.633L712.581 851.042L748.496 868.133L750.738 869.203Z" fill="#EFB624"/>
<path d="M712.581 809.439H709.523V852.019H712.581V809.439Z" fill="#EFB624"/>
<path d="M850.962 856.993C850.962 891.175 830.365 910.641 813.09 920.954C795.357 931.543 777.889 934.795 775.647 935.182C775.616 935.192 775.586 935.202 775.555 935.202C775.525 935.202 775.504 935.212 775.484 935.212C775.463 935.212 775.443 935.223 775.433 935.223L774.944 932.196C774.954 932.196 775.005 932.186 775.086 932.165C776.065 932.002 781.915 930.912 789.884 928.201C796.234 926.05 803.949 922.86 811.602 918.284C835.695 903.874 847.905 883.256 847.905 856.993C847.905 813.689 812.774 793.826 807.709 791.196C807.342 791.003 807.139 790.901 807.108 790.891L806.925 788.231C806.935 788.231 806.965 788.21 807.006 788.17L807.026 788.149C808.698 786.967 829.784 771.027 829.784 727C829.784 683.635 776.289 651.145 770.408 647.71C770.093 647.517 769.919 647.425 769.889 647.405L771.377 644.734C771.397 644.745 771.672 644.897 772.161 645.193C775.494 647.14 788.845 655.303 802.022 667.757C822.181 686.825 832.842 707.31 832.842 727C832.842 766.869 816.382 784.337 810.573 789.27C819.236 794.162 850.962 814.973 850.962 856.993Z" fill="#EFB624"/>
<path d="M829.784 727C829.784 771.027 808.697 786.967 807.026 788.149L807.006 788.169L772.497 803.028C781.068 792.806 796.967 768.673 791.749 734.919C787.183 705.302 769.165 685.653 754.856 674.381C744.308 666.075 734.361 661.04 728.908 658.615L770.408 647.71C776.289 651.144 829.784 683.635 829.784 727Z" fill="#EFB624"/>
<path d="M847.905 856.993C847.905 883.256 835.695 903.873 811.603 918.284C803.949 922.86 796.234 926.05 789.885 928.201C798.201 921.729 804.489 911.537 808.627 897.748C817.86 867.001 806.058 843.662 794.532 829.496C785.094 817.898 774.546 810.55 769.746 807.543L807.709 791.196C812.775 793.826 847.905 813.689 847.905 856.993Z" fill="#EFB624"/>
<path d="M808.361 790.911L807.709 791.196L769.746 807.544L766.994 808.726L765.781 805.923L772.497 803.029L807.006 788.169L807.026 788.149L807.159 788.098L808.361 790.911Z" fill="#EFB624"/>
<path d="M719.267 581.924V589.618L694.084 597.191L692.993 598.658V633.799L671.887 642.421V594.847L719.267 581.924Z" fill="#EFB624"/>
<path d="M695.103 636.234L693.941 636.713L692.993 637.101L671.958 645.692L671.418 645.916L670.939 646.11L669.787 643.277L671.887 642.421L692.993 633.799L693.941 633.411L695.103 636.234Z" fill="#EFB624"/>
<path d="M678.125 943.141C678.125 943.141 678.002 906.717 678.278 906.207C678.553 905.698 681.386 901.641 681.386 901.641C681.386 901.641 685.014 901.213 685.463 901.641C685.911 902.069 695.389 907.43 695.389 907.43L698.589 912.648V931.289L696.908 933.714L678.125 943.141Z" fill="#EFB624"/>
<path d="M721.244 966.041V922.289L732.699 927.028L748.038 932.725L759.656 934.825L761.582 934.957L762.122 941.928V945.067L721.244 966.041Z" fill="#EFB624"/>
<path d="M673.916 865.9L675.068 794.947L711.054 809.5V850.195L709.484 852.651L673.916 865.9Z" fill="#EFB624"/>
<path d="M675.924 761.59L711.054 746.476L710.249 695.366L673.916 684.878L674.589 762.395L675.924 761.59Z" fill="#EFB624"/>
<path d="M700.638 806.626L683.648 799.961L682.904 797.729L699.557 770.833L701.351 770.191L705.713 771.69C706.793 771.812 713.713 772.525 721.031 771.221L722.6 773.534L702.492 806.004L700.638 806.626ZM686.471 797.79L700.576 803.324L718.289 774.727C711.267 775.511 705.458 774.767 705.183 774.727L704.887 774.655L701.524 773.504L686.471 797.79Z" fill="#EFB624"/>
<path d="M629.347 681.607C625.495 677.123 620.868 673.484 615.609 670.804L615.008 668.633L634.718 636.815L635.472 636.194C636.614 635.755 637.653 635.144 638.56 634.39L638.571 634.38C638.611 634.349 638.652 634.308 638.703 634.267C639.59 633.503 640.334 632.606 640.915 631.597L640.966 631.526C641.913 629.875 642.403 628.04 642.403 626.165V624.83L642.627 624.025L662.623 591.738L664.192 591.035L670.613 592.177L671.876 593.685V616.29L671.652 617.095L631.814 681.424L629.347 681.607ZM618.463 668.857C622.876 671.293 626.84 674.391 630.285 678.071L668.829 615.851V594.969L664.691 594.235L645.47 625.268V626.165C645.47 628.611 644.828 631.006 643.605 633.085L643.554 633.146C642.8 634.461 641.822 635.633 640.65 636.622L640.558 636.693L640.548 636.683L640.507 636.713L640.517 636.724C639.478 637.6 638.306 638.313 637.032 638.854L618.463 668.857Z" fill="#EFB624"/>
<path d="M677.36 944.466L662.48 936.058L661.93 933.918L676.809 909.886L679.643 910.691V943.131L677.36 944.466ZM665.374 934.173L676.585 940.512V916.062L665.374 934.173Z" fill="#EFB624"/>
<path d="M619.939 868.377L619.389 868.081L618.584 866.736V843.856L620.745 842.47L632.363 847.79L633.025 849.981L621.968 867.836L619.939 868.377ZM621.631 846.241V862.557L629.509 849.838L621.631 846.241Z" fill="#EFB624"/>
<path d="M695.816 612.172L692.982 611.367V598.658L694.776 597.15L701.88 598.383L702.919 600.697L695.816 612.172ZM696.04 600.473V605.996L699.128 601.013L696.04 600.473Z" fill="#EFB624"/>
<path d="M645.238 591.524L642.404 590.719V588.997L644.198 587.489L645.156 587.662L646.196 589.975L645.238 591.524Z" fill="#EFB624"/>
<path d="M720.48 968.854L709.412 962.597L708.861 960.456L719.929 942.581L722.763 943.386V967.519L720.48 968.854ZM712.306 960.711L719.715 964.9V948.757L712.306 960.711Z" fill="#EFB624"/>
<path d="M641.516 699.839L638.734 699.422C637.002 692.889 633.75 686.723 629.348 681.597L629.205 679.793L669.044 615.464L671.877 616.269V644.683C671.877 645.906 672.142 647.099 672.662 648.209L672.58 649.667L641.516 699.839ZM632.385 680.466C636.003 684.878 638.826 689.964 640.691 695.355L669.563 648.729C669.064 647.435 668.819 646.079 668.819 644.683V621.64L632.385 680.466Z" fill="#EFB624"/>
<path d="M645.238 625.625L642.404 624.82V590.719L642.629 589.914L643.587 588.365L645.156 587.662L664.194 591.035L665.223 593.348L645.238 625.625ZM645.462 591.147V619.449L661.442 593.644L645.645 590.852L645.462 591.147Z" fill="#EFB624"/>
<path d="M615.609 670.794C613.53 669.734 611.349 668.827 609.148 668.103L603.899 666.391L602.85 664.934V654.59L603.074 653.784L614.437 635.43L615.956 634.726L624.639 635.98L625.352 636.388V636.286C625.098 636.092 624.863 636.041 624.853 636.041C624.965 636.061 625.159 636.082 625.414 636.102L625.577 636.123L630.112 636.775C631.936 637.04 633.73 636.846 635.452 636.184L637.297 638.416L617.587 670.233L615.609 670.794ZM605.897 663.833L610.096 665.199C612.012 665.821 613.897 666.575 615.732 667.451L632.792 639.904C631.753 639.985 630.713 639.955 629.674 639.812L625.138 639.16C624.7 639.129 624.323 639.088 623.997 638.986L616.496 637.896L605.897 655.028V663.833Z" fill="#EFB624"/>
<path d="M605.673 655.405L602.84 654.6V634.604L604.583 633.095L615.946 634.746L617.026 637.06L605.673 655.405ZM605.897 636.357V649.218L613.205 637.417L605.897 636.357Z" fill="#EFB624"/>
<path d="M654.451 917.703L651.618 916.898V907.349C651.618 901.489 650.191 895.639 647.49 890.431L647.551 888.923L672.612 848.462L675.446 849.268V866.522C676.047 866.95 677.647 867.979 681.897 870.354L682.447 872.494L654.451 917.703ZM650.599 889.809C653.269 895.252 654.675 901.295 654.675 907.349V911.527L679.002 872.249C672.714 868.703 672.612 868.285 672.429 867.582L672.378 867.194V854.659L650.599 889.809Z" fill="#EFB624"/>
<path d="M662.479 936.047L652.39 930.351L651.615 929.016V916.898L651.839 916.093L679.835 870.883L681.884 870.354C685.696 872.484 691.005 875.347 697.691 878.874L698.282 881.034L685.023 902.447L683.79 903.169C681.752 903.251 679.652 904.892 679.652 907.491V910.69L679.428 911.497L664.548 935.528L662.479 936.047ZM654.673 928.129L662.704 932.674L676.584 910.263V907.5C676.584 903.811 679.255 900.754 682.811 900.203L694.817 880.83C689.487 878.007 685.074 875.633 681.67 873.747L654.673 917.346V928.129Z" fill="#EFB624"/>
<path d="M650.148 890.533L647.488 890.431C644.706 885.06 640.578 880.402 635.544 876.978L635.105 874.909L672.6 814.361L675.433 815.166V849.267L675.209 850.072L650.148 890.533ZM638.458 875.296C642.657 878.394 646.214 882.288 648.905 886.721L672.366 848.839V820.537L638.458 875.296Z" fill="#EFB624"/>
<path d="M635.544 876.978C634.321 876.142 633.21 875.47 632.15 874.899L619.931 868.376L619.35 866.226L630.407 848.37L632.344 847.79L633.281 848.218C634.831 848.931 636.543 848.809 637.98 847.891C639.396 846.984 640.232 845.435 640.232 843.764V832.941L640.456 832.135L682.119 764.872L683.913 764.229L701.33 770.212L702.135 772.464L685.482 799.36L683.627 799.981L675.413 796.761V815.187L675.189 815.992L637.694 876.54L635.544 876.978ZM622.815 866.45L633.587 872.208C634.341 872.606 635.116 873.064 635.921 873.574L672.366 814.728V794.498L674.455 793.071L683.566 796.649L698.538 772.474L684.086 767.511L643.3 833.369V843.764C643.3 846.485 641.934 848.992 639.641 850.47C637.44 851.887 634.718 852.121 632.303 851.132L622.815 866.45Z" fill="#EFB624"/>
<path d="M699.67 912.893L696.929 912.587C696.093 910.161 694.401 908.174 692.169 906.982L685.993 903.68C685.29 903.302 684.546 903.119 683.782 903.16L682.416 900.826L695.675 879.414L697.693 878.863C705.031 882.736 711.472 886.058 711.798 886.232C711.88 886.272 712.532 886.588 713.592 887.027L714.305 889.248L699.67 912.893ZM686.238 900.469C686.645 900.602 687.053 900.775 687.44 900.989L693.616 904.291C695.655 905.382 697.336 906.971 698.549 908.908L710.789 889.146C710.575 889.045 710.453 888.983 710.443 888.983L710.422 888.973C710.361 888.943 704.511 885.926 697.54 882.257L686.238 900.469Z" fill="#EFB624"/>
<path d="M643.087 833.735L640.254 832.93V798.83L640.478 798.024L672.602 746.16L675.435 746.965V761.315L683.935 764.229L684.74 766.482L643.087 833.735ZM643.311 799.258V827.559L681.132 766.492L673.407 763.842L672.378 762.395V752.326L643.311 799.258Z" fill="#EFB624"/>
<path d="M768.941 936.333L767.494 934.01L808.698 867.49L811.521 868.122C812.622 877.732 811.644 887.699 808.627 897.759C801.473 921.525 788.122 934.509 768.941 936.333ZM808.831 873.065L771.785 932.868C787.938 930.086 799.332 917.999 805.682 896.872C808.107 888.81 809.157 880.83 808.831 873.065Z" fill="#EFB624"/>
<path d="M764.284 936.547C759.29 936.547 753.991 935.834 748.447 934.407L747.529 932.124L801.758 844.569L804.428 844.691C808.209 852.202 810.594 860.08 811.511 868.121L811.298 869.1L770.093 935.62L768.942 936.333C767.423 936.476 765.874 936.547 764.284 936.547ZM751.249 931.941C757.15 933.286 762.745 933.755 767.902 933.357L808.413 867.938C807.598 861.324 805.743 854.811 802.9 848.554L751.249 931.941Z" fill="#EFB624"/>
<path d="M709.413 962.587L698.284 956.288L697.51 954.953V945.108L697.734 944.303L730.642 891.175L731.804 890.462C733.781 890.288 735.606 889.871 737.226 889.228C744.737 886.242 748.549 878.191 748.549 865.289C748.549 864.626 748.518 863.974 748.498 863.322L748.477 862.863L748.702 861.997L777.635 815.279L779.908 814.902C784.841 818.938 789.335 823.33 793.259 827.957L793.391 829.751L732.966 927.324L730.999 927.895C727.432 926.173 724.599 924.562 722.764 923.462V943.366L722.54 944.171L711.472 962.047L709.413 962.587ZM700.567 954.077L709.638 959.213L719.707 942.958V920.72L722.092 919.456C722.132 919.477 725.608 921.831 731.091 924.573L790.201 829.129C786.93 825.369 783.281 821.781 779.307 818.418L751.545 863.24C751.576 863.923 751.596 864.606 751.596 865.309C751.596 879.587 747.132 888.597 738.337 892.092C736.665 892.755 734.811 893.213 732.834 893.448L700.557 945.567V954.077H700.567Z" fill="#EFB624"/>
<path d="M700.342 945.924L697.509 945.118V915.889C697.509 914.809 697.315 913.698 696.928 912.587L697.07 911.283L711.705 887.649L713.591 887.037C716.608 888.291 724.424 891.134 731.803 890.472L733.24 892.795L700.342 945.924ZM700.046 912.292C700.393 913.494 700.566 914.697 700.566 915.889V939.748L729.133 893.631C723.1 893.56 717.301 891.766 713.632 890.349L700.046 912.292Z" fill="#EFB624"/>
<path d="M748.457 934.407C742.749 932.939 736.879 930.758 731.009 927.915L730.377 925.734L790.802 828.16L793.269 827.977C797.773 833.287 801.534 838.902 804.439 844.671L804.377 846.159L750.148 933.714L748.457 934.407ZM733.873 925.887C738.683 928.119 743.463 929.882 748.141 931.156L801.32 845.292C798.884 840.584 795.847 835.977 792.28 831.585L733.873 925.887Z" fill="#EFB624"/>
<path d="M742.362 741.655L739.539 741.013C738.591 732.401 736.41 724.727 733.047 718.184L733.108 716.676L756.875 678.295L759.178 677.948C764.019 682.147 768.422 686.672 772.264 691.411L772.376 693.185L742.362 741.655ZM736.155 717.563C738.917 723.148 740.874 729.466 742.005 736.427L769.206 692.512C766.006 688.649 762.419 684.94 758.526 681.454L736.155 717.563Z" fill="#EFB624"/>
<path d="M717.189 813.638C713.785 811.752 711.482 810.886 711.461 810.876L700.648 806.636L699.904 804.404L720.012 771.934L721.041 771.231C733.679 768.979 740.089 762.324 740.089 751.459C740.089 747.862 739.906 744.356 739.539 741.013L739.763 740.045L769.777 691.584L772.264 691.421C776.585 696.741 780.274 702.438 783.261 708.339L783.199 709.827L719.238 813.098L717.189 813.638ZM703.461 804.455L712.552 808.022C712.623 808.043 714.488 808.746 717.393 810.275L780.142 708.961C777.655 704.14 774.659 699.473 771.235 695.039L742.637 741.207C742.984 744.499 743.157 747.943 743.157 751.459C743.157 763.649 735.941 771.465 722.264 774.115L703.461 804.455Z" fill="#EFB624"/>
<path d="M751.31 863.627L748.487 862.883C748.171 854.353 746.173 846.404 742.545 839.27L742.606 837.771L788.244 764.087L791.036 765.208C786.287 787.996 773.354 802.57 768.9 807.034C771.101 808.379 775.127 811.019 779.907 814.932L780.233 816.92L751.31 863.627ZM745.653 838.648C748.568 844.63 750.423 851.122 751.187 858.012L776.931 816.441C770.561 811.355 765.7 808.685 765.649 808.654L765.425 806.708L745.653 838.648ZM785.166 774.849L766.342 805.24C769.461 802.152 779.306 791.461 785.166 774.849Z" fill="#EFB624"/>
<path d="M735.705 718.296L733.045 718.195C730.589 713.425 727.501 709.226 723.862 705.73C723.169 705.068 722.426 704.395 721.58 703.692L721.264 701.715L742.411 667.573L744.531 667.084C749.749 670.396 754.671 674.055 759.176 677.969L759.472 679.925L735.705 718.296ZM725.982 703.519C729.254 706.668 732.107 710.337 734.482 714.454L756.18 679.426C752.439 676.257 748.414 673.26 744.184 670.498L724.545 702.204C725.055 702.642 725.534 703.081 725.982 703.519Z" fill="#EFB624"/>
<path d="M731.335 824.135C726.097 819.039 720.756 815.605 717.189 813.638L716.629 811.498L780.591 708.227L783.261 708.349C786.797 715.361 789.386 722.852 790.966 730.608L790.772 731.718L733.71 823.86L731.335 824.135ZM720.063 811.762C723.365 813.699 727.707 816.624 732.089 820.649L787.847 730.628C786.502 724.258 784.443 718.072 781.722 712.212L720.063 811.762Z" fill="#EFB624"/>
<path d="M745.205 839.371L742.545 839.259C739.752 833.746 735.981 828.66 731.334 824.135L731.1 822.24L788.162 730.098L790.964 730.598C791.28 732.157 791.535 733.563 791.749 734.919C793.329 745.171 793.094 755.353 791.046 765.198L790.852 765.687L745.205 839.371ZM734.34 822.82C738.173 826.703 741.413 830.953 744.002 835.519L788.101 764.321C790.027 754.914 790.241 745.192 788.722 735.398C788.702 735.296 788.692 735.194 788.671 735.092L734.34 822.82Z" fill="#EFB624"/>
<path d="M706.112 695.743L688.185 690.575L687.309 688.303L722.795 631.006L725.629 631.811V657.249C726.291 657.514 727.259 657.901 728.482 658.442L729.165 660.643L707.834 695.08L706.112 695.743ZM690.978 688.201L705.847 692.491L725.629 660.551C724.334 660.011 723.601 659.746 723.59 659.746L722.571 658.309V637.192L690.978 688.201Z" fill="#EFB624"/>
<path d="M643.087 765.524L640.254 764.719V730.618L640.478 729.813L687.227 654.334L688.011 653.703C690.987 652.643 692.975 649.82 692.975 646.67V645.478L693.199 644.673L719.381 602.409L720.94 601.706L724.344 602.297L725.608 603.805V631.821L725.384 632.627L689.897 689.923L688.174 690.586L675.425 686.907V712.854L675.201 713.659L643.087 765.524ZM643.311 731.046V759.348L672.378 712.416V684.868L674.334 683.401L687.93 687.324L722.581 631.383V605.089L721.46 604.896L696.052 645.916V646.67C696.052 650.92 693.474 654.752 689.571 656.383L643.311 731.046Z" fill="#EFB624"/>
<path d="M643.086 731.413L640.253 730.608V711.009C640.253 707.116 639.743 703.223 638.734 699.432L638.908 698.239L669.981 648.077L672.662 648.23C673.773 650.594 675.964 652.317 678.512 652.847L684.005 653.978C685.35 654.253 686.736 654.161 688.01 653.703L689.824 655.945L643.086 731.413ZM641.853 699.289C642.821 703.131 643.31 707.075 643.31 711.009V725.237L685.462 657.178C684.769 657.178 684.076 657.107 683.394 656.964L677.9 655.833C675.281 655.292 672.937 653.825 671.296 651.766L641.853 699.289Z" fill="#EFB624"/>
<path d="M721.582 703.682C714.794 698.015 708.71 696.487 708.649 696.477L708.587 696.456L706.111 695.743L705.234 693.47L726.565 659.033L728.481 658.442C732.14 660.052 737.888 662.855 744.533 667.074L745.012 669.174L723.864 703.315L721.582 703.682ZM709.403 693.511C709.953 693.654 715.599 695.162 722.162 700.237L741.598 668.858C736.349 665.607 731.742 663.293 728.451 661.785L708.893 693.368L709.403 693.511Z" fill="#EFB624"/>
<path d="M695.816 646.273L692.982 645.468V611.367L693.207 610.562L700.31 599.086L701.869 598.383L720.938 601.695L721.977 604.009L695.816 646.273ZM696.04 611.805V640.107L718.196 604.325L702.369 601.573L696.04 611.805Z" fill="#EFB624"/>
<path d="M643.087 799.625L640.254 798.819V764.719L640.478 763.914L672.602 712.049L675.435 712.854V746.955L675.211 747.76L643.087 799.625ZM643.311 765.157V793.459L672.378 746.527V718.225L643.311 765.157Z" fill="#EFB624"/>
<path d="M581.243 608.585C569.197 615.831 555.092 619.999 539.998 619.999C534.535 619.999 529.205 619.449 524.059 618.409L528.013 604.202L537.43 599.637C538.897 600.635 540.65 601.216 542.556 601.216C547.418 601.216 551.402 597.405 551.667 592.615H571.826L581.243 608.585Z" fill="#EFB624"/>
<path d="M594.238 513.61C589.774 513.61 586.136 517.239 586.136 521.703C586.136 526.166 589.774 529.805 594.238 529.805C598.702 529.805 602.33 526.166 602.33 521.703C602.33 517.239 598.702 513.61 594.238 513.61ZM586.961 474.924L567.17 499.424L562.767 525.524L585.361 523.792C585.198 523.119 585.117 522.416 585.117 521.703C585.117 516.678 589.214 512.591 594.238 512.591C599.263 512.591 603.349 516.678 603.349 521.703C603.349 526.727 599.263 530.824 594.238 530.824C590.294 530.824 586.921 528.296 585.657 524.78L562.349 526.584L543.056 541.749C543.678 542.84 544.035 544.114 544.035 545.459C544.035 549.627 540.651 553.021 536.483 553.021C532.315 553.021 528.921 549.627 528.921 545.459C528.921 541.291 532.315 537.907 536.483 537.907C538.939 537.907 541.13 539.089 542.486 540.903L561.687 525.8L566.201 498.996L566.293 498.894L586.126 474.332C573.081 465.13 557.182 459.728 539.999 459.728C524.712 459.728 510.423 464.008 498.275 471.438L504.125 483.026L498.408 500.474L500.741 503.602C502.413 501.442 505.022 500.056 507.957 500.056C512.981 500.056 517.068 504.153 517.068 509.177C517.068 514.202 512.981 518.288 507.957 518.288C502.922 518.288 498.836 514.202 498.836 509.177C498.836 507.455 499.315 505.855 500.13 504.489L497.266 500.667L503.024 483.107L497.399 471.978C474.845 486.155 459.863 511.256 459.863 539.864C459.863 578.316 486.932 610.43 523.061 618.206L527.148 603.489L536.534 598.934C534.638 597.262 533.446 594.827 533.446 592.105C533.446 587.081 537.533 582.994 542.557 582.994C547.418 582.994 551.403 586.806 551.668 591.596H572.408L582.11 608.055C604.929 593.94 620.135 568.675 620.135 539.864C620.135 513.142 607.059 489.487 586.961 474.924ZM507.957 517.269C512.421 517.269 516.049 513.641 516.049 509.177C516.049 504.713 512.421 501.075 507.957 501.075C503.493 501.075 499.855 504.713 499.855 509.177C499.855 513.641 503.493 517.269 507.957 517.269ZM594.238 513.61C589.774 513.61 586.136 517.239 586.136 521.703C586.136 526.166 589.774 529.805 594.238 529.805C598.702 529.805 602.33 526.166 602.33 521.703C602.33 517.239 598.702 513.61 594.238 513.61ZM594.238 513.61C589.774 513.61 586.136 517.239 586.136 521.703C586.136 526.166 589.774 529.805 594.238 529.805C598.702 529.805 602.33 526.166 602.33 521.703C602.33 517.239 598.702 513.61 594.238 513.61ZM594.238 513.61C589.774 513.61 586.136 517.239 586.136 521.703C586.136 526.166 589.774 529.805 594.238 529.805C598.702 529.805 602.33 526.166 602.33 521.703C602.33 517.239 598.702 513.61 594.238 513.61Z" fill="#EFB624"/>
<path d="M540 385.096C531.399 385.096 522.96 385.799 514.746 387.144V410.952C522.981 409.351 531.429 408.536 540 408.536C575.08 408.536 608.059 422.193 632.865 446.999C657.672 471.805 671.328 504.785 671.328 539.864C671.328 548.2 670.554 556.425 669.035 564.435H692.822C694.106 556.435 694.769 548.231 694.769 539.864C694.769 454.388 625.477 385.096 540 385.096ZM447.136 632.729C422.329 607.923 408.673 574.943 408.673 539.864C408.673 524.74 411.211 510.013 416.092 496.152H391.49C387.413 510.013 385.232 524.678 385.232 539.864C385.232 625.34 454.524 694.632 540 694.632C560.322 694.632 579.717 690.718 597.491 683.605V658.004C579.808 666.636 560.251 671.191 540 671.191C504.921 671.191 471.942 657.535 447.136 632.729Z" fill="#EFB624"/>
<path d="M883.3 562.305L883.514 543.909C884.584 451.35 849.352 364.142 784.33 298.366C721.734 235.046 639.01 199.101 550.415 196.492C546.379 192.313 544.046 189.898 540.01 185.719C544.402 181.479 546.787 179.176 551.18 174.937C596.888 176.292 641.222 186.015 683.119 203.891C726.871 222.551 766.088 249.233 799.669 283.211C833.239 317.169 859.462 356.671 877.603 400.617C892.727 437.255 901.675 475.677 904.295 515.19C912.04 500.759 919.786 479 922.456 451.513C931.078 443.737 936.377 438.957 944.999 431.181C944.989 497.681 912.142 562.305 883.3 562.305Z" fill="#EFB624"/>
<path d="M539.999 894.028C535.606 898.268 533.232 900.571 528.839 904.811C483.497 903.466 439.49 893.885 397.878 876.285C354.401 857.899 315.358 831.575 281.828 798.045C248.298 764.515 221.973 725.471 203.588 681.994C188.219 645.651 178.965 607.494 175.969 568.206C168.131 582.637 160.223 604.6 157.522 632.443C148.9 640.209 143.601 644.979 134.979 652.744C134.979 586.225 168.386 521.712 196.454 521.712V539.863C196.454 725.818 344.964 877.742 529.603 883.246C533.639 887.424 535.973 889.85 539.999 894.028Z" fill="#EFB624"/>
<path d="M501.853 855.189C513.898 855.189 523.663 845.424 523.663 833.379C523.663 821.334 513.898 811.569 501.853 811.569C489.808 811.569 480.043 821.334 480.043 833.379C480.043 845.424 489.808 855.189 501.853 855.189Z" fill="#EFB624"/>
<path d="M336.607 776.714C348.652 776.714 358.416 766.95 358.416 754.904C358.416 742.859 348.652 733.094 336.607 733.094C324.561 733.094 314.797 742.859 314.797 754.904C314.797 766.95 324.561 776.714 336.607 776.714Z" fill="#EFB624"/>
<path d="M249.064 616.096C261.109 616.096 270.874 606.332 270.874 594.286C270.874 582.241 261.109 572.477 249.064 572.477C237.018 572.477 227.254 582.241 227.254 594.286C227.254 606.332 237.018 616.096 249.064 616.096Z" fill="#EFB624"/>
<path d="M594.237 512.591C589.213 512.591 585.116 516.678 585.116 521.703C585.116 522.416 585.197 523.119 585.36 523.792L562.766 525.524L567.169 499.424L586.961 474.924C586.685 474.72 586.41 474.526 586.125 474.333L566.292 498.894L566.2 498.996L561.686 525.8L542.485 540.903C541.129 539.089 538.938 537.907 536.482 537.907C532.314 537.907 528.92 541.291 528.92 545.459C528.92 549.627 532.314 553.021 536.482 553.021C540.65 553.021 544.034 549.627 544.034 545.459C544.034 544.114 543.677 542.84 543.056 541.749L562.348 526.584L585.656 524.78C586.92 528.297 590.293 530.824 594.237 530.824C599.262 530.824 603.348 526.727 603.348 521.703C603.348 516.678 599.262 512.591 594.237 512.591ZM543.198 545.459C543.198 549.158 540.182 552.175 536.482 552.175C532.782 552.175 529.766 549.158 529.766 545.459C529.766 541.759 532.782 538.753 536.482 538.753C540.182 538.753 543.198 541.759 543.198 545.459ZM594.237 529.805C589.773 529.805 586.135 526.166 586.135 521.703C586.135 517.239 589.773 513.611 594.237 513.611C598.701 513.611 602.329 517.239 602.329 521.703C602.329 526.166 598.701 529.805 594.237 529.805Z" fill="#262626"/>
<path d="M543.198 545.459C543.198 549.158 540.181 552.175 536.482 552.175C532.782 552.175 529.766 549.158 529.766 545.459C529.766 541.759 532.782 538.753 536.482 538.753C540.181 538.753 543.198 541.759 543.198 545.459Z" fill="#EFB624"/>
<path d="M572.408 591.596H551.668C551.403 586.806 547.418 582.994 542.557 582.994C537.532 582.994 533.446 587.081 533.446 592.105C533.446 594.826 534.638 597.262 536.534 598.934L527.147 603.489L523.061 618.206C523.387 618.277 523.723 618.348 524.059 618.41L528.014 604.203L537.431 599.637C538.898 600.636 540.651 601.217 542.557 601.217C547.418 601.217 551.403 597.405 551.668 592.615H571.827L581.244 608.585C581.539 608.412 581.825 608.238 582.11 608.055L572.408 591.596ZM542.557 600.197C538.093 600.197 534.465 596.569 534.465 592.105C534.465 587.641 538.093 584.013 542.557 584.013C547.021 584.013 550.659 587.641 550.659 592.105C550.659 596.569 547.021 600.197 542.557 600.197Z" fill="#262626"/>
<path d="M550.659 592.105C550.659 596.569 547.021 600.197 542.557 600.197C538.093 600.197 534.465 596.569 534.465 592.105C534.465 587.641 538.093 584.013 542.557 584.013C547.021 584.013 550.659 587.641 550.659 592.105Z" fill="#EFB624"/>
</g>
</svg>
