<svg width="498" height="512" viewBox="0 0 498 512" fill="none" xmlns="http://www.w3.org/2000/svg">
<path d="M297.553 436.393L296.676 434.762L310.071 427.619L310.936 429.263L310.689 429.393L297.553 436.393Z" fill="#EFB624"/>
<path d="M358.868 511.364L357.979 509.739L382.668 496.177V490.956H384.522V496.727L384.04 497.542L358.868 511.364Z" fill="#EFB624"/>
<path d="M344.532 488.498L331.846 494.956L332.687 496.608L345.373 490.149L344.532 488.498Z" fill="#EFB624"/>
<path d="M311.254 299.404L287.271 307.845L287.887 309.594L311.87 301.153L311.254 299.404Z" fill="#EFB624"/>
<path d="M311.787 281.972L311.33 280.174L344.466 271.752L344.892 271.746L358.349 274.662L357.954 276.479L344.713 273.6L311.787 281.972Z" fill="#EFB624"/>
<path d="M299.837 309.523L299.561 311.356L300.092 311.436L300.369 309.603L299.837 309.523Z" fill="#EFB624"/>
<path d="M327.82 284.801L327.332 283.01L357.91 274.675L359.078 275.571V281.984H357.224V276.782L327.82 284.801Z" fill="#EFB624"/>
<path d="M360.393 323.98L359.924 322.188L387.437 314.953V282.138H389.291V315.67L388.599 316.565L360.393 323.98Z" fill="#EFB624"/>
<path d="M342.387 286.018L342.07 287.844L360.004 290.958L360.321 289.132L342.387 286.018Z" fill="#EFB624"/>
<path d="M357.966 511.358L344.509 503.746L344.04 502.936V479.248C344.04 476.986 342.798 474.916 340.802 473.847L337.058 471.846C336.236 471.407 335.278 471.425 334.481 471.901C333.684 472.377 333.209 473.217 333.209 474.15V495.757L331.825 496.566L316.687 488.009L316.218 487.199V474.064C316.218 465.815 311.695 458.277 304.416 454.391L296.675 450.258L296.187 449.442V435.571L297.496 434.731L305.108 438.216C306.048 438.648 307.092 438.574 307.957 438.018C308.816 437.468 309.322 436.529 309.322 435.516V355.04C309.322 343.177 301.741 332.723 290.459 329.034L287.277 327.996L286.641 327.112V308.713L287.697 307.798L299.85 309.559L300.283 309.806V309.744C300.135 309.627 299.993 309.596 299.98 309.596C300.048 309.608 300.166 309.621 300.32 309.633L300.419 309.646L303.168 310.041C305.003 310.307 306.869 309.781 308.284 308.589H308.29C308.29 308.589 308.34 308.54 308.371 308.515C308.908 308.051 309.359 307.508 309.711 306.896L309.742 306.853C310.317 305.852 310.614 304.74 310.614 303.603V281.076L311.701 280.161L327.716 282.997L328.482 283.912V314.842C328.482 317.22 330.175 319.296 332.504 319.778L335.834 320.464C337.175 320.736 338.553 320.402 339.61 319.537C340.666 318.672 341.278 317.4 341.278 316.028V286.927L341.939 286.037L370.533 277.437L370.997 277.418L388.544 281.23L388.6 283.028L361.074 290.739V322.441C363.243 323.294 370.725 326.482 378.788 332.828C387.463 339.661 398.386 351.573 401.154 369.528C404.849 393.464 391.034 409.423 387.302 413.236C389.909 414.823 396.761 419.389 402.841 426.866C409.829 435.454 416.984 449.603 411.386 468.243C407.883 479.902 401.853 487.323 393.474 490.301C379.783 495.163 364.139 486.761 359.338 483.851V510.542L357.954 511.351L357.966 511.358ZM345.893 502.399L357.497 508.96V482.17L358.942 481.404C359.128 481.534 377.701 493.946 392.869 488.559C400.66 485.791 406.295 478.778 409.619 467.718C413.919 453.396 411.17 440.063 401.451 428.089C394.148 419.099 385.436 414.292 385.35 414.243L385.177 412.735C385.362 412.574 403.416 396.251 399.332 369.819C394.197 336.566 360.184 324.079 359.844 323.955L359.227 323.084V290.041L359.906 289.151L384.522 282.256L370.855 279.284L343.15 287.619V316.034C343.15 317.962 342.291 319.76 340.802 320.977C339.307 322.194 337.373 322.67 335.482 322.281L332.152 321.595C328.964 320.934 326.647 318.098 326.647 314.842V284.69L312.486 282.182V303.603C312.486 305.086 312.096 306.538 311.355 307.798L311.324 307.835C310.867 308.632 310.274 309.343 309.563 309.942L309.508 309.985L309.483 309.998H309.489C307.666 311.536 305.269 312.216 302.915 311.876L300.166 311.481C299.9 311.462 299.671 311.437 299.474 311.376L288.494 309.788V326.445L291.04 327.273C303.088 331.215 311.176 342.373 311.176 355.046V435.522C311.176 437.171 310.348 438.691 308.958 439.587C307.567 440.477 305.837 440.6 304.336 439.915L298.034 437.029V448.898L305.288 452.772C313.171 456.98 318.065 465.142 318.065 474.076V486.668L331.349 494.175V474.156C331.349 472.568 332.164 471.129 333.524 470.313C334.883 469.498 336.533 469.461 337.929 470.214L341.673 472.216C344.274 473.606 345.887 476.3 345.887 479.248V502.392L345.893 502.399ZM363.428 465.76C357.645 465.76 352.177 463.084 351.874 462.936C329.168 451.228 328.958 450.437 328.834 449.961L328.803 449.726V405.661L330.07 404.796L353.159 413.853C353.382 413.934 376.836 422.967 376.836 448.583C376.836 457.239 374.129 462.701 368.797 464.814C367.073 465.5 365.238 465.76 363.428 465.76ZM330.657 449.331C332.597 450.752 344.991 457.301 352.714 461.28C352.788 461.317 361.673 465.655 368.118 463.091C372.671 461.28 374.982 456.399 374.982 448.577C374.982 424.24 352.721 415.664 352.498 415.583L330.657 407.014V449.325V449.331ZM352.708 393.89C350.447 393.89 348.865 393.687 348.686 393.668L348.507 393.625L329.427 387.076L328.803 386.198V339.198L329.99 338.308L351.269 344.443C351.435 344.48 356.316 345.704 361.309 350.505C366.054 355.07 371.713 363.819 371.713 379.569C371.713 383.739 370.311 387.082 367.549 389.504C363.317 393.211 356.866 393.89 352.714 393.89H352.708ZM349.02 391.839C350.088 391.963 360.697 393.044 366.326 388.107C368.667 386.056 369.854 383.183 369.854 379.569C369.854 364.468 364.503 356.158 360.017 351.839C355.414 347.403 350.836 346.241 350.793 346.235L330.657 340.433V385.543L349.02 391.845V391.839Z" fill="#EFB624"/>
<path d="M352.708 393.884C350.446 393.884 348.865 393.68 348.685 393.662L348.506 393.619L329.427 387.069L328.803 386.192V339.191L329.989 338.302L351.268 344.437C351.435 344.474 356.316 345.698 361.308 350.498C366.053 355.064 371.713 363.813 371.713 379.562C371.713 383.733 370.31 387.075 367.549 389.497C363.316 393.205 356.866 393.884 352.714 393.884H352.708ZM349.019 391.833C350.088 391.956 360.697 393.038 366.325 388.101C368.667 386.05 369.853 383.177 369.853 379.562C369.853 364.462 364.503 356.152 360.017 351.833C355.414 347.397 350.836 346.235 350.792 346.229L330.656 340.427V385.537L349.019 391.839V391.833Z" fill="#EFB624"/>
<path d="M363.427 465.76C357.644 465.76 352.176 463.084 351.874 462.936C329.167 451.228 328.957 450.437 328.834 449.961L328.803 449.726V405.661L330.069 404.796L353.159 413.853C353.381 413.934 376.835 422.967 376.835 448.583C376.835 457.239 374.129 462.701 368.797 464.821C367.073 465.506 365.238 465.766 363.427 465.766V465.76ZM330.656 449.331C332.596 450.752 344.991 457.301 352.714 461.28C352.788 461.317 361.673 465.648 368.117 463.091C372.671 461.28 374.981 456.399 374.981 448.577C374.981 424.24 352.72 415.664 352.498 415.583L330.656 407.014V449.325V449.331Z" fill="#EFB624"/>
<path d="M330.071 387.051L329.385 385.327L351.906 376.368H352.585L370.367 383.393L369.688 385.117L352.246 378.222L330.071 387.051Z" fill="#EFB624"/>
<path d="M353.172 345.729H351.318V377.227H353.172V345.729Z" fill="#EFB624"/>
<path d="M375.506 452.618L352.213 441.534L330.075 450.579L329.377 448.867L351.892 439.668L352.645 439.686L376.303 450.944L375.506 452.618Z" fill="#EFB624"/>
<path d="M353.172 414.712H351.318V440.526H353.172V414.712Z" fill="#EFB624"/>
<path d="M391.276 490.968L390.979 489.139C391.091 489.121 402.23 487.267 413.204 480.699C427.804 471.963 435.206 459.464 435.206 443.548C435.206 415.392 410.726 403.585 410.479 403.473L410.361 401.861C410.497 401.768 424.22 392.389 424.22 364.74C424.22 337.091 388.267 316.689 387.902 316.485L388.804 314.866C388.897 314.916 398.208 320.149 407.383 328.824C419.611 340.384 426.067 352.803 426.067 364.74C426.067 388.91 416.089 399.507 412.561 402.491C417.813 405.457 437.047 418.073 437.047 443.548C437.047 464.264 424.56 476.072 414.093 482.324C402.817 489.053 391.727 490.894 391.263 490.974L391.276 490.968Z" fill="#EFB624"/>
<path d="M410.502 401.788L385.422 412.594L386.155 414.297L411.236 403.49L410.502 401.788Z" fill="#EFB624"/>
<path d="M341.857 308.031L327.209 314.014L327.91 315.73L342.558 309.747L341.857 308.031Z" fill="#EFB624"/>
<path d="M332.282 495.769C332.282 495.769 332.208 473.687 332.375 473.378C332.542 473.069 334.259 470.61 334.259 470.61C334.259 470.61 336.459 470.35 336.731 470.61C337.002 470.869 342.749 474.119 342.749 474.119L344.689 477.283V488.583L343.669 490.054L332.288 495.769H332.282Z" fill="#EFB624"/>
<path d="M358.424 509.652V483.128L365.369 486.001L374.667 489.455L381.711 490.727L382.879 490.808L383.206 495.034V496.937L358.424 509.652Z" fill="#EFB624"/>
<path d="M329.73 448.942L330.429 405.926L352.245 416.177V439.42L351.294 440.909L329.73 448.942Z" fill="#EFB624"/>
<path d="M298.104 436.034C298.104 436.034 301.44 433.273 301.681 433.149C301.922 433.025 310.257 429.269 310.257 429.269L310.226 436.041L307.446 439.266H304.183L298.11 436.041L298.104 436.034Z" fill="#EFB624"/>
<path d="M330.948 385.704L352.245 376.541L351.757 345.555L329.73 339.198L330.138 386.192L330.948 385.704Z" fill="#EFB624"/>
<path d="M328.278 314.551L328.111 317.307L331.065 320.26L335.668 321.366L339.536 320.73L341.865 317.956L342.223 313.106L341.741 308.849L328.278 314.551Z" fill="#EFB624"/>
<path d="M311.514 304.375L310.556 307.322V307.335C310.556 307.335 310.544 307.341 310.532 307.353C310.383 307.539 309.24 308.929 308.968 309.232C308.944 309.25 308.931 309.262 308.919 309.275C308.913 309.281 308.907 309.287 308.894 309.293C308.517 309.503 304.965 310.727 304.965 310.727C304.965 310.727 301.659 310.665 300.3 310.56C300.288 310.56 300.269 310.56 300.257 310.554C299.948 310.529 299.75 310.504 299.725 310.473C299.614 310.313 289.036 308.848 288.9 308.848L310.865 300.52L311.508 304.375H311.514Z" fill="#EFB624"/>
<path d="M345.936 413.007L335.637 408.966L335.186 407.613L345.281 391.308L346.369 390.919L349.013 391.827C349.668 391.901 353.863 392.333 358.3 391.543L359.251 392.945L347.061 412.63L345.936 413.007ZM337.348 407.644L345.899 410.999L356.638 393.662C352.381 394.138 348.859 393.687 348.692 393.662L348.513 393.619L346.474 392.92L337.354 407.65L337.348 407.644Z" fill="#EFB624"/>
<path d="M302.717 337.214C300.381 334.496 297.576 332.29 294.388 330.665L294.023 329.349L305.973 310.059L306.43 309.683C307.122 309.417 307.752 309.046 308.302 308.589H308.308C308.308 308.589 308.358 308.54 308.389 308.515C308.926 308.051 309.377 307.508 309.729 306.896L309.76 306.853C310.335 305.852 310.631 304.74 310.631 303.603V302.793L310.767 302.305L322.89 282.732L323.841 282.305L327.734 282.997L328.5 283.912V297.616L328.364 298.104L304.212 337.103L302.723 337.22L302.717 337.214ZM296.118 329.485C298.793 330.962 301.197 332.84 303.285 335.07L326.653 297.35V284.69L324.144 284.245L312.491 303.059V303.603C312.491 305.086 312.102 306.538 311.361 307.798L311.33 307.835C310.872 308.632 310.279 309.343 309.569 309.942L309.513 309.985L309.488 309.998H309.495C308.864 310.535 308.154 310.968 307.382 311.295L296.118 329.485Z" fill="#EFB624"/>
<path d="M331.823 496.572L322.802 491.475L322.469 490.177L331.489 475.608L333.207 476.096V495.763L331.823 496.572ZM324.551 490.332L331.347 494.175V479.352L324.551 490.332Z" fill="#EFB624"/>
<path d="M297.013 450.443L296.68 450.264L296.191 449.448V435.577L297.501 434.737L304.545 437.962L304.946 439.291L298.243 450.115L297.019 450.443H297.013ZM298.039 437.017V446.909L302.815 439.198L298.039 437.011V437.017Z" fill="#EFB624"/>
<path d="M343.015 295.12L341.297 294.632V286.927L342.384 286.013L346.691 286.76L347.321 288.163L343.015 295.12ZM343.15 288.027V291.376L345.023 288.354L343.15 288.027Z" fill="#EFB624"/>
<path d="M312.35 282.602L310.633 282.114V281.07L311.72 280.155L312.301 280.26L312.931 281.663L312.35 282.602Z" fill="#EFB624"/>
<path d="M357.965 511.358L351.256 507.564L350.922 506.266L357.632 495.429L359.349 495.917V510.548L357.965 511.358ZM353.004 506.421L357.496 508.96V499.173L353.004 506.421Z" fill="#EFB624"/>
<path d="M310.093 348.268L308.406 348.014C307.356 344.054 305.385 340.316 302.715 337.208L302.629 336.115L326.781 297.115L328.499 297.603V314.829C328.499 315.571 328.659 316.294 328.974 316.967L328.925 317.851L310.086 348.262L310.093 348.268ZM304.563 336.522C306.756 339.198 308.468 342.281 309.598 345.549L327.102 317.282C326.8 316.498 326.651 315.676 326.651 314.829V300.86L304.563 336.522Z" fill="#EFB624"/>
<path d="M312.35 303.275L310.633 302.787V282.114L310.769 281.626L311.35 280.687L312.301 280.26L323.843 282.305L324.467 283.708L312.344 303.282L312.35 303.275ZM312.486 282.373V299.531L322.174 283.887L312.598 282.194L312.486 282.373Z" fill="#EFB624"/>
<path d="M294.388 330.659C293.128 330.016 291.805 329.466 290.471 329.028L287.289 327.99L286.652 327.106V320.835L286.788 320.347L293.677 309.219L294.598 308.793L299.862 309.553L300.295 309.8V309.738C300.146 309.621 300.004 309.59 299.992 309.59C300.06 309.602 300.177 309.615 300.332 309.627L300.431 309.639L303.18 310.035C304.286 310.196 305.373 310.078 306.418 309.677L307.536 311.03L295.587 330.319L294.376 330.659H294.388ZM288.5 326.439L291.045 327.267C292.207 327.644 293.35 328.101 294.462 328.632L304.805 311.932C304.175 311.981 303.545 311.963 302.914 311.876L300.165 311.481C299.899 311.462 299.671 311.437 299.473 311.376L294.925 310.714L288.494 321.101V326.439H288.5Z" fill="#EFB624"/>
<path d="M288.364 321.329L286.646 320.841V308.719L287.703 307.804L294.592 308.805L295.247 310.208L288.358 321.335L288.364 321.329ZM288.5 309.788V317.585L292.93 310.43L288.5 309.788Z" fill="#EFB624"/>
<path d="M317.937 480.347L316.219 479.859V474.07C316.219 470.517 315.354 466.971 313.717 463.813L313.754 462.899L328.947 438.37L330.665 438.858V449.318C331.029 449.578 331.999 450.202 334.576 451.642L334.909 452.939L317.937 480.347ZM315.607 463.436C317.226 466.736 318.079 470.4 318.079 474.07V476.603L332.827 452.791C329.015 450.641 328.953 450.387 328.842 449.961L328.811 449.726V442.127L315.607 463.443V463.436Z" fill="#EFB624"/>
<path d="M322.803 491.469L316.686 488.015L316.217 487.205V479.859L316.353 479.371L333.325 451.963L334.567 451.641C336.878 452.933 340.097 454.669 344.15 456.807L344.508 458.117L336.47 471.098L335.723 471.536C334.487 471.586 333.214 472.581 333.214 474.156V476.096L333.078 476.584L324.057 491.153L322.816 491.475L322.803 491.469ZM318.07 486.662L322.939 489.417L331.354 475.831V474.156C331.354 471.92 332.973 470.066 335.129 469.732L342.408 457.987C339.176 456.275 336.501 454.836 334.437 453.693L318.07 480.125V486.668V486.662Z" fill="#EFB624"/>
<path d="M315.329 463.875L313.716 463.813C312.029 460.557 309.527 457.734 306.475 455.658L306.209 454.403L328.94 417.697L330.658 418.185V438.858L330.522 439.346L315.329 463.875ZM308.242 454.638C310.787 456.517 312.944 458.877 314.575 461.564L328.798 438.599V421.441L308.236 454.638H308.242Z" fill="#EFB624"/>
<path d="M306.472 455.658C305.731 455.151 305.057 454.743 304.415 454.397L297.006 450.443L296.654 449.139L303.358 438.314L304.532 437.962L305.1 438.222C306.04 438.654 307.078 438.58 307.949 438.024C308.808 437.474 309.314 436.535 309.314 435.522V428.96L309.45 428.472L334.708 387.693L335.796 387.304L346.355 390.931L346.843 392.296L336.747 408.602L335.623 408.978L330.643 407.026V418.197L330.507 418.685L307.776 455.392L306.466 455.67L306.472 455.658ZM298.755 449.275L305.286 452.766C305.743 453.007 306.213 453.285 306.701 453.594L328.795 417.919V405.654L330.062 404.789L335.586 406.958L344.662 392.303L335.901 389.294L311.174 429.22V435.522C311.174 437.171 310.346 438.691 308.956 439.587C307.621 440.446 305.972 440.588 304.507 439.989L298.749 449.281L298.755 449.275Z" fill="#EFB624"/>
<path d="M345.351 477.431L343.689 477.246C343.182 475.775 342.157 474.57 340.804 473.847L337.059 471.845C336.633 471.617 336.182 471.506 335.719 471.53L334.891 470.115L342.929 457.134L344.152 456.801C348.601 459.149 352.506 461.163 352.703 461.268C352.753 461.292 353.148 461.484 353.791 461.75L354.223 463.097L345.351 477.425V477.431ZM337.208 469.905C337.455 469.986 337.702 470.091 337.937 470.221L341.681 472.222C342.917 472.884 343.936 473.847 344.671 475.021L352.092 463.041C351.962 462.979 351.888 462.942 351.882 462.942H351.869C351.832 462.917 348.286 461.089 344.06 458.858L337.214 469.905H337.208Z" fill="#EFB624"/>
<path d="M311.046 429.442L309.328 428.954V408.28L309.464 407.792L328.939 376.349L330.657 376.837V385.537L335.809 387.304L336.298 388.669L311.04 429.448L311.046 429.442ZM311.182 408.54V425.698L334.11 388.676L329.427 387.069L328.803 386.192V380.087L311.182 408.54Z" fill="#EFB624"/>
<path d="M387.34 491.642L386.463 490.233L411.443 449.905L413.154 450.289C413.822 456.115 413.229 462.158 411.4 468.256C407.068 482.67 398.975 490.542 387.346 491.648L387.34 491.642ZM411.529 453.285L389.07 489.541C398.863 487.854 405.771 480.526 409.62 467.718C411.091 462.831 411.727 457.993 411.529 453.285Z" fill="#EFB624"/>
<path d="M384.521 491.771C381.493 491.771 378.28 491.339 374.919 490.474L374.363 489.09L407.239 436.01L408.858 436.084C411.151 440.638 412.596 445.414 413.152 450.288L413.023 450.882L388.043 491.209L387.344 491.642C386.424 491.728 385.485 491.771 384.527 491.771H384.521ZM376.612 488.979C380.19 489.794 383.582 490.078 386.708 489.838L411.268 450.177C410.774 446.167 409.649 442.219 407.925 438.426L376.612 488.979Z" fill="#EFB624"/>
<path d="M351.256 507.558L344.509 503.739L344.039 502.93V496.961L344.175 496.473L364.126 464.264L364.83 463.832C366.029 463.727 367.135 463.474 368.117 463.084C372.671 461.274 374.981 456.393 374.981 448.571C374.981 448.169 374.963 447.774 374.951 447.378L374.938 447.1L375.074 446.575L392.615 418.253L393.993 418.024C396.983 420.471 399.708 423.134 402.087 425.939L402.167 427.026L365.534 486.18L364.342 486.526C362.179 485.482 360.462 484.505 359.35 483.838V495.905L359.214 496.393L352.504 507.23L351.262 507.552L351.256 507.558ZM345.893 502.392L351.392 505.506L357.496 495.652V482.17L358.942 481.404C358.942 481.404 361.073 482.843 364.397 484.505L400.233 426.643C398.25 424.363 396.038 422.188 393.628 420.149L376.798 447.323C376.816 447.737 376.829 448.151 376.829 448.577C376.829 457.233 374.123 462.695 368.79 464.814C367.777 465.216 366.653 465.494 365.454 465.636L345.886 497.233V502.399L345.893 502.392Z" fill="#EFB624"/>
<path d="M345.757 497.456L344.04 496.968V479.248C344.04 478.593 343.922 477.919 343.688 477.246L343.774 476.455L352.646 462.127L353.789 461.756C355.618 462.516 360.357 464.24 364.831 463.838L365.702 465.247L345.751 497.456H345.757ZM345.578 477.066C345.788 477.796 345.893 478.525 345.893 479.248V493.712L363.212 465.754C359.554 465.71 356.038 464.623 353.814 463.764L345.572 477.066H345.578Z" fill="#EFB624"/>
<path d="M374.926 490.474C371.466 489.584 367.907 488.262 364.348 486.538L363.965 485.216L400.598 426.062L402.093 425.951C404.824 429.17 407.104 432.574 408.865 436.072L408.827 436.974L375.951 490.054L374.932 490.462L374.926 490.474ZM366.084 485.309C369 486.662 371.898 487.731 374.734 488.503L406.974 436.448C405.497 433.594 403.656 430.801 401.494 428.138L366.084 485.315V485.309Z" fill="#EFB624"/>
<path d="M371.225 373.619L369.514 373.229C368.939 368.008 367.617 363.356 365.578 359.389L365.615 358.475L380.024 335.206L381.42 334.996C384.355 337.542 387.024 340.285 389.353 343.158L389.421 344.233L371.225 373.612V373.619ZM367.463 359.012C369.137 362.398 370.323 366.229 371.009 370.449L387.5 343.825C385.56 341.484 383.385 339.235 381.025 337.122L367.469 359.012H367.463Z" fill="#EFB624"/>
<path d="M355.969 417.258C353.905 416.115 352.509 415.59 352.497 415.584L345.941 413.013L345.49 411.66L357.681 391.975L358.305 391.549C365.966 390.183 369.852 386.149 369.852 379.562C369.852 377.381 369.741 375.256 369.519 373.229L369.655 372.642L387.851 343.263L389.358 343.164C391.978 346.39 394.215 349.843 396.025 353.421L395.988 354.323L357.211 416.93L355.975 417.252L355.969 417.258ZM347.653 411.691L353.164 413.854C353.207 413.866 354.338 414.292 356.099 415.219L394.14 353.798C392.633 350.875 390.816 348.045 388.74 345.358L371.403 373.347C371.613 375.342 371.718 377.431 371.718 379.562C371.718 386.952 367.344 391.691 359.052 393.297L347.659 411.691H347.653Z" fill="#EFB624"/>
<path d="M376.655 447.564L374.944 447.113C374.752 441.941 373.541 437.122 371.342 432.797L371.379 431.889L399.047 387.218L400.739 387.897C397.86 401.713 390.02 410.548 387.32 413.254C388.654 414.07 391.095 415.67 393.992 418.043L394.19 419.247L376.649 447.57L376.655 447.564ZM373.226 432.42C374.993 436.047 376.118 439.983 376.581 444.159L392.188 418.957C388.327 415.874 385.38 414.255 385.349 414.237L385.213 413.056L373.22 432.42H373.226ZM397.181 393.742L385.769 412.167C387.653 410.288 393.628 403.807 397.181 393.742Z" fill="#EFB624"/>
<path d="M367.196 359.457L365.584 359.395C364.095 356.504 362.223 353.958 360.017 351.839C359.597 351.437 359.146 351.03 358.633 350.603L358.441 349.405L371.262 328.706L372.547 328.41C375.711 330.418 378.695 332.636 381.426 335.009L381.605 336.195L367.196 359.463V359.457ZM361.302 350.498C363.285 352.408 365.015 354.632 366.455 357.128L379.609 335.892C377.342 333.971 374.901 332.154 372.337 330.48L360.431 349.701C360.74 349.973 361.024 350.239 361.302 350.498Z" fill="#EFB624"/>
<path d="M364.547 423.622C361.371 420.532 358.133 418.45 355.971 417.258L355.631 415.96L394.408 353.353L396.026 353.427C398.17 357.678 399.74 362.219 400.697 366.921L400.58 367.594L365.986 423.455L364.553 423.628L364.547 423.622ZM357.713 416.115C359.715 417.289 362.347 419.062 365.004 421.502L398.807 366.927C397.991 363.065 396.743 359.315 395.093 355.762L357.713 416.115Z" fill="#EFB624"/>
<path d="M372.955 432.859L371.343 432.791C369.65 429.448 367.364 426.365 364.546 423.622L364.404 422.472L398.998 366.612L400.697 366.915C400.889 367.86 401.043 368.713 401.173 369.534C402.131 375.75 401.989 381.922 400.747 387.891L400.629 388.188L372.962 432.859H372.955ZM366.369 422.818C368.692 425.173 370.657 427.749 372.226 430.517L398.961 387.353C400.129 381.651 400.259 375.756 399.338 369.819C399.326 369.757 399.319 369.695 399.307 369.633L366.363 422.818H366.369Z" fill="#EFB624"/>
<path d="M349.253 345.784L338.385 342.652L337.854 341.274L359.367 306.538L361.085 307.026V322.448C361.487 322.608 362.074 322.843 362.815 323.17L363.229 324.505L350.297 345.382L349.253 345.784ZM340.078 341.206L349.092 343.807L361.085 324.443C360.3 324.116 359.855 323.955 359.849 323.955L359.231 323.084V310.282L340.078 341.212V341.206Z" fill="#EFB624"/>
<path d="M311.046 388.089L309.328 387.601V366.927L309.464 366.439L337.805 320.68L338.281 320.297C340.085 319.655 341.29 317.943 341.29 316.034V315.311L341.426 314.823L357.299 289.201L358.244 288.774L360.308 289.133L361.074 290.047V307.032L360.938 307.52L339.424 342.256L338.38 342.658L330.65 340.427V356.158L330.514 356.646L311.04 388.089H311.046ZM311.182 367.187V384.345L328.803 355.892V339.192L329.989 338.302L338.231 340.681L359.239 306.766V290.826L358.559 290.708L343.156 315.577V316.034C343.156 318.611 341.593 320.934 339.226 321.922L311.188 367.193L311.182 367.187Z" fill="#EFB624"/>
<path d="M311.046 367.409L309.329 366.921V355.039C309.329 352.679 309.02 350.319 308.408 348.021L308.513 347.298L327.352 316.887L328.977 316.979C329.65 318.413 330.979 319.457 332.523 319.778L335.853 320.464C336.669 320.631 337.509 320.575 338.282 320.297L339.381 321.657L311.04 367.415L311.046 367.409ZM310.305 347.934C310.892 350.263 311.189 352.654 311.189 355.039V363.665L336.743 322.404C336.323 322.404 335.903 322.361 335.489 322.274L332.159 321.589C330.571 321.261 329.15 320.371 328.155 319.123L310.311 347.934H310.305Z" fill="#EFB624"/>
<path d="M358.633 350.597C354.518 347.162 350.83 346.235 350.792 346.229L350.755 346.217L349.254 345.784L348.723 344.406L361.654 323.529L362.816 323.171C365.034 324.147 368.519 325.846 372.547 328.404L372.838 329.677L360.017 350.375L358.633 350.597ZM351.25 344.431C351.583 344.518 355.006 345.432 358.985 348.509L370.768 329.485C367.586 327.514 364.793 326.112 362.797 325.197L350.941 344.345L351.25 344.431Z" fill="#EFB624"/>
<path d="M343.015 315.793L341.297 315.305V294.632L341.433 294.143L345.739 287.186L346.685 286.76L358.245 288.768L358.875 290.171L343.002 315.793H343.015ZM343.15 294.891V312.049L356.583 290.356L346.987 288.688L343.15 294.885V294.891Z" fill="#EFB624"/>
<path d="M311.046 408.762L309.328 408.274V387.601L309.464 387.113L328.939 355.67L330.657 356.158V376.831L330.521 377.32L311.046 408.762ZM311.182 387.86V405.018L328.803 376.566V359.408L311.182 387.86Z" fill="#EFB624"/>
<path d="M154.349 93.1977C153.793 92.7899 140.787 83.0216 140.787 66.4506C140.787 49.8797 154.436 44.3993 154.572 44.3499L155.826 45.2149V92.4501L154.349 93.1977ZM153.972 46.6606C150.772 48.3227 142.641 53.7907 142.641 66.4506C142.641 79.1105 150.605 87.396 153.972 90.4544V46.6606Z" fill="#EFB624"/>
<path d="M170.37 178.555C168.387 178.555 166.972 178.332 166.823 178.308L166.045 177.393V133.087L167.46 132.302C167.633 132.413 184.927 143.46 184.927 166.222C184.927 170.127 183.666 173.179 181.176 175.292C177.982 178.011 173.478 178.555 170.37 178.555ZM167.905 176.571C170.067 176.788 176.24 177.059 179.984 173.871C182.035 172.123 183.079 169.553 183.079 166.216C183.079 148.292 171.921 138.011 167.905 134.891V176.565V176.571Z" fill="#EFB624"/>
<path d="M154.349 93.1977C153.793 92.7899 140.787 83.0216 140.787 66.4506C140.787 49.8797 154.436 44.3993 154.572 44.3499L155.826 45.2149V92.4501L154.349 93.1977ZM153.972 46.6606C150.772 48.3227 142.641 53.7907 142.641 66.4506C142.641 79.1105 150.605 87.396 153.972 90.4544V46.6606Z" fill="#EFB624"/>
<path d="M167.806 219.383L166.879 217.776L185.822 206.877V199.123H187.676V207.415L187.213 208.218L167.806 219.383Z" fill="#EFB624"/>
<path d="M189.504 199.296L189.43 197.443C189.517 197.443 198.167 197.01 206.675 190.714C217.938 182.373 223.894 167.514 223.894 147.73C223.894 117.671 187.533 94.5569 187.169 94.3283L186.736 93.5436V73.8649H188.59V93.0432C190.549 94.3283 198.785 99.9261 206.916 108.397C215.51 117.35 225.754 131.443 225.754 147.736C225.754 173.562 215.936 186.21 207.7 192.271C198.735 198.87 189.881 199.29 189.511 199.302L189.504 199.296Z" fill="#EFB624"/>
<path d="M187.341 92.6867L166.652 100.372L167.298 102.11L187.986 94.4242L187.341 92.6867Z" fill="#EFB624"/>
<path d="M170.37 178.555C168.387 178.555 166.972 178.332 166.823 178.308L166.045 177.393V133.087L167.46 132.302C167.633 132.413 184.927 143.46 184.927 166.222C184.927 170.127 183.666 173.179 181.176 175.292C177.982 178.011 173.478 178.555 170.37 178.555ZM167.905 176.571C170.067 176.788 176.24 177.059 179.984 173.871C182.035 172.123 183.079 169.553 183.079 166.216C183.079 148.292 171.921 138.011 167.905 134.891V176.565V176.571Z" fill="#EFB624"/>
<path d="M124.878 135.953L124.137 134.254L142.123 126.383L142.672 126.321L155.715 128.928L155.357 130.751L142.598 128.199L124.878 135.953Z" fill="#EFB624"/>
<path d="M155.203 135.277L142.297 140.118L142.948 141.854L155.854 137.013L155.203 135.277Z" fill="#EFB624"/>
<path d="M204.92 77.053L204.457 75.2612L224.426 70.1021C224.018 65.9378 221.571 45.7894 211.401 34.0625C200.014 20.933 188.349 15.4032 188.232 15.3476L187.694 14.5073V3.52796L172.705 1.84739L154.28 4.30647L154.033 2.47143L172.569 0H172.798L188.726 1.77942L189.548 2.70004V13.9327C192.019 15.1808 202.393 20.8527 212.798 32.8515C224.537 46.3888 226.273 69.7499 226.341 70.7385L225.649 71.7024L204.914 77.0592L204.92 77.053Z" fill="#EFB624"/>
<path d="M188.474 1.77227L166.367 5.47968L166.674 7.30772L188.781 3.60032L188.474 1.77227Z" fill="#EFB624"/>
<path d="M188.407 13.6102L166.303 18.962L166.739 20.7635L188.844 15.4117L188.407 13.6102Z" fill="#EFB624"/>
<path d="M125.836 135.533L129.104 133.087L142.493 127.229L155.061 129.744L154.807 136.392L141.826 140.699L125.836 135.533Z" fill="#EFB624"/>
<path d="M154.894 90.8003V45.8574L148.691 49.3544L142.766 58.9621L141.709 70.479C141.709 70.479 143.89 77.4237 143.989 77.9365C144.088 78.4494 150.557 88.3413 150.557 88.3413L154.888 91.7209V90.8065L154.894 90.8003Z" fill="#EFB624"/>
<path d="M166.607 64.5291L174.349 53.9452L177.531 58.6656L180.027 64.8627L180.997 70.6521V73.4077L187.664 74.5755V92.4501L186.57 93.9515L166.978 100.458L166.607 64.5291Z" fill="#EFB624"/>
<path d="M166.977 177.393L167.341 133.97L169.64 135.107L175.491 141.971L180.193 148.86L183.202 157.998L183.993 165.58L183.14 171.041C183.14 171.041 180.545 174.619 180.391 174.736C180.236 174.854 175.485 177.041 175.485 177.041L169.899 177.615L166.971 177.387L166.977 177.393Z" fill="#EFB624"/>
<path d="M167.342 217.85V199.123L171.586 199.593L179.495 200.013L185.396 199.865L186.749 199.519V207.415L167.342 218.19V217.85Z" fill="#EFB624"/>
<path d="M156.319 152.778L154.602 152.29V128.496L154.737 128.008L170.079 103.232L171.395 102.954C173.724 104.56 177.345 107.248 181.342 110.936L181.503 112.104L168.077 133.779L167.892 133.816L167.756 134.291L156.313 152.765L156.319 152.778ZM156.455 128.762V149.033L166.044 133.55V133.087L166.52 132.821L166.502 132.809L179.52 111.783C176.257 108.823 173.286 106.556 171.142 105.036L156.449 128.755L156.455 128.762Z" fill="#EFB624"/>
<path d="M125.296 60.1114L123.578 59.6295V59.129C123.578 27.0684 141.768 19.6108 149.596 17.887L150.585 19.2772L125.296 60.1114ZM147.786 20.2781C139.939 22.7001 126.408 30.6025 125.481 56.2931L147.786 20.2781Z" fill="#EFB624"/>
<path d="M128.225 150.553L126.544 150.325C124.017 141.545 123.591 135.422 123.572 135.169L124.783 134.223L134.953 137.51L135.454 138.882L128.225 150.56V150.553ZM125.562 136.423C125.797 138.443 126.39 142.546 127.768 147.779L133.26 138.913L125.562 136.429V136.423Z" fill="#EFB624"/>
<path d="M175.634 142.954C171.871 137.745 167.898 134.835 166.773 134.063L166.508 132.808L179.934 111.134L181.349 110.943C184.586 113.927 187.601 117.14 190.326 120.488L190.394 121.563L177.178 142.904L175.64 142.96L175.634 142.954ZM168.541 133.049C170.116 134.211 173.224 136.763 176.313 140.767L188.466 121.143C186.143 118.332 183.61 115.62 180.91 113.068L168.534 133.043L168.541 133.049Z" fill="#EFB624"/>
<path d="M127.891 79.7222L126.204 79.4689C124.505 73.0247 123.621 66.3518 123.578 59.6295L123.714 59.1352L149.003 18.301L149.59 17.887C151.165 17.541 152.432 17.3928 153.223 17.331V11.7455L153.359 11.2574L157.857 3.99142L158.864 3.57745L166.723 5.49899L167.427 6.40107V15.5824L167.292 16.0705L127.878 79.7099L127.891 79.7222ZM125.438 59.889C125.493 65.6289 126.173 71.3317 127.471 76.8801L165.592 15.3291V7.13632L159.093 5.54842L155.089 12.0174V18.2207L154.162 19.1475C154.162 19.1475 152.648 19.1598 150.375 19.6232L125.438 59.889Z" fill="#EFB624"/>
<path d="M154.946 12.2398L153.229 11.7517V3.38589L154.378 2.48383L158.876 3.58361L159.444 4.97379L154.946 12.2398ZM155.082 4.566V8.49558L157.195 5.085L155.082 4.566Z" fill="#EFB624"/>
<path d="M183.515 156.442L181.828 156.182C180.617 151.425 178.529 146.976 175.625 142.954L175.588 141.922L188.804 120.581L190.311 120.482C193.265 124.115 195.897 127.958 198.14 131.907L198.121 132.852L183.515 156.435V156.442ZM177.491 142.373C179.931 145.864 181.797 149.651 183.045 153.674L196.255 132.345C194.334 129.021 192.134 125.771 189.694 122.67L177.491 142.373Z" fill="#EFB624"/>
<path d="M204.561 77.0778L202.714 76.8183L202.053 75.4096L203.931 72.3759L205.642 72.8269C205.729 74.9524 205.612 76.1881 205.605 76.2437L204.555 77.0716L204.561 77.0778Z" fill="#EFB624"/>
<path d="M166.846 219.364L160.624 215.422L160.334 214.15L166.556 204.103L168.273 204.591V218.58L166.852 219.364H166.846ZM162.391 214.347L166.414 216.899V207.854L162.391 214.354V214.347Z" fill="#EFB624"/>
<path d="M148.176 187.569C145.05 184.517 142.133 181.119 139.514 177.467L139.477 176.442L148.726 161.508L150.295 161.496C151.908 164.004 153.483 165.994 154.602 167.304V152.29L154.738 151.801L166.18 133.328L167.898 133.816V157.609L167.762 158.097L149.616 187.402L148.182 187.575L148.176 187.569ZM141.386 176.886C143.616 179.939 146.051 182.806 148.652 185.425L166.051 157.337V137.066L156.461 152.549V169.701L154.88 170.356C154.769 170.245 152.322 167.798 149.548 163.714L141.386 176.893V176.886Z" fill="#EFB624"/>
<path d="M139.513 177.474C136.789 173.68 134.336 169.54 132.223 165.184L132.266 164.295L142.652 147.526L144.345 147.81C145.371 152.345 147.373 156.948 150.295 161.496V162.484L141.052 177.418L139.513 177.467V177.474ZM134.113 164.832C135.917 168.496 137.963 171.993 140.218 175.249L148.423 161.996C146.001 158.135 144.209 154.224 143.085 150.337L134.113 164.826V164.832Z" fill="#EFB624"/>
<path d="M133.848 165.265L132.229 165.178C129.943 160.47 128.034 155.465 126.551 150.313L126.656 149.571L133.885 137.894L134.96 137.498L142.918 140.068L143.56 140.952C143.56 143.176 143.826 145.481 144.351 147.798L144.234 148.49L133.848 165.259V165.265ZM128.441 150.201C129.72 154.557 131.302 158.802 133.168 162.843L142.461 147.841C142.01 145.747 141.756 143.664 141.713 141.632L135.077 139.488L128.448 150.195L128.441 150.201Z" fill="#EFB624"/>
<path d="M202.713 76.8183L189.151 74.9215L188.49 73.5128L200.019 54.8906L201.669 55.0327C204.666 62.5211 205.481 68.8418 205.642 72.8208L205.506 73.346L203.628 76.3797L202.713 76.8122V76.8183ZM190.82 73.2842L202.373 74.8968L203.782 72.6231C203.615 69.0951 202.911 63.7754 200.613 57.467L190.813 73.2842H190.82Z" fill="#EFB624"/>
<path d="M185.45 200.328L184.498 198.925L206.135 163.992L207.847 164.424C207.946 166.031 207.995 167.625 207.995 169.151C207.995 191.554 195.737 198.474 185.45 200.328ZM206.123 167.532L187.217 198.06C199.778 194.953 206.142 185.24 206.142 169.151C206.142 168.613 206.142 168.076 206.123 167.532Z" fill="#EFB624"/>
<path d="M178.118 200.958C175.133 200.958 172.458 200.674 170.395 200.347L169.752 198.944L202.696 145.759L204.364 145.963C206.292 151.9 207.466 158.11 207.849 164.431L207.713 164.974L186.076 199.908L185.452 200.334C182.912 200.792 180.422 200.965 178.118 200.965V200.958ZM172.075 198.716C175.436 199.142 179.984 199.37 184.716 198.573L205.977 164.239C205.631 158.864 204.692 153.562 203.197 148.459L172.075 198.709V198.716Z" fill="#EFB624"/>
<path d="M160.626 215.422L155.862 212.407L155.43 211.623V198.536L155.566 198.048L168.534 177.115L169.356 176.677C172.13 176.788 177.252 176.522 180.36 173.532C182.158 171.802 183.073 169.343 183.073 166.222C183.073 162.793 182.653 159.414 181.831 156.182L181.942 155.465L196.548 131.882L198.142 131.913C200.7 136.423 202.795 141.15 204.358 145.963L204.265 146.735L171.321 199.92L170.388 200.347C169.523 200.211 168.806 200.075 168.263 199.964V204.585L168.127 205.073L161.905 215.12L160.62 215.416L160.626 215.422ZM157.283 211.116L160.824 213.359L166.415 204.332V198.814L167.577 197.918C167.577 197.918 168.522 198.166 170.073 198.425L202.461 146.13C201.114 142.058 199.378 138.06 197.29 134.205L183.721 156.114C184.518 159.383 184.926 162.781 184.926 166.229C184.926 169.874 183.82 172.778 181.645 174.872C178.241 178.141 172.989 178.604 169.826 178.549L157.277 198.808V211.122L157.283 211.116Z" fill="#EFB624"/>
<path d="M157.147 199.024L155.429 198.536V193.785C152.89 191.882 150.455 189.794 148.175 187.569L148.033 186.42L166.18 157.115L167.897 157.603V176.571C168.274 176.609 168.775 176.652 169.362 176.67L170.115 178.085L157.147 199.018V199.024ZM150.004 186.76C152.179 188.842 154.502 190.795 156.906 192.574L157.283 193.322V195.28L167.724 178.419C167.174 178.363 166.847 178.314 166.822 178.308L166.044 177.393V160.859L150.004 186.76Z" fill="#EFB624"/>
<path d="M180.867 65.5609L179.18 65.3076C177.988 60.7972 175.714 56.707 172.433 53.1482L172.328 52.0298L184.679 32.0916L186.125 31.9309C188.726 34.563 191.253 37.5225 193.626 40.723C193.99 41.2111 194.336 41.6992 194.676 42.1874L194.707 43.2068L180.867 65.5547V65.5609ZM174.268 52.4191C177.03 55.5393 179.075 59.0302 180.373 62.8362L192.81 42.7558C192.594 42.4468 192.365 42.1379 192.137 41.829C190.061 39.0363 187.873 36.4351 185.624 34.0811L174.268 52.4191Z" fill="#EFB624"/>
<path d="M189.152 74.9215L180.946 73.7723L180.149 72.8517C180.149 70.2628 179.822 67.7234 179.186 65.3014L179.291 64.5785L193.131 42.2306L194.675 42.1874C197.536 46.2591 199.89 50.5841 201.669 55.0388L201.595 55.8729L190.066 74.4952L189.152 74.9277V74.9215ZM181.991 72.0484L188.812 72.9999L199.779 55.2921C198.246 51.5417 196.288 47.8964 193.959 44.4178L181.076 65.2211C181.626 67.4269 181.935 69.7129 181.991 72.0484Z" fill="#EFB624"/>
<path d="M155.682 82.4284L153.965 81.9403V58.1466L154.101 57.6585L174.953 23.9914L176.257 23.7072C179.631 25.9562 182.949 28.718 186.118 31.9309L186.248 33.0678L173.897 53.006L172.426 53.1481C170.684 51.2637 169.016 49.9291 167.891 49.1259V62.4284L167.755 62.9165L155.676 82.4222L155.682 82.4284ZM155.818 58.4123V78.6842L166.044 62.175V47.4144L167.422 46.605C167.539 46.6668 170.035 48.0879 172.952 51.0165L184.283 32.7218C181.608 30.0711 178.834 27.7418 176.016 25.7956L155.812 58.4123H155.818Z" fill="#EFB624"/>
<path d="M133.428 94.5693L131.809 94.489C129.442 89.6388 127.558 84.5847 126.211 79.4689L126.316 78.746L165.729 15.1066L167.447 15.5947V19.1783C168.794 19.6293 172 20.8774 176.264 23.7196L176.535 24.98L155.683 58.6471L153.965 58.1589V46.673C150.765 48.335 142.634 53.8031 142.634 66.463C142.634 69.7809 143.208 73.0864 144.345 76.2807L144.259 77.0777L133.421 94.5817L133.428 94.5693ZM128.102 79.3762C129.269 83.7074 130.826 87.9953 132.748 92.1473L142.461 76.4661C141.348 73.1976 140.786 69.8303 140.786 66.4506C140.786 49.7067 154.435 44.3993 154.571 44.3498L155.825 45.2148V54.8905L174.484 24.7637C169.603 21.6374 166.322 20.7662 166.291 20.7538L165.599 19.858V18.8447L128.108 79.3762H128.102Z" fill="#EFB624"/>
<path d="M147.593 117.078C144.541 113.884 141.68 110.411 139.097 106.76L139.066 105.734L149.996 88.088L151.473 87.952C152.424 88.9962 153.289 89.8365 153.975 90.4544V81.9341L154.111 81.446L166.19 61.9402L167.908 62.4284V86.2221L167.772 86.7102L149.063 116.923L147.605 117.078H147.593ZM140.963 106.191C143.163 109.256 145.566 112.191 148.112 114.928L166.048 85.9687V65.6968L155.823 82.206V92.4501L154.346 93.1977C154.278 93.1482 152.851 92.0855 150.935 90.1022L140.969 106.197L140.963 106.191Z" fill="#EFB624"/>
<path d="M156.32 128.984L154.603 128.496V123.572C153.657 122.824 151.007 120.649 147.59 117.084L147.473 115.953L166.181 85.7402L167.899 86.2283V100.699C168.529 101.069 169.753 101.817 171.402 102.954L171.662 104.208L156.32 128.984ZM149.431 116.312C153.274 120.266 156.055 122.348 156.086 122.367L156.456 123.108V125.234L169.617 103.979C167.707 102.7 166.534 102.045 166.521 102.039L166.045 101.23V89.4782L149.431 116.306V116.312Z" fill="#EFB624"/>
<path d="M139.093 106.766C136.319 102.849 133.866 98.7214 131.803 94.4891L131.846 93.5932L142.683 76.0893L144.345 76.2685C146.205 81.4955 149.239 85.5116 151.463 87.9583L151.562 89.0705L140.632 106.716L139.087 106.766H139.093ZM133.693 94.1369C135.46 97.702 137.512 101.199 139.804 104.542L149.628 88.6812C147.614 86.3828 145.111 82.9722 143.289 78.6472L133.7 94.1307L133.693 94.1369Z" fill="#EFB624"/>
<path d="M248.541 299.865C275.372 299.865 297.123 278.114 297.123 251.283C297.123 224.451 275.372 202.7 248.541 202.7C221.71 202.7 199.959 224.451 199.959 251.283C199.959 278.114 221.71 299.865 248.541 299.865Z" fill="#EFB624"/>
<path d="M248.543 157.455C243.328 157.455 238.212 157.881 233.232 158.697V173.13C238.224 172.16 243.347 171.665 248.543 171.665C269.809 171.665 289.803 179.945 304.842 194.983C319.881 210.022 328.16 230.016 328.16 251.283C328.16 256.337 327.69 261.323 326.77 266.179H341.19C341.969 261.329 342.371 256.355 342.371 251.283C342.371 199.463 300.362 157.455 248.543 157.455ZM192.244 307.582C177.205 292.543 168.926 272.549 168.926 251.283C168.926 242.114 170.464 233.186 173.424 224.783H158.508C156.037 233.186 154.715 242.076 154.715 251.283C154.715 303.102 196.723 345.11 248.543 345.11C260.863 345.11 272.621 342.738 283.396 338.425V322.905C272.676 328.138 260.82 330.9 248.543 330.9C227.276 330.9 207.282 322.62 192.244 307.582Z" fill="#EFB624"/>
<path d="M455.168 264.87L455.164 265.235L455.327 265.56L455.333 265.572L455.748 266.4H456.674C461.61 266.4 466.493 263.648 470.952 259.212C475.434 254.754 479.651 248.44 483.281 240.922C490.544 225.884 495.573 205.784 495.573 185.394V182.022L493.069 184.28L486.235 190.444L479.402 196.607L478.969 196.996L478.913 197.576C477.592 211.179 474.197 222.416 470.462 230.746C468.443 208.554 463.131 186.958 454.601 166.292C443.528 139.47 427.522 115.358 407.033 94.6331C386.539 73.8958 362.601 57.6096 335.897 46.22C310.324 35.3089 283.262 29.3743 255.365 28.547L254.733 28.5283L254.279 28.9671C252.949 30.2509 251.922 31.2418 250.896 32.2324L250.893 32.2356C249.866 33.2273 248.839 34.2189 247.507 35.504L246.427 36.5461L247.47 37.6254L253.778 44.1561L254.203 44.5954L254.813 44.6134C308.137 46.1837 357.923 67.8159 395.601 105.93C434.738 145.521 455.942 198.005 455.298 253.718L455.168 264.87Z" stroke="#EFB624" stroke-width="3"/>
<path d="M250.663 466.031L249.585 467.073L242.82 473.61L242.365 474.049L241.733 474.031C214.06 473.21 187.197 467.362 161.798 456.619C161.798 456.619 161.798 456.619 161.798 456.619L162.383 455.237C136.025 444.091 112.355 428.132 92.0271 407.805C71.6996 387.477 55.7403 363.807 44.5942 337.449C35.6423 316.28 30.1125 294.097 28.0815 271.265L250.663 466.031ZM250.663 466.031L249.622 464.953L243.32 458.422L242.896 457.982L242.285 457.964C131.156 454.652 41.7692 363.209 41.7692 251.289V240.279V238.779H40.2692C35.4414 238.779 30.624 241.536 26.206 245.96C21.7617 250.409 17.5471 256.712 13.9041 264.22C6.61652 279.239 1.5 299.322 1.5 319.717V323.086L4.00388 320.831C6.61191 318.482 8.71849 316.585 10.8241 314.689L10.8372 314.677C12.9472 312.777 15.0573 310.877 17.6709 308.523L18.1038 308.133L18.16 307.554C19.5054 293.684 23.0061 282.275 26.8238 273.897L250.663 466.031Z" stroke="#EFB624" stroke-width="3"/>
<path d="M225.417 442.448C232.72 442.448 238.64 436.528 238.64 429.226C238.64 421.923 232.72 416.003 225.417 416.003C218.115 416.003 212.195 421.923 212.195 429.226C212.195 436.528 218.115 442.448 225.417 442.448Z" fill="#EFB624"/>
<path d="M125.238 394.873C132.54 394.873 138.46 388.953 138.46 381.651C138.46 374.348 132.54 368.428 125.238 368.428C117.935 368.428 112.016 374.348 112.016 381.651C112.016 388.953 117.935 394.873 125.238 394.873Z" fill="#EFB624"/>
<path d="M72.1636 297.499C79.466 297.499 85.3857 291.579 85.3857 284.276C85.3857 276.974 79.466 271.054 72.1636 271.054C64.8612 271.054 58.9414 276.974 58.9414 284.276C58.9414 291.579 64.8612 297.499 72.1636 297.499Z" fill="#EFB624"/>
<path d="M271.667 86.5619C278.97 86.5619 284.89 80.6422 284.89 73.3398C284.89 66.0374 278.97 60.1176 271.667 60.1176C264.365 60.1176 258.445 66.0374 258.445 73.3398C258.445 80.6422 264.365 86.5619 271.667 86.5619Z" fill="#EFB624"/>
<path d="M371.847 134.137C379.15 134.137 385.069 128.217 385.069 120.915C385.069 113.612 379.15 107.693 371.847 107.693C364.545 107.693 358.625 113.612 358.625 120.915C358.625 128.217 364.545 134.137 371.847 134.137Z" fill="#EFB624"/>
<path d="M424.921 231.511C432.224 231.511 438.144 225.591 438.144 218.289C438.144 210.987 432.224 205.067 424.921 205.067C417.619 205.067 411.699 210.987 411.699 218.289C411.699 225.591 417.619 231.511 424.921 231.511Z" fill="#EFB624"/>
</svg>
