<svg width="118" height="27" viewBox="0 0 118 27" fill="none" xmlns="http://www.w3.org/2000/svg">
<path d="M33.4224 18.5614H31.4609V10.2666H35.314C36.0748 10.2666 36.7334 10.3793 37.2755 10.616C38.383 11.1122 38.9937 12.0273 38.9937 13.2792C38.9937 13.8881 38.8553 14.4298 38.5435 14.8703C38.22 15.3551 37.7477 15.7399 37.1357 15.9766L38.9704 18.5614H36.8472L35.2441 16.2703H33.4211V18.5614H33.4224ZM33.4224 11.8349V14.7134H35.2105C36.4215 14.7134 37.0102 14.1716 37.0102 13.2805C37.0102 12.3894 36.4215 11.8362 35.2105 11.8362H33.4224V11.8349Z" fill="#EFB624"/>
<path d="M49.3322 18.5614H42.3066V10.2666H49.3439V11.802H44.2565V13.6083H48.825V15.0982H44.2565V17.0171H49.3322V18.5627V18.5614Z" fill="#EFB624"/>
<path d="M53.0938 17.7486L53.7627 16.2929C54.4898 16.8119 55.5508 17.1613 56.5664 17.1613C56.9468 17.1613 57.2703 17.1271 57.5122 17.0486C57.9858 16.9018 58.1928 16.6195 58.1928 16.2702C58.1928 16.0448 58.1126 15.8752 57.9276 15.7398C57.5808 15.4803 56.9701 15.3335 56.2779 15.1866C54.7085 14.8487 53.2671 14.3626 53.2671 12.7031C53.2671 12.2297 53.4056 11.7892 53.6708 11.4057C54.1896 10.6158 55.2402 10.1196 56.8433 10.1196C57.9043 10.1196 59.0002 10.3677 59.7855 10.8538L59.1852 12.3209C58.3895 11.8804 57.5937 11.6664 56.8317 11.6664C56.4513 11.6664 56.1395 11.712 55.8975 11.7905C55.4136 11.9715 55.217 12.2424 55.217 12.6145C55.217 12.8284 55.3088 12.9867 55.4822 13.1221C55.8393 13.3816 56.4513 13.5284 57.1551 13.6753C58.7013 14.0246 60.1543 14.4537 60.1543 16.136C60.1543 16.5993 60.0158 17.017 59.7506 17.4119C59.2201 18.179 58.1592 18.7094 56.5548 18.7094C55.1937 18.7094 53.8675 18.3144 53.0938 17.7499V17.7486Z" fill="#EFB624"/>
<path d="M64.7853 17.4778C63.9546 16.7107 63.4707 15.65 63.4707 14.4082C63.4707 13.1665 63.9546 12.1171 64.7853 11.35C65.6275 10.5716 66.792 10.1197 68.1078 10.1197C69.4237 10.1197 70.5881 10.5716 71.4304 11.35C72.2494 12.1171 72.745 13.1677 72.745 14.4082C72.745 15.6487 72.2494 16.7221 71.4304 17.4778C70.5881 18.2563 69.4457 18.7081 68.1195 18.7081C66.7933 18.7081 65.6159 18.2563 64.7853 17.4778ZM70.7615 14.4082C70.7615 12.8513 69.6423 11.7564 68.1078 11.7564C66.5733 11.7564 65.4542 12.8627 65.4542 14.4082C65.4542 15.9538 66.5733 17.0715 68.1078 17.0715C69.6423 17.0715 70.7615 15.9652 70.7615 14.4082Z" fill="#EFB624"/>
<path d="M78.1433 18.5614H76.2051V10.2666H77.8314L82.0416 15.3007V10.2666H83.9798V18.5614H82.3767L78.1433 13.5273V18.5614Z" fill="#EFB624"/>
<path d="M89.3017 18.5614H87.2949L91.0678 10.2666H93.006L96.8008 18.5614H94.7358L93.9052 16.5867H90.1323L89.3017 18.5614ZM92.0239 12.1514L90.7663 15.1197H93.2815L92.0239 12.1514Z" fill="#EFB624"/>
<path d="M102.075 18.5614H100.113V10.2666H103.966C104.727 10.2666 105.386 10.3793 105.928 10.616C107.035 11.1122 107.647 12.0273 107.647 13.2792C107.647 13.8881 107.509 14.4298 107.197 14.8703C106.874 15.3551 106.401 15.7399 105.789 15.9766L107.624 18.5614H105.501L103.898 16.2703H102.075V18.5614ZM102.075 11.8349V14.7134H103.863C105.074 14.7134 105.663 14.1716 105.663 13.2805C105.663 12.3894 105.074 11.8362 103.863 11.8362H102.075V11.8349Z" fill="#EFB624"/>
<path d="M117.988 18.5614H110.963V10.2666H118V11.802H112.913V13.6083H117.481V15.0982H112.913V17.0171H117.988V18.5627V18.5614Z" fill="#EFB624"/>
<path d="M5.69208 23.3245C5.12926 23.3245 4.67383 22.8776 4.67383 22.3283V6.43741C4.67383 5.88679 5.13056 5.44122 5.69208 5.44122C6.25361 5.44122 6.71034 5.88805 6.71034 6.43741V22.327C6.71034 22.8776 6.25361 23.3232 5.69208 23.3232V23.3245Z" fill="#EFB624"/>
<path d="M19.7175 23.3246C19.1547 23.3246 18.6992 22.8778 18.6992 22.3284V6.43753C18.6992 5.88691 19.1559 5.44135 19.7175 5.44135C20.279 5.44135 20.7357 5.88817 20.7357 6.43753V22.3271C20.7357 22.8778 20.279 23.3233 19.7175 23.3233V23.3246Z" fill="#EFB624"/>
<path d="M1.01826 19.6892C0.455434 19.6892 0 19.2424 0 18.693V10.0742C0 9.52357 0.456727 9.078 1.01826 9.078C1.57979 9.078 2.03651 9.52483 2.03651 10.0742V18.693C2.03651 19.2437 1.57979 19.6892 1.01826 19.6892Z" fill="#EFB624"/>
<path d="M24.3913 19.6892C23.8285 19.6892 23.373 19.2424 23.373 18.693V10.0742C23.373 9.52357 23.8298 9.078 24.3913 9.078C24.9528 9.078 25.4096 9.52483 25.4096 10.0742V18.693C25.4096 19.2437 24.9528 19.6892 24.3913 19.6892Z" fill="#EFB624"/>
<path d="M15.0422 26.5486C14.4806 26.5486 14.0252 26.1043 14.0239 25.555L13.9644 3.15788C13.9644 2.487 13.4236 1.98322 12.7055 1.98322C12.0404 1.98322 11.3275 2.45409 11.3275 3.15535L11.387 25.5499C11.3883 26.1005 10.9342 26.5473 10.3714 26.5499H10.3688C9.80726 26.5499 9.35183 26.1056 9.35053 25.5562L9.29102 3.15914C9.29102 1.41107 10.8229 -0.00915527 12.7068 -0.00915527C14.5906 -0.00915527 16.0035 1.38196 16.0035 3.15661L16.063 25.5512C16.0643 26.1018 15.6102 26.5486 15.0473 26.5511H15.0447L15.0422 26.5486Z" fill="#EFB624"/>
</svg>
